<svg xmlns="http://www.w3.org/2000/svg" xmlns:xlink="http://www.w3.org/1999/xlink" width="210" height="47" viewBox="0 0 210 47"><defs><polygon id="a" points="20.822 .293 0 .293 0 41.937 41.645 41.937 41.645 .293"/></defs><g fill="none" fill-rule="evenodd"><path fill="#0083DB" fill-rule="nonzero" d="M63.7152178,29.101927 C63.7152178,30.8508588 63.1313665,31.43471 61.3815608,31.43471 L56.8357367,31.43471 L56.8357367,22.8797156 L61.3815608,22.8797156 C63.1313665,22.8797156 63.7152178,23.4626928 63.7152178,25.2124986 L63.7152178,29.101927 Z M56.8357367,11.9910641 L60.9191995,11.9910641 C62.6690053,11.9910641 63.2528565,12.5740413 63.2528565,14.3238471 L63.2528565,16.6575042 C63.2528565,18.4073099 62.6690053,18.9911612 60.9191995,18.9911612 L56.8357367,18.9911612 L56.8357367,11.9910641 Z M65.0026623,20.740967 L65.0026623,20.3520241 C65.0026623,20.3520241 67.5294797,19.9630813 67.5294797,17.046447 L67.5294797,13.5468355 C67.5294797,9.85231548 65.779674,8.10163568 62.086028,8.10163568 L52.5573654,8.10163568 L52.5573654,35.3241385 L62.5483893,35.3241385 C66.2429093,35.3241385 67.9935891,33.5734587 67.9935891,29.8789387 L67.9935891,24.8244298 C67.9935891,21.1299098 65.0026623,20.740967 65.0026623,20.740967 Z"/><polygon fill="#0083DB" fill-rule="nonzero" points="75.916 31.435 86.221 31.435 86.221 35.324 71.638 35.324 71.638 8.102 75.916 8.102"/><path fill="#0083DB" fill-rule="nonzero" d="M104.377225,30.2683185 C104.377225,33.9628385 102.62742,35.7126443 98.9328996,35.7126443 L93.4885738,35.7126443 C89.7931798,35.7126443 88.0442481,33.9628385 88.0442481,30.2683185 L88.0442481,8.1020727 L92.3313596,8.1020727 L92.3217453,29.4904329 C92.3217453,31.2402386 92.9047225,31.8232159 94.6554023,31.8232159 L97.7669451,31.8232159 C99.5158768,31.8232159 100.098854,31.2402386 100.098854,29.4904329 L100.090114,8.1020727 L104.377225,8.1020727 L104.377225,30.2683185 Z"/><polygon fill="#0083DB" fill-rule="nonzero" points="112.3 19.574 120.467 19.574 120.467 23.463 112.3 23.463 112.3 31.435 123.188 31.435 123.188 35.324 108.021 35.324 108.021 8.102 122.82 8.102 122.82 11.991 112.3 11.991"/><polygon fill="#0083DB" fill-rule="nonzero" points="149.821 19.574 157.988 19.574 157.988 23.463 149.821 23.463 149.821 31.435 160.709 31.435 160.709 35.324 145.542 35.324 145.542 8.102 160.315 8.102 160.315 11.991 149.821 11.991"/><path fill="#0083DB" fill-rule="nonzero" d="M169.21321,25.018639 L171.545993,14.5189304 L171.934936,14.5189304 L174.268593,25.018639 L169.21321,25.018639 Z M174.223144,8.10093646 L169.259534,8.10181049 L162.557481,35.3243133 L167.060477,35.3243133 L168.434451,28.9080674 L175.046479,28.9080674 L176.421326,35.3243133 L180.923449,35.3216912 L174.223144,8.10093646 Z"/><polygon fill="#0083DB" fill-rule="nonzero" points="191.988 35.324 187.437 18.602 187.049 18.602 187.059 35.324 182.771 35.324 182.771 8.101 188.34 8.101 193.465 26.963 193.854 26.963 198.98 8.101 204.548 8.101 204.548 35.324 200.261 35.324 200.271 18.602 199.882 18.602 195.34 35.324"/><path fill="#0083DB" fill-rule="nonzero" d="M137.620126,29.101927 C137.620126,30.8508588 137.036275,31.43471 135.286469,31.43471 L130.740645,31.43471 L130.740645,22.8797156 L135.286469,22.8797156 C137.036275,22.8797156 137.620126,23.4626928 137.620126,25.2124986 L137.620126,29.101927 Z M130.740645,11.9910641 L134.824108,11.9910641 C136.573914,11.9910641 137.157765,12.5740413 137.157765,14.3238471 L137.157765,16.6575042 C137.157765,18.4073099 136.573914,18.9911612 134.824108,18.9911612 L130.740645,18.9911612 L130.740645,11.9910641 Z M138.907571,20.740967 L138.907571,20.3520241 C138.907571,20.3520241 141.434388,19.9630813 141.434388,17.046447 L141.434388,13.5468355 C141.434388,9.85231548 139.684582,8.10163568 135.990936,8.10163568 L126.462274,8.10163568 L126.462274,35.3241385 L136.453298,35.3241385 C140.147818,35.3241385 141.898498,33.5734587 141.898498,29.8789387 L141.898498,24.8244298 C141.898498,21.1299098 138.907571,20.740967 138.907571,20.740967 Z"/><g transform="translate(0 .581)"><mask id="b" fill="#fff"><use xlink:href="#a"/></mask><path fill="#0083DB" fill-rule="nonzero" d="M13.8810641,0.292799667 L13.8810641,7.23346282 L34.7039276,7.23346282 L34.7039276,34.9961154 L6.94127497,34.9961154 L6.94127497,0.292799667 L-0.000262208657,0.292799667 L-0.000262208657,41.9367786 L41.6445907,41.9367786 L41.6445907,0.292799667 L13.8810641,0.292799667 Z M13.8810641,28.0554523 L27.7632644,28.0554523 L27.7632644,14.174126 L13.8810641,14.174126 L13.8810641,28.0554523 Z" mask="url(#b)"/></g><path fill="#000" fill-rule="nonzero" d="M108.38456,44.0731673 L110.165831,44.0731673 L109.617815,42.6179093 C109.450875,42.1756507 109.325889,41.8129287 109.244605,41.5279953 C109.178178,41.8653704 109.083783,42.1992494 108.961419,42.5313804 L108.38456,44.0731673 Z M106.86812,46.2311446 L108.886253,40.9764831 L109.63617,40.9764831 L111.787155,46.2311446 L110.99441,46.2311446 L110.380842,44.639538 L108.184408,44.639538 L107.606675,46.2311446 L106.86812,46.2311446 Z"/><polygon fill="#000" fill-rule="nonzero" points="114.19 46.231 114.19 40.976 114.903 40.976 117.664 45.102 117.664 40.976 118.33 40.976 118.33 46.231 117.617 46.231 114.856 42.102 114.856 46.231"/><polygon fill="#000" fill-rule="nonzero" points="119.623 46.231 119.623 40.976 123.423 40.976 123.423 41.596 120.319 41.596 120.319 43.205 123.226 43.205 123.226 43.822 120.319 43.822 120.319 45.612 123.545 45.612 123.545 46.231"/><path fill="#000" fill-rule="nonzero" d="M124.594212,46.2313194 L124.594212,40.9757839 L125.641299,40.9757839 L126.885042,44.6973987 C127.000413,45.0435142 127.08432,45.3031007 127.135888,45.4752844 C127.196196,45.2838721 127.288843,45.0033088 127.416451,44.6327206 L128.674179,40.9757839 L129.60939,40.9757839 L129.60939,46.2313194 L128.939883,46.2313194 L128.939883,41.8323321 L127.412955,46.2313194 L126.785402,46.2313194 L125.265466,41.7571656 L125.265466,46.2313194 L124.594212,46.2313194 Z"/><polygon fill="#000" fill-rule="nonzero" points="130.856 46.231 130.856 40.976 134.656 40.976 134.656 41.596 131.552 41.596 131.552 43.205 134.459 43.205 134.459 43.822 131.552 43.822 131.552 45.612 134.778 45.612 134.778 46.231"/><polygon fill="#000" fill-rule="nonzero" points="137.186 46.231 137.186 41.596 135.455 41.596 135.455 40.976 139.62 40.976 139.62 41.596 137.881 41.596 137.881 46.231"/><path fill="#000" fill-rule="nonzero" d="M140.206378 44.5430452L140.862773 44.4853593C140.893364 44.748442 140.965909 44.9643271 141.079532 45.1321407 141.193156 45.3008282 141.36971 45.4371767 141.60832 45.5411862 141.847804 45.6451956 142.117005 45.6967633 142.415049 45.6967633 142.679879 45.6967633 142.914993 45.657432 143.117768 45.5787694 143.320542 45.5001068 143.471749 45.3917272 143.571389 45.2545047 143.670154 45.1172822 143.719974 44.9669492 143.719974 44.8043799 143.719974 44.6391884 143.671902 44.4958477 143.575759 44.3726096 143.48049 44.2493715 143.323165 44.1462361 143.102909 44.0623294 142.962191 44.0072655 142.650162 43.9224847 142.167698 43.8062389 141.68436 43.6899931 141.346985 43.5807395 141.152951 43.4784781 140.902105 43.3464997 140.715062 43.1839304 140.591824 42.9890219 140.46946 42.7941135 140.407404 42.5764803 140.407404 42.3343743 140.407404 42.0695436 140.482571 41.8213194 140.632904 41.5905757 140.784111 41.3598321 141.003492 41.1850264 141.292796 41.0652844 141.582099 40.9464165 141.902868 40.8861085 142.257723 40.8861085 142.646666 40.8861085 142.991034 40.9490386 143.287329 41.0748987 143.585373 41.1998849 143.814369 41.3843049 143.97519 41.628159 144.134263 41.872013 144.220792 42.1482062 144.232155 42.4567383L143.566145 42.506558C143.530309 42.174427 143.408819 41.9235807 143.201675 41.7540191 142.99453 41.5844575 142.690368 41.4996767 142.285692 41.4996767 141.865284 41.4996767 141.5585 41.5765913 141.366214 41.7304204 141.173928 41.8842494 141.077784 42.0704176 141.077784 42.2880508 141.077784 42.476841 141.145959 42.6315441 141.281433 42.7539082 141.416034 42.8762722 141.765645 43.0003843 142.331142 43.1288665 142.895764 43.2564748 143.283833 43.3683504 143.494474 43.4636196 143.79951 43.6052123 144.025884 43.7835142 144.171847 43.9993993 144.316935 44.2161584 144.390354 44.4652567 144.390354 44.746694 144.390354 45.0272572 144.309943 45.2903399 144.149996 45.5376901 143.990049 45.7850402 143.759305 45.9773266 143.460387 46.1145491 143.159721 46.2526457 142.822346 46.3208199 142.446514 46.3208199 141.971916 46.3208199 141.572485 46.2517716 141.251716 46.1128011 140.930074 45.9747045 140.678353 45.7658116 140.494807 45.4878704 140.312135 45.2090552 140.216866 44.8944048 140.206378 44.5430452M149.200222 44.3885169L149.895949 44.5641967C149.749986 45.1349376 149.486903 45.571078 149.109323 45.8708699 148.729994 46.1715358 148.266759 46.3209947 147.719617 46.3209947 147.153246 46.3209947 146.692633 46.2056229 146.337777 45.9748793 145.982048 45.7441357 145.712847 45.4102567 145.527553 44.9732422 145.342259 44.5353538 145.248738 44.0660003 145.248738 43.5643077 145.248738 43.0171656 145.354495 42.5390719 145.563388 42.1317744 145.772281 41.724477 146.069451 41.4150708 146.455771 41.2035558 146.842092 40.9920408 147.26687 40.8862833 147.730105 40.8862833 148.256271 40.8862833 148.698529 41.0200097 149.056881 41.2874625 149.415233 41.5557894 149.664331 41.9316218 149.805924 42.4167078L149.120685 42.5784032C149.000069 42.1955785 148.821767 41.9176373 148.591024 41.7428316 148.358532 41.5680258 148.067481 41.4814969 147.716121 41.4814969 147.31232 41.4814969 146.97407 41.5785142 146.703996 41.7716745 146.432173 41.9657089 146.24076 42.2252955 146.131507 42.5513083 146.021379 42.877321 145.966315 43.2138221 145.966315 43.5608116 145.966315 44.0074403 146.031867 44.3972572 146.161224 44.7311362 146.292328 45.0641412 146.494229 45.3141135 146.769548 45.4784309 147.043993 45.6436224 147.342037 45.7257811 147.661931 45.7257811 148.051748 45.7257811 148.381257 45.6130314 148.651332 45.38928 148.922281 45.1646546 149.104953 44.8307755 149.200222 44.3885169"/><polygon fill="#000" fill-rule="nonzero" points="150.884 46.231 150.884 40.976 151.58 40.976 151.58 43.134 154.311 43.134 154.311 40.976 155.007 40.976 155.007 46.231 154.311 46.231 154.311 43.754 151.58 43.754 151.58 46.231"/><polygon fill="#000" fill-rule="nonzero" points="156.289 46.231 156.289 40.976 160.089 40.976 160.089 41.596 156.985 41.596 156.985 43.205 159.892 43.205 159.892 43.822 156.985 43.822 156.985 45.612 160.211 45.612 160.211 46.231"/><polygon fill="#000" fill-rule="nonzero" points="161.253 46.231 161.253 40.976 161.949 40.976 161.949 43.582 164.558 40.976 165.501 40.976 163.297 43.105 165.598 46.231 164.68 46.231 162.809 43.572 161.949 44.411 161.949 46.231"/><path fill="#000" fill-rule="nonzero" d="M172.188667 44.3885169L172.884394 44.5641967C172.738431 45.1349376 172.475348 45.571078 172.097768 45.8708699 171.718439 46.1715358 171.255204 46.3209947 170.708062 46.3209947 170.141691 46.3209947 169.681078 46.2056229 169.326222 45.9748793 168.970493 45.7441357 168.701292 45.4102567 168.515998 44.9732422 168.330703 44.5353538 168.237182 44.0660003 168.237182 43.5643077 168.237182 43.0171656 168.34294 42.5390719 168.551833 42.1317744 168.760726 41.724477 169.057895 41.4150708 169.444216 41.2035558 169.830537 40.9920408 170.255315 40.8862833 170.71855 40.8862833 171.244716 40.8862833 171.686974 41.0200097 172.045326 41.2874625 172.403678 41.5557894 172.652776 41.9316218 172.794369 42.4167078L172.10913 42.5784032C171.988514 42.1955785 171.810212 41.9176373 171.579469 41.7428316 171.346977 41.5680258 171.055925 41.4814969 170.704566 41.4814969 170.300764 41.4814969 169.962515 41.5785142 169.69244 41.7716745 169.420617 41.9657089 169.229205 42.2252955 169.119951 42.5513083 169.009824 42.877321 168.95476 43.2138221 168.95476 43.5608116 168.95476 44.0074403 169.020312 44.3972572 169.149668 44.7311362 169.280773 45.0641412 169.482673 45.3141135 169.757993 45.4784309 170.032438 45.6436224 170.330481 45.7257811 170.650376 45.7257811 171.040193 45.7257811 171.369702 45.6130314 171.639777 45.38928 171.910726 45.1646546 172.093398 44.8307755 172.188667 44.3885169M174.356695 43.6826512C174.356695 44.3163221 174.526257 44.8145186 174.867128 45.1789886 175.207999 45.5434587 175.6354 45.7261307 176.149329 45.7261307 176.671998 45.7261307 177.103768 45.5417106 177.441143 45.1737445 177.779392 44.8057783 177.94808 44.283109 177.94808 43.6074847 177.94808 43.1792106 177.875536 42.8060003 177.731321 42.4869797 177.587106 42.1679592 177.375591 41.920609 177.09765 41.7449292 176.817961 41.5692494 176.505932 41.4809725 176.159817 41.4809725 175.667739 41.4809725 175.243835 41.6505341 174.888105 41.9887833 174.534123 42.3270325 174.356695 42.8916551 174.356695 43.6826512M173.639992 43.6712888C173.639992 42.799008 173.873357 42.1163915 174.341837 41.6234392 174.81119 41.1296129 175.415144 40.8822628 176.156321 40.8822628 176.641407 40.8822628 177.078421 40.9985086 177.468238 41.2301262 177.858055 41.4617439 178.155225 41.7860086 178.358873 42.2002983 178.562522 42.614588 178.665658 43.0848155 178.665658 43.6109809 178.665658 44.1432644 178.558152 44.6204842 178.343141 45.0408921 178.127256 45.462174 177.823094 45.7803205 177.428907 45.9962056 177.033846 46.2129648 176.609068 46.3213443 176.152825 46.3213443 175.65725 46.3213443 175.214992 46.2016024 174.826049 45.9621185 174.437106 45.7235086 174.141684 45.3974958 173.940658 44.9840802 173.739631 44.5706645 173.639992 44.1327761 173.639992 43.6712888M179.650339 46.2313194L179.650339 40.9757839 180.697425 40.9757839 181.941168 44.6973987C182.05654 45.0435142 182.140447 45.3031007 182.192014 45.4752844 182.252322 45.2838721 182.344969 45.0033088 182.472578 44.6327206L183.730305 40.9757839 184.665516 40.9757839 184.665516 46.2313194 183.99601 46.2313194 183.99601 41.8323321 182.469082 46.2313194 181.841529 46.2313194 180.321593 41.7571656 180.321593 46.2313194 179.650339 46.2313194zM186.593099 43.4743701L187.952214 43.4743701C188.401465 43.4743701 188.720486 43.3904634 188.909276 43.2235239 189.098066 43.0557103 189.192461 42.8205966 189.192461 42.5173085 189.192461 42.2970533 189.136523 42.1091371 189.025522 41.9526859 188.91452 41.7962347 188.767683 41.6930993 188.586759 41.6424057 188.468765 41.6118147 188.25288 41.5960821 187.937356 41.5960821L186.593099 41.5960821 186.593099 43.4743701zM185.898246 46.2310572L185.898246 40.9763957 187.880544 40.9763957C188.229281 40.9763957 188.49586 40.9930022 188.68028 41.0262153 188.938119 41.0690427 189.154878 41.1512014 189.32881 41.2718174 189.502741 41.3924334 189.64346 41.561995 189.749218 41.7787542 189.855849 41.9963873 189.909165 42.2358713 189.909165 42.4954578 189.909165 42.9429606 189.767572 43.3214151 189.483513 43.6308213 189.197705 43.9402275 188.68465 44.0949306 187.941726 44.0949306L186.593099 44.0949306 186.593099 46.2310572 185.898246 46.2310572zM191.29957 44.0731673L193.080841 44.0731673 192.532825 42.6179093C192.365885 42.1756507 192.240899 41.8129287 192.159614 41.5279953 192.093188 41.8653704 191.998793 42.1992494 191.876429 42.5313804L191.29957 44.0731673zM189.78313 46.2311446L191.801262 40.9764831 192.551179 40.9764831 194.702164 46.2311446 193.90942 46.2311446 193.295852 44.639538 191.099417 44.639538 190.521684 46.2311446 189.78313 46.2311446z"/><polygon fill="#000" fill-rule="nonzero" points="195.36 46.231 195.36 40.976 196.073 40.976 198.834 45.102 198.834 40.976 199.5 40.976 199.5 46.231 198.787 46.231 196.027 42.102 196.027 46.231"/><path fill="#000" fill-rule="nonzero" d="M202.259892 46.2313194L202.259892 44.0051679 200.234767 40.9757839 201.079953 40.9757839 202.116551 42.5603982C202.307963 42.856694 202.486265 43.1529897 202.650583 43.4492855 202.808782 43.1748405 203.000194 42.8645602 203.22482 42.5210669L204.243063 40.9757839 205.052414 40.9757839 202.955619 44.0051679 202.955619 46.2313194 202.259892 46.2313194zM208.122877 9.60531493L208.269714 9.60531493C208.375472 9.60531493 208.455008 9.58084212 208.508324 9.53102248 208.563388 9.4803288 208.590483 9.40953246 208.590483 9.31688541 208.590483 9.21462403 208.564262 9.14382769 208.51182 9.10274834 208.460252 9.06254301 208.378094 9.04156632 208.266218 9.04156632L208.122877 9.04156632 208.122877 9.60531493zM208.995158 9.30901915C208.995158 9.55199917 208.886779 9.71719062 208.669145 9.80546754L209.174334 10.6532755 208.724209 10.6532755 208.315164 9.91472114 208.122877 9.91472114 208.122877 10.6532755 207.71995 10.6532755 207.71995 8.7260419 208.278454 8.7260419C208.525805 8.7260419 208.707603 8.77411349 208.822974 8.87113069 208.938346 8.96814789 208.995158 9.11411071 208.995158 9.30901915zM207.003246 9.68834767C207.003246 9.93045366 207.06268 10.1550791 207.183296 10.3613499 207.303912 10.5693688 207.467356 10.7319381 207.674501 10.8516801 207.882519 10.970548 208.105397 11.030856 208.344881 11.030856 208.586113 11.030856 208.811612 10.970548 209.018757 10.848184 209.226776 10.726694 209.390219 10.5632506 209.509087 10.3569797 209.627955 10.151583 209.686515 9.9287056 209.686515 9.68834767 209.686515 9.44973779 209.627081 9.2259864 209.506465 9.01709351 209.385849 8.80907464 209.222406 8.64475721 209.014387 8.52588929 208.805494 8.40614734 208.581743 8.34671337 208.344881 8.34671337 208.105397 8.34671337 207.884267 8.40527331 207.677997 8.5232672 207.4726 8.6412611 207.308282 8.80383047 207.185918 9.01184933 207.063554 9.2198682 207.003246 9.44536765 207.003246 9.68834767zM206.740164 9.68834767C206.740164 9.40428829 206.81096 9.13683546 206.953427 8.88861127 207.095893 8.63951304 207.291676 8.44285655 207.540774 8.29951582 207.788998 8.15530105 208.057325 8.08363069 208.344881 8.08363069 208.62894 8.08363069 208.896393 8.15530105 209.145491 8.29689373 209.393715 8.43936043 209.590372 8.6351429 209.734587 8.88424112 209.877927 9.13246532 209.949598 9.4016662 209.949598 9.68834767 209.949598 9.96891093 209.880549 10.2319936 209.743327 10.4784698 209.604356 10.7240719 209.411196 10.9207284 209.162098 11.0693133 208.912999 11.2170241 208.641176 11.2913166 208.344881 11.2913166 208.050333 11.2913166 207.77851 11.2178982 207.529412 11.0701873 207.280314 10.9233504 207.086279 10.726694 206.948183 10.4802178 206.809212 10.2337417 206.740164 9.96978496 206.740164 9.68834767z"/></g></svg>