<svg width="55" height="55" viewBox="0 0 55 55" fill="none" xmlns="http://www.w3.org/2000/svg">
<g clip-path="url(#clip0_87_1515)">
<path d="M7.73438 15.3613C14.6824 15.3613 21.6305 15.3613 28.7891 15.3613C28.7891 16.1767 28.7891 16.992 28.7891 17.832C28.2219 17.832 27.6547 17.832 27.0703 17.832C27.0703 17.5839 27.0703 17.3357 27.0703 17.0801C21.2566 17.0801 15.443 17.0801 9.45312 17.0801C9.45312 29.0265 9.45312 40.9729 9.45312 53.2812C15.2668 53.2812 21.0805 53.2812 27.0703 53.2812C27.0703 44.2062 27.0703 35.1313 27.0703 25.7812C27.6375 25.7812 28.2047 25.7812 28.7891 25.7812C28.7891 35.4234 28.7891 45.0656 28.7891 55C21.841 55 14.893 55 7.73438 55C7.73438 41.9192 7.73438 28.8385 7.73438 15.3613Z" fill="#383838"/>
<path d="M33.9454 -1.18315e-05C34.8705 0.468192 35.6965 1.0985 36.5235 1.71874C37.2898 2.2829 38.0652 2.83033 38.8532 3.36364C39.0609 3.50474 39.2686 3.64587 39.4763 3.78703C39.5771 3.85545 39.6778 3.92388 39.7816 3.99437C40.178 4.264 40.5732 4.53527 40.9681 4.80712C41.0364 4.85417 41.1048 4.90123 41.1752 4.94971C41.3111 5.04323 41.4469 5.13676 41.5827 5.2303C41.9372 5.47437 42.2919 5.71812 42.6465 5.9619C42.7898 6.06037 42.933 6.15884 43.0762 6.25731C43.1826 6.33043 43.1826 6.33043 43.2911 6.40502C43.5059 6.55272 43.7207 6.70043 43.9356 6.84813C44.0066 6.89694 44.0776 6.94576 44.1507 6.99605C44.2929 7.09381 44.4351 7.19158 44.5773 7.28936C44.9512 7.54652 45.3253 7.80343 45.6997 8.05999C45.8164 8.14006 45.8164 8.14006 45.9355 8.22175C46.0843 8.32379 46.2331 8.42576 46.382 8.52765C46.4493 8.57383 46.5166 8.62001 46.5859 8.66759C46.6447 8.70789 46.7035 8.74818 46.7641 8.7897C46.8233 8.83138 46.8824 8.87306 46.9434 8.916C47.0208 8.96057 47.0982 9.00513 47.178 9.05104C47.3731 9.23827 47.3731 9.23827 47.4219 9.5411C47.4196 9.66092 47.4174 9.78075 47.4151 9.9042C47.414 10.0212 47.4129 10.1381 47.4118 10.2586C47.4079 10.4071 47.404 10.5556 47.3999 10.7086C47.3911 11.1805 47.3822 11.6524 47.3731 12.1387C46.2742 12.1387 45.1752 12.1387 44.043 12.1387C44.0785 12.3514 44.1139 12.5641 44.1504 12.7832C44.1598 13.0454 44.1635 13.3079 44.1634 13.5703C44.1635 13.6856 44.1635 13.6856 44.1636 13.8033C44.1638 14.0596 44.1632 14.3159 44.1626 14.5722C44.1626 14.7564 44.1626 14.9407 44.1627 15.1249C44.1627 15.6242 44.1621 16.1236 44.1613 16.6229C44.1607 17.145 44.1606 17.6672 44.1605 18.1893C44.1601 19.1777 44.1592 20.1661 44.1582 21.1544C44.157 22.2798 44.1564 23.4052 44.1558 24.5306C44.1547 26.8453 44.1528 29.1599 44.1504 31.4746C44.6822 31.4746 45.2139 31.4746 45.7618 31.4746C45.7618 32.0418 45.7618 32.609 45.7618 33.1933C40.6571 33.1933 35.5524 33.1933 30.293 33.1933C30.293 32.6262 30.293 32.059 30.293 31.4746C34.2988 31.4746 38.3045 31.4746 42.4317 31.4746C42.4239 30.2607 42.4162 29.0469 42.4082 27.7962C42.4033 27.0198 42.3984 26.2434 42.3935 25.4669C42.3858 24.2389 42.378 23.0109 42.3702 21.7829C42.3644 20.8878 42.3587 19.9928 42.3532 19.0977C42.3502 18.6256 42.3472 18.1534 42.3442 17.6813C42.3284 15.2607 42.322 12.8405 42.3243 10.4199C43.4232 10.4199 44.5221 10.4199 45.6543 10.4199C45.2895 10.0551 45.0203 9.79573 44.6082 9.51941C44.5122 9.4545 44.4161 9.38959 44.3171 9.32272C44.2156 9.25497 44.114 9.18722 44.0094 9.11742C43.7958 8.97338 43.5823 8.82931 43.3687 8.68521C43.2639 8.61477 43.1591 8.54432 43.0511 8.47173C42.6504 8.20166 42.2521 7.92818 41.8543 7.6538C41.7169 7.55924 41.5796 7.46468 41.4422 7.37014C41.3754 7.32409 41.3085 7.27805 41.2397 7.23061C40.8852 6.98654 40.5305 6.7428 40.1758 6.49901C40.0326 6.40054 39.8894 6.30207 39.7461 6.2036C39.6398 6.13049 39.6398 6.13049 39.5313 6.0559C38.7435 5.51431 37.9558 4.97273 37.168 4.43114C37.097 4.38235 37.0261 4.33355 36.9529 4.28328C36.8105 4.18534 36.668 4.0874 36.5256 3.98944C36.1556 3.73503 35.7856 3.4808 35.4153 3.22684C35.3389 3.17443 35.2625 3.12202 35.1839 3.06802C35.0393 2.96879 34.8946 2.86961 34.75 2.77051C34.6506 2.70227 34.6506 2.70227 34.5492 2.63266C34.4845 2.58866 34.4198 2.54466 34.3532 2.49933C34.2214 2.40644 34.0924 2.30961 33.966 2.20958C33.674 1.98188 33.4627 1.83892 33.0986 1.75357C32.5878 1.8643 32.2286 2.14633 31.8103 2.45055C31.6275 2.57966 31.4447 2.70876 31.2619 2.83786C31.171 2.90285 31.0801 2.96785 30.9865 3.03481C30.6087 3.30379 30.2261 3.56533 29.8432 3.82689C29.7029 3.92335 29.5626 4.01986 29.4223 4.11643C28.9965 4.40944 28.5705 4.70229 28.1446 4.99511C28.0013 5.09358 27.8581 5.19204 27.7149 5.29052C25.1368 7.06298 25.1368 7.06298 24.9218 7.21073C24.7789 7.30903 24.6359 7.40732 24.4929 7.50562C24.1309 7.75454 23.7688 8.00341 23.4067 8.25217C23.2977 8.32709 23.2977 8.32709 23.1864 8.40352C23.0424 8.50249 22.8983 8.6014 22.7541 8.70024C22.4074 8.93823 22.0618 9.17755 21.7181 9.41996C21.6537 9.46523 21.5893 9.51049 21.5229 9.55713C21.3478 9.68028 21.1732 9.80397 20.9985 9.9277C20.7325 10.0976 20.7325 10.0976 20.5176 10.0976C20.5176 10.204 20.5176 10.3103 20.5176 10.4199C21.652 10.4199 22.7864 10.4199 23.9551 10.4199C23.9551 11.5188 23.9551 12.6178 23.9551 13.75C23.3879 13.75 22.8207 13.75 22.2364 13.75C22.2364 13.2183 22.2364 12.6865 22.2364 12.1387C21.102 12.1387 19.9676 12.1387 18.7989 12.1387C18.613 9.59803 18.613 9.59803 18.9155 9.01262C19.2508 8.63723 19.6901 8.42584 20.1351 8.20349C20.6925 7.90589 21.2042 7.53207 21.7261 7.17711C21.9392 7.03664 22.1523 6.89635 22.3656 6.75624C22.8809 6.41417 23.3813 6.05536 23.8797 5.68928C24.3519 5.3464 24.8349 5.01998 25.318 4.69298C25.5267 4.55117 25.7354 4.40934 25.9441 4.26749C26.045 4.19898 26.1459 4.13047 26.2498 4.05988C27.231 3.39278 28.207 2.71806 29.1806 2.03993C29.3974 1.88926 29.6145 1.73912 29.8321 1.58952C30.493 1.1339 30.493 1.1339 31.1268 0.642002C31.9922 -0.0463822 32.875 -0.364595 33.9454 -1.18315e-05Z" fill="#383838"/>
<path d="M18.5242 19.3202C18.6037 19.3198 18.6833 19.3194 18.7652 19.319C19.0312 19.3178 19.2972 19.3174 19.5632 19.317C19.7542 19.3163 19.9451 19.3156 20.1361 19.3148C20.7627 19.3126 21.3894 19.3115 22.016 19.3104C22.232 19.31 22.4481 19.3095 22.6641 19.3091C23.6791 19.307 24.694 19.3055 25.709 19.3046C26.8793 19.3036 28.0496 19.3007 29.2199 19.2964C30.1254 19.2931 31.0309 19.2916 31.9363 19.2912C32.4767 19.2909 33.0171 19.29 33.5575 19.2873C34.0662 19.2848 34.5748 19.2843 35.0835 19.2854C35.2696 19.2855 35.4557 19.2848 35.6418 19.2833C36.7208 19.2752 37.7255 19.2716 38.6114 19.973C39.1744 20.6739 39.378 21.2358 39.3558 22.142C39.2739 22.7841 39.0332 23.3101 38.5359 23.7319C38.0303 24.0744 37.667 24.2906 37.053 24.2922C36.9376 24.2928 36.8223 24.2934 36.7034 24.294C36.5763 24.2941 36.4492 24.2942 36.3182 24.2943C36.1848 24.2949 36.0513 24.2954 35.9138 24.296C35.623 24.2972 35.3322 24.2981 35.0414 24.2988C34.5808 24.3 34.1203 24.3021 33.6597 24.3045C32.3498 24.3112 31.0399 24.317 29.73 24.3205C29.0069 24.3225 28.2838 24.3256 27.5607 24.33C27.1783 24.3322 26.7959 24.3339 26.4136 24.3341C25.986 24.3344 25.5584 24.3372 25.1308 24.3401C25.0055 24.3398 24.8801 24.3394 24.7509 24.3391C23.8422 24.3483 22.8744 24.4181 22.1742 25.0671C21.9809 25.2912 21.8184 25.5297 21.6522 25.7746C21.0313 26.6844 20.3116 27.2225 19.2285 27.5001C17.9384 27.6656 16.8424 27.5214 15.7641 26.7683C14.9546 26.1154 14.3757 25.3171 14.1797 24.2774C14.1043 23.0453 14.1413 21.9307 14.9543 20.9415C15.979 19.8272 17.0041 19.3198 18.5242 19.3202ZM16.2207 22.129C15.8434 22.7421 15.8095 23.3609 15.8984 24.0626C16.09 24.7262 16.507 25.1923 17.0801 25.5665C17.6749 25.856 18.2574 25.8386 18.9062 25.7813C19.2736 25.665 19.2736 25.665 19.5508 25.459C19.6372 25.4037 19.7236 25.3483 19.8126 25.2912C20.0754 25.0413 20.2488 24.8052 20.4504 24.5057C21.0684 23.5981 21.8441 22.9952 22.9309 22.7635C23.5855 22.6395 24.2285 22.6363 24.8929 22.6386C25.0917 22.6381 25.0917 22.6381 25.2945 22.6375C25.5804 22.6367 25.8664 22.6364 26.1524 22.6366C26.6047 22.6369 27.0571 22.6354 27.5094 22.6335C28.7949 22.6285 30.0803 22.6259 31.3658 22.6252C32.0775 22.6248 32.7892 22.6228 33.5009 22.6192C33.9505 22.6171 34.4001 22.6168 34.8497 22.618C35.1944 22.6183 35.5392 22.6159 35.8839 22.6139C36.0082 22.6148 36.1325 22.6156 36.2607 22.6165C36.4314 22.6148 36.4314 22.6148 36.6056 22.613C36.7044 22.6128 36.8032 22.6127 36.905 22.6126C37.2534 22.5411 37.3837 22.4085 37.5976 22.129C37.6243 21.7428 37.6243 21.7428 37.4902 21.377C37.0614 21.0337 36.7114 21.0143 36.1725 21.0138C36.095 21.0133 36.0175 21.0128 35.9376 21.0123C35.6785 21.011 35.4195 21.012 35.1604 21.013C34.9744 21.0126 34.7884 21.012 34.6024 21.0113C34.0974 21.0099 33.5925 21.0104 33.0875 21.0115C32.5588 21.0123 32.03 21.0115 31.5012 21.011C30.6129 21.0104 29.7246 21.0112 28.8363 21.0127C27.8102 21.0145 26.7842 21.0139 25.7582 21.0121C24.8767 21.0107 23.9952 21.0105 23.1138 21.0113C22.5875 21.0118 22.0613 21.0119 21.5351 21.0108C21.04 21.0099 20.545 21.0105 20.0499 21.0124C19.8685 21.0128 19.6872 21.0127 19.5058 21.012C18.1722 21.0072 17.169 21.0826 16.2207 22.129Z" fill="#383838"/>
<path d="M29.541 8.05664C31.7034 8.05664 33.8658 8.05664 36.0938 8.05664C36.0938 8.62383 36.0938 9.19102 36.0938 9.77539C33.9313 9.77539 31.7689 9.77539 29.541 9.77539C29.541 9.2082 29.541 8.64102 29.541 8.05664Z" fill="#383838"/>
<path d="M17.4023 29.8633C17.9695 29.8633 18.5367 29.8633 19.1211 29.8633C19.1211 31.7775 19.1211 33.6918 19.1211 35.6641C18.5539 35.6641 17.9867 35.6641 17.4023 35.6641C17.4023 33.7498 17.4023 31.8355 17.4023 29.8633Z" fill="#383838"/>
<path d="M31.1523 11.2793C32.2513 11.2793 33.3502 11.2793 34.4824 11.2793C34.4824 11.8465 34.4824 12.4137 34.4824 12.998C33.3835 12.998 32.2846 12.998 31.1523 12.998C31.1523 12.4309 31.1523 11.8637 31.1523 11.2793Z" fill="#383838"/>
<path d="M22.2363 48.4473C22.8035 48.4473 23.3707 48.4473 23.9551 48.4473C23.9551 49.0145 23.9551 49.5816 23.9551 50.166C23.3879 50.166 22.8207 50.166 22.2363 50.166C22.2363 49.5988 22.2363 49.0316 22.2363 48.4473Z" fill="#383838"/>
<path d="M17.4023 48.4473C17.9695 48.4473 18.5367 48.4473 19.1211 48.4473C19.1211 49.0145 19.1211 49.5816 19.1211 50.166C18.5539 50.166 17.9867 50.166 17.4023 50.166C17.4023 49.5988 17.4023 49.0316 17.4023 48.4473Z" fill="#383838"/>
<path d="M12.5684 48.4473C13.1355 48.4473 13.7027 48.4473 14.2871 48.4473C14.2871 49.0145 14.2871 49.5816 14.2871 50.166C13.7199 50.166 13.1527 50.166 12.5684 50.166C12.5684 49.5988 12.5684 49.0316 12.5684 48.4473Z" fill="#383838"/>
<path d="M22.2363 43.6133C22.8035 43.6133 23.3707 43.6133 23.9551 43.6133C23.9551 44.1805 23.9551 44.7477 23.9551 45.332C23.3879 45.332 22.8207 45.332 22.2363 45.332C22.2363 44.7648 22.2363 44.1977 22.2363 43.6133Z" fill="#383838"/>
<path d="M17.4023 43.6133C17.9695 43.6133 18.5367 43.6133 19.1211 43.6133C19.1211 44.1805 19.1211 44.7477 19.1211 45.332C18.5539 45.332 17.9867 45.332 17.4023 45.332C17.4023 44.7648 17.4023 44.1977 17.4023 43.6133Z" fill="#383838"/>
<path d="M12.5684 43.6133C13.1355 43.6133 13.7027 43.6133 14.2871 43.6133C14.2871 44.1805 14.2871 44.7477 14.2871 45.332C13.7199 45.332 13.1527 45.332 12.5684 45.332C12.5684 44.7648 12.5684 44.1977 12.5684 43.6133Z" fill="#383838"/>
<path d="M22.2363 38.7793C22.8035 38.7793 23.3707 38.7793 23.9551 38.7793C23.9551 39.3465 23.9551 39.9137 23.9551 40.498C23.3879 40.498 22.8207 40.498 22.2363 40.498C22.2363 39.9309 22.2363 39.3637 22.2363 38.7793Z" fill="#383838"/>
<path d="M17.4023 38.7793C17.9695 38.7793 18.5367 38.7793 19.1211 38.7793C19.1211 39.3465 19.1211 39.9137 19.1211 40.498C18.5539 40.498 17.9867 40.498 17.4023 40.498C17.4023 39.9309 17.4023 39.3637 17.4023 38.7793Z" fill="#383838"/>
<path d="M12.5684 38.7793C13.1355 38.7793 13.7027 38.7793 14.2871 38.7793C14.2871 39.3465 14.2871 39.9137 14.2871 40.498C13.7199 40.498 13.1527 40.498 12.5684 40.498C12.5684 39.9309 12.5684 39.3637 12.5684 38.7793Z" fill="#383838"/>
<path d="M31.9043 14.502C32.4715 14.502 33.0387 14.502 33.623 14.502C33.623 15.0691 33.623 15.6363 33.623 16.2207C33.0559 16.2207 32.4887 16.2207 31.9043 16.2207C31.9043 15.6535 31.9043 15.0863 31.9043 14.502Z" fill="#383838"/>
</g>
<defs>
<clipPath id="clip0_87_1515">
<rect width="55" height="55" fill="white"/>
</clipPath>
</defs>
</svg>
