<svg width="55" height="55" viewBox="0 0 55 55" fill="none" xmlns="http://www.w3.org/2000/svg">
<g clip-path="url(#clip0_87_1562)">
<path d="M47.1582 6.87515C47.4242 7.08538 47.4242 7.08538 47.655 7.39212C47.7191 7.47504 47.7191 7.47504 47.7844 7.55965C47.9369 7.75901 48.0845 7.96147 48.2324 8.16421C48.3666 8.34431 48.5009 8.52432 48.6353 8.70426C49.0056 9.20218 49.3721 9.70282 49.7363 10.2052C49.356 10.5888 48.9845 10.9525 48.5547 11.2794C48.4483 11.2794 48.342 11.2794 48.2324 11.2794C48.0629 11.0989 48.0629 11.0989 47.8833 10.8481C47.8179 10.7579 47.7526 10.6678 47.6852 10.5749C47.6177 10.4795 47.5501 10.3841 47.4805 10.2858C47.4129 10.192 47.3453 10.0983 47.2757 10.0017C47.1493 9.82635 47.0234 9.65066 46.898 9.47457C46.8421 9.39664 46.7862 9.31872 46.7285 9.23843C46.6749 9.15799 46.6213 9.07756 46.566 8.99468C46.4113 8.77047 46.4113 8.77047 46.079 8.78273C45.9477 8.79574 45.8164 8.80876 45.6812 8.82217C45.5532 8.83352 45.4253 8.84488 45.2934 8.85658C45.013 8.88715 44.736 8.92556 44.4573 8.96995C43.6708 9.09027 42.9177 9.14571 42.1232 9.1415C42.0309 9.14143 41.9386 9.14136 41.8434 9.14129C41.4629 9.14072 41.0826 9.13981 40.7022 9.1314C39.2318 9.1023 38.2723 9.36057 37.0606 10.2052C37.1341 10.2144 37.2077 10.2236 37.2836 10.2331C37.3861 10.2459 37.4887 10.2587 37.5943 10.2719C37.7067 10.286 37.8192 10.3001 37.935 10.3145C38.9908 10.4465 38.9908 10.4465 39.3296 10.4911C39.5132 10.5127 39.6976 10.5301 39.8823 10.5381C40.5499 10.5732 40.9203 10.9006 41.4111 11.313C41.5797 11.4495 41.7484 11.5859 41.9172 11.7221C42.002 11.7914 42.0869 11.8606 42.1743 11.9319C42.5791 12.2574 42.995 12.5676 43.4119 12.8773C43.4863 12.9329 43.5607 12.9885 43.6374 13.0457C43.8083 13.1733 43.9793 13.3006 44.1504 13.4279C44.0123 13.8106 43.8498 14.1077 43.5999 14.4282C43.542 14.5032 43.4841 14.5781 43.4245 14.6553C43.3584 14.739 43.3584 14.739 43.291 14.8244C42.8981 14.7584 42.6644 14.592 42.3523 14.3494C42.2553 14.2746 42.1583 14.1998 42.0584 14.1228C41.9578 14.0441 41.8572 13.9655 41.7535 13.8844C41.4586 13.6559 41.1635 13.4276 40.8671 13.2011C40.7124 13.0811 40.5596 12.9585 40.4114 12.8306C39.6549 12.2063 38.6535 12.2499 37.717 12.1804C37.2867 12.1482 36.8568 12.1128 36.4268 12.0773C36.2049 12.0601 35.9829 12.0451 35.7607 12.0322C33.708 11.909 33.708 11.909 33.0157 11.2103C32.7681 10.9229 32.5514 10.6237 32.334 10.3126C32.1866 10.1448 32.0372 9.97856 31.8842 9.81582C31.6641 9.57061 31.5816 9.45183 31.4746 9.13101C29.5528 9.47683 27.6408 9.83551 26.4562 11.5069C26.048 12.1207 25.6947 12.7664 25.3395 13.4118C24.7972 14.3541 23.9772 15.0635 23.1037 15.6967C23.0301 15.7633 22.9566 15.83 22.8809 15.8986C22.8819 16.2696 22.8819 16.2696 22.9354 16.5012C23.0112 16.8693 23.0491 17.2444 23.0957 17.6173C23.9819 17.6173 24.8682 17.6173 25.7813 17.6173C25.7813 18.1845 25.7813 18.7517 25.7813 19.3361C24.4696 19.3361 23.158 19.3361 21.8066 19.3361C21.4501 18.0882 21.1217 16.8351 20.8063 15.5763C20.7867 15.4984 20.7671 15.4206 20.7469 15.3403C20.6907 15.1169 20.6349 14.8935 20.5793 14.6699C20.5467 14.5394 20.5141 14.4088 20.4805 14.2742C20.4102 13.965 20.4102 13.965 20.4102 13.7501C18.8149 13.7501 17.2197 13.7501 15.5762 13.7501C15.5762 14.2819 15.5762 14.8136 15.5762 15.3615C16.7105 15.3615 17.8449 15.3615 19.0137 15.3615C19.1302 15.8847 19.2467 16.4079 19.3631 16.9311C19.4026 17.1084 19.4421 17.2857 19.4816 17.463C19.5949 17.9717 19.7079 18.4805 19.8202 18.9895C19.8548 19.146 19.8894 19.3025 19.9242 19.459C19.9706 19.6683 20.0164 19.8778 20.0623 20.0872C20.0881 20.2047 20.114 20.3223 20.1406 20.4434C20.1953 20.7326 20.1953 20.7326 20.1953 21.0548C31.1137 21.0548 42.032 21.0548 53.2813 21.0548C53.2813 20.4876 53.2813 19.9205 53.2813 19.3361C44.7025 19.3361 36.1238 19.3361 27.2852 19.3361C27.2852 18.7689 27.2852 18.2017 27.2852 17.6173C33.0279 17.6173 38.7707 17.6173 44.6875 17.6173C44.4039 17.121 44.1203 16.6248 43.8281 16.1134C43.9356 15.6837 43.9356 15.6837 44.197 15.5008C44.3035 15.446 44.4099 15.3911 44.5197 15.3346C44.679 15.2507 44.679 15.2507 44.8415 15.1651C45.1172 15.0392 45.1172 15.0392 45.332 15.0392C45.7929 15.8545 46.2537 16.6699 46.7285 17.5099C48.5364 17.5099 50.3443 17.5099 52.207 17.5099C51.359 15.7368 50.5881 14.166 49.3066 12.6759C49.4654 12.2816 49.6801 12.0947 50.0183 11.8434C50.15 11.7445 50.15 11.7445 50.2844 11.6437C50.3517 11.5944 50.4189 11.5451 50.4883 11.4943C50.973 11.662 51.2296 12.0504 51.5222 12.4477C51.5814 12.5276 51.6407 12.6076 51.7017 12.69C52.1342 13.3075 52.4804 13.9514 52.8096 14.6276C52.852 14.7144 52.8943 14.8013 52.938 14.8907C53.1521 15.3327 53.3612 15.7764 53.5652 16.2231C53.6437 16.3892 53.7222 16.5554 53.8007 16.7215C53.8347 16.7994 53.8687 16.8773 53.9037 16.9575C54.014 17.2031 54.014 17.2031 54.2481 17.5099C54.6387 17.6264 54.6387 17.6264 55 17.6173C55.4069 21.3325 54.4349 24.2071 53.0438 27.6225C52.9946 27.7437 52.9454 27.8648 52.8947 27.9896C52.7933 28.2388 52.6913 28.4878 52.5887 28.7365C51.8382 30.5785 51.5148 32.1477 51.5491 34.1334C51.5557 35.3166 51.5557 35.3166 51.5625 36.5236C49.8964 36.5236 48.2303 36.5236 46.5137 36.5236C46.5137 36.9844 46.5137 37.4453 46.5137 37.9201C46.3825 38.9879 46.0263 39.9691 45.5469 40.9279C45.1577 40.7855 44.8341 40.6117 44.4928 40.3773C44.4079 40.3195 44.323 40.2616 44.2356 40.2019C44.1402 40.1359 44.1402 40.1359 44.043 40.0685C44.1303 39.5665 44.2981 39.1164 44.4794 38.6418C44.9099 37.3932 44.7716 35.9703 44.2028 34.7901C43.338 33.2412 42.2795 32.3839 40.6055 31.797C39.1831 31.4298 37.7208 31.7057 36.4362 32.3677C35.1866 33.1206 34.2969 34.3146 33.8643 35.7108C33.5224 37.2054 33.7282 38.6754 34.5063 39.9976C35.3085 41.1982 36.4398 42.1353 37.8641 42.4897C39.3388 42.7595 40.6673 42.6053 42.002 41.8947C42.2674 41.7034 42.5161 41.5055 42.7606 41.2883C42.9688 41.1427 42.9688 41.1427 43.3984 41.1427C43.6519 41.3542 43.6519 41.3542 43.9087 41.6261C43.9945 41.7159 44.0804 41.8056 44.1689 41.898C44.2337 41.9678 44.2985 42.0376 44.3652 42.1095C43.9788 42.9683 43.2007 43.366 42.3846 43.7544C42.2713 43.8088 42.2713 43.8088 42.1557 43.8643C40.4409 44.6473 38.4111 44.6567 36.651 44.0163C34.8844 43.2733 33.2579 41.9537 32.5111 40.147C32.0377 38.8696 31.9043 37.9227 31.9043 36.5236C27.1187 36.5236 22.333 36.5236 17.4023 36.5236C17.4023 37.0908 17.4023 37.658 17.4023 38.2423C17.0062 40.1913 16.0872 41.8789 14.4797 43.0927C12.7412 44.2428 10.8097 44.686 8.74146 44.3352C6.7814 43.9178 5.08549 42.8467 3.98132 41.1629C3.15281 39.8225 2.58431 38.104 2.90039 36.5236C1.94326 36.5236 0.986133 36.5236 0 36.5236C0 33.9003 0 31.2771 0 28.5744C1.29012 27.9879 1.29012 27.9879 1.91573 27.8542C3.24252 27.5691 4.84969 27.1693 5.69276 26.0286C6.63478 24.4491 7.15354 22.6062 7.62695 20.84C7.79904 20.8909 7.97107 20.942 8.14308 20.9932C8.23889 21.0216 8.33469 21.05 8.4334 21.0793C8.70846 21.1645 8.97405 21.2626 9.23828 21.3771C9.17022 21.953 8.98308 22.4443 8.76789 22.9775C8.73632 23.0571 8.70476 23.1367 8.67223 23.2187C8.55501 23.5137 8.43668 23.8083 8.31848 24.1029C8.05483 24.7632 7.79117 25.4234 7.51953 26.1037C11.1354 26.1568 11.1354 26.1568 14.8242 26.2111C14.8242 23.1979 14.8242 20.1847 14.8242 17.0802C12.9631 17.1334 12.9631 17.1334 11.0645 17.1876C10.6745 18.1448 10.2846 19.1019 9.88281 20.088C9.63688 20.0061 9.39095 19.9241 9.13757 19.8396C9.06004 19.8145 8.9825 19.7894 8.90261 19.7635C8.72454 19.702 8.55143 19.6266 8.37891 19.5509C8.22774 19.0974 8.41213 18.8003 8.5862 18.3785C8.61948 18.2958 8.65275 18.213 8.68704 18.1278C8.75756 17.953 8.82857 17.7783 8.90002 17.6039C9.00973 17.336 9.11805 17.0676 9.22611 16.7991C9.29471 16.6295 9.36338 16.46 9.43215 16.2905C9.46482 16.2098 9.4975 16.1292 9.53117 16.046C9.76272 15.4816 9.76272 15.4816 9.88281 15.3615C10.177 15.352 10.4685 15.3491 10.7627 15.351C10.8508 15.3511 10.9389 15.3513 11.0296 15.3514C11.312 15.352 11.5944 15.3534 11.8768 15.3548C12.0678 15.3553 12.2588 15.3558 12.4498 15.3562C12.919 15.3573 13.3882 15.3594 13.8574 15.3615C13.8574 14.2626 13.8574 13.1636 13.8574 12.0314C16.4807 12.0314 19.1039 12.0314 21.8066 12.0314C21.9839 12.6695 22.1611 13.3076 22.3438 13.965C23.5053 13.0216 24.2104 11.9119 24.994 10.6492C25.1562 10.3894 25.3213 10.1315 25.4867 9.87373C25.5582 9.75523 25.5582 9.75523 25.6312 9.63433C26.0146 9.04049 26.4082 8.81753 27.0703 8.5939C27.1581 8.56305 27.2459 8.53221 27.3363 8.50043C27.6201 8.40382 27.9051 8.31274 28.1911 8.22296C28.3457 8.1738 28.3457 8.1738 28.5033 8.12365C28.7191 8.05515 28.9349 7.98692 29.1509 7.91894C29.4825 7.8145 29.8138 7.70912 30.1451 7.6036C30.3553 7.53697 30.5656 7.47039 30.7759 7.40386C30.8752 7.37232 30.9744 7.34077 31.0767 7.30826C31.1682 7.27954 31.2597 7.25082 31.3539 7.22123C31.4345 7.19581 31.5151 7.17039 31.5981 7.14419C31.7969 7.08999 31.7969 7.08999 32.0117 7.08999C32.1591 7.25456 32.2987 7.42614 32.4347 7.60025C32.8149 8.07203 33.1971 8.54068 33.5962 8.99673C33.6442 9.05444 33.6923 9.11215 33.7418 9.17161C33.8958 9.35292 33.8958 9.35292 34.1602 9.56069C34.596 9.52697 34.9086 9.35386 35.2797 9.13269C35.3899 9.0676 35.5001 9.00252 35.6137 8.93547C35.7278 8.86706 35.8419 8.79865 35.9595 8.72818C36.1849 8.59437 36.4104 8.46065 36.6359 8.32702C36.7354 8.26751 36.835 8.208 36.9375 8.14669C37.049 8.08157 37.1605 8.01646 37.2754 7.94937C37.3475 7.90285 37.4197 7.85633 37.494 7.8084C38.1056 7.43256 38.5691 7.33736 39.2807 7.35141C39.4267 7.35073 39.4267 7.35073 39.5756 7.35004C39.7829 7.34911 39.9901 7.34924 40.1974 7.35036C40.7394 7.35285 41.2813 7.34644 41.8232 7.3384C41.9306 7.33681 42.038 7.33522 42.1487 7.33358C43.3432 7.30929 44.5012 7.15358 45.6799 6.96537C46.6635 6.81545 46.6635 6.81545 47.1582 6.87515ZM16.543 17.0802C16.543 20.6606 16.543 24.241 16.543 27.9298C11.615 27.8157 11.615 27.8157 10.091 27.7653C6.80215 27.7041 4.61929 28.3312 1.61133 29.756C1.61133 31.4221 1.61133 33.0882 1.61133 34.8048C2.14307 34.8048 2.6748 34.8048 3.22266 34.8048C3.28372 34.683 3.34479 34.5611 3.40771 34.4356C4.20996 32.8623 4.20996 32.8623 4.81091 32.2641C4.96538 32.1252 4.96538 32.1252 4.94141 31.9044C5.03467 31.8621 5.03467 31.8621 5.12981 31.8188C5.38325 31.6831 5.57551 31.5267 5.79407 31.3405C7.34621 30.1211 9.24901 29.7981 11.1719 29.9709C12.3057 30.1298 13.2951 30.6083 14.2871 31.1525C14.102 31.6533 13.8526 32.0154 13.5352 32.4416C13.0351 32.3625 12.6641 32.1723 12.2239 31.9317C10.9707 31.3691 9.44279 31.418 8.1649 31.8679C6.70114 32.52 5.62264 33.5308 4.95483 34.9928C4.43403 36.3575 4.35121 37.8278 4.92127 39.189C4.99648 39.3405 5.07477 39.4906 5.15625 39.6388C5.19613 39.7114 5.23601 39.7839 5.2771 39.8587C6.06065 41.1887 7.17937 42.0327 8.62061 42.5594C10.4206 42.9493 11.8752 42.6135 13.4277 41.6798C14.5639 40.9199 15.3391 39.5652 15.6438 38.2523C15.7102 37.877 15.7202 37.5083 15.7172 37.1278C15.7166 37.0479 15.7161 36.968 15.7156 36.8857C15.69 35.6828 15.2458 34.5704 14.502 33.6232C14.6483 33.2882 14.8082 33.081 15.0861 32.8444C15.1822 32.7605 15.1822 32.7605 15.2803 32.6749C15.4688 32.549 15.4688 32.549 15.791 32.549C15.9681 32.7697 15.9681 32.7697 16.1536 33.0727C16.2142 33.1699 16.2749 33.2671 16.3374 33.3672C16.603 33.8367 16.8389 34.3224 17.0801 34.8048C22.1139 34.8048 27.1477 34.8048 32.334 34.8048C32.6176 34.2376 32.9012 33.6705 33.1934 33.0861C33.3706 32.8379 33.5479 32.5898 33.7305 32.3341C33.7305 32.2987 33.7305 32.2632 33.7305 32.2267C29.4766 32.1913 25.2227 32.1558 20.8398 32.1193C20.6162 31.0607 20.3926 30.002 20.1622 28.9113C20.0207 28.2421 19.8792 27.5729 19.7377 26.9037C19.5129 25.8406 19.2882 24.7776 19.0637 23.7145C18.9002 22.9403 18.7366 22.1662 18.5728 21.3921C18.4861 20.9821 18.3994 20.5721 18.3129 20.1621C18.2315 19.7763 18.1499 19.3905 18.0682 19.0048C18.0239 18.7954 17.9798 18.586 17.9357 18.3765C17.9093 18.2523 17.883 18.128 17.8558 18C17.8329 17.8917 17.81 17.7835 17.7865 17.672C17.7265 17.391 17.7265 17.391 17.6172 17.0802C17.2627 17.0802 16.9082 17.0802 16.543 17.0802ZM20.625 22.7736C20.6896 23.3553 20.7507 23.8842 20.8711 24.4482C20.8987 24.5787 20.9263 24.7091 20.9548 24.8435C20.9844 24.9811 21.0141 25.1188 21.0446 25.2607C21.0756 25.4057 21.1064 25.5507 21.1373 25.6957C21.2017 25.9976 21.2663 26.2994 21.3313 26.6011C21.4145 26.9881 21.4971 27.3753 21.5794 27.7625C21.643 28.061 21.7068 28.3594 21.7707 28.6579C21.8013 28.8007 21.8318 28.9436 21.8622 29.0864C21.9046 29.2852 21.9474 29.4839 21.9902 29.6825C22.0145 29.7956 22.0387 29.9086 22.0637 30.025C22.1178 30.2909 22.1178 30.2909 22.2363 30.508C24.0489 30.518 25.8614 30.5256 27.6739 30.5302C28.5156 30.5324 29.3573 30.5354 30.199 30.5404C30.9332 30.5447 31.6673 30.5474 32.4014 30.5484C32.7897 30.5489 33.1779 30.5502 33.5662 30.5534C34.001 30.5569 34.4357 30.5569 34.8705 30.5567C34.9974 30.5583 35.1244 30.5598 35.2552 30.5614C36.0031 30.5577 36.6136 30.4473 37.3138 30.181C38.7643 29.6559 40.473 29.9189 41.8945 30.4005C42.2739 30.527 42.5727 30.5208 42.9732 30.5202C43.0498 30.5202 43.1263 30.5202 43.2052 30.5202C43.458 30.5201 43.7108 30.5193 43.9637 30.5185C44.139 30.5183 44.3144 30.5181 44.4897 30.518C44.9512 30.5176 45.4126 30.5165 45.8741 30.5153C46.345 30.5142 46.8159 30.5137 47.2868 30.5132C48.2107 30.5121 49.1347 30.5102 50.0586 30.508C50.4492 29.5945 50.8042 28.672 51.1416 27.7377C51.1914 27.6003 51.2412 27.463 51.2911 27.3257C51.3943 27.041 51.4972 26.7563 51.6 26.4715C51.7319 26.1063 51.8644 25.7413 51.997 25.3763C52.0995 25.0943 52.2016 24.8121 52.3036 24.5298C52.376 24.3297 52.4487 24.1297 52.5214 23.9296C52.5648 23.8091 52.6083 23.6885 52.653 23.5643C52.6915 23.458 52.7299 23.3517 52.7695 23.2421C52.8626 22.9988 52.8626 22.9988 52.8516 22.7736C42.2168 22.7736 31.582 22.7736 20.625 22.7736ZM44.6875 32.2267C44.9253 32.6232 44.9253 32.6232 45.1671 33.0173C45.2193 33.102 45.2715 33.1868 45.3253 33.2741C45.3772 33.3577 45.4292 33.4413 45.4827 33.5275C45.7103 33.9394 45.8929 34.3748 46.084 34.8048C47.3247 34.8048 48.5654 34.8048 49.8438 34.8048C49.8438 33.9541 49.8438 33.1033 49.8438 32.2267C48.1422 32.2267 46.4406 32.2267 44.6875 32.2267Z" fill="#383838"/>
<path d="M40.8148 34.5448C41.56 35.0614 42.0387 35.7407 42.2168 36.6311C42.3237 37.592 42.0932 38.4172 41.5051 39.1891C40.9429 39.7881 40.1641 40.1367 39.3466 40.1827C38.4499 40.1582 37.7344 39.9222 37.0605 39.3167C36.4548 38.6033 36.1395 37.8372 36.1684 36.8951C36.2758 36.0291 36.6046 35.3502 37.2556 34.7684C38.3125 33.9649 39.6562 33.8697 40.8148 34.5448ZM37.9803 36.611C37.8828 36.9903 37.9149 37.3358 38.0273 37.7053C38.298 38.0716 38.5115 38.2189 38.927 38.4036C39.4215 38.4718 39.6429 38.3919 40.0683 38.135C40.3402 37.8496 40.4842 37.6506 40.5186 37.2526C40.4931 36.788 40.428 36.5697 40.1288 36.2014C39.7439 35.9011 39.4997 35.836 39.005 35.8414C38.5343 35.9201 38.2691 36.2469 37.9803 36.611Z" fill="#383838"/>
<path d="M11.8164 34.59C12.4993 35.0478 12.8816 35.6325 13.1055 36.4162C13.2135 37.4059 13.1173 38.2921 12.5138 39.1051C11.9086 39.7694 11.133 40.1183 10.2391 40.1789C9.34792 40.1684 8.61024 39.9271 7.94922 39.3166C7.34416 38.5768 7.04892 37.7345 7.10705 36.7775C7.24927 35.8758 7.67757 35.18 8.39359 34.6173C9.42146 33.9256 10.7707 33.9402 11.8164 34.59ZM9.13086 36.3088C8.88331 36.732 8.79653 36.9607 8.85559 37.4501C9.06019 37.8921 9.26161 38.0841 9.66797 38.3498C10.0708 38.4841 10.2478 38.4805 10.6482 38.3364C10.9912 38.1127 11.1814 37.9532 11.3867 37.5979C11.4537 37.07 11.4439 36.8488 11.1987 36.3759C10.8316 35.9476 10.669 35.8926 10.1044 35.8388C9.6559 35.853 9.43664 35.9681 9.13086 36.3088Z" fill="#383838"/>
<path d="M8.59375 46.4062C11.5006 46.4062 14.4074 46.4062 17.4023 46.4062C17.4023 46.9734 17.4023 47.5406 17.4023 48.125C14.4955 48.125 11.5887 48.125 8.59375 48.125C8.59375 47.5578 8.59375 46.9906 8.59375 46.4062Z" fill="#383838"/>
<path d="M17.7246 42.1094C20.5251 42.1094 23.3256 42.1094 26.2109 42.1094C26.2109 42.6766 26.2109 43.2437 26.2109 43.8281C23.4104 43.8281 20.61 43.8281 17.7246 43.8281C17.7246 43.2609 17.7246 42.6938 17.7246 42.1094Z" fill="#383838"/>
<path d="M46.8359 41.8945C49.4946 41.8945 52.1533 41.8945 54.8926 41.8945C54.8926 42.4617 54.8926 43.0289 54.8926 43.6133C52.2339 43.6133 49.5752 43.6133 46.8359 43.6133C46.8359 43.0461 46.8359 42.4789 46.8359 41.8945Z" fill="#383838"/>
<path d="M38.6719 45.9766C40.8343 45.9766 42.9967 45.9766 45.2246 45.9766C45.2246 46.5438 45.2246 47.1109 45.2246 47.6953C43.0622 47.6953 40.8998 47.6953 38.6719 47.6953C38.6719 47.1281 38.6719 46.5609 38.6719 45.9766Z" fill="#383838"/>
<path d="M21.4844 37.9199C23.1505 37.9199 24.8166 37.9199 26.5332 37.9199C26.5332 38.4871 26.5332 39.0543 26.5332 39.6387C24.8671 39.6387 23.201 39.6387 21.4844 39.6387C21.4844 39.0715 21.4844 38.5043 21.4844 37.9199Z" fill="#383838"/>
<path d="M48.3398 37.9199C49.7933 37.9199 51.2467 37.9199 52.7441 37.9199C52.7441 38.4871 52.7441 39.0543 52.7441 39.6387C51.2907 39.6387 49.8373 39.6387 48.3398 39.6387C48.3398 39.0715 48.3398 38.5043 48.3398 37.9199Z" fill="#383838"/>
<path d="M22.1289 46.4062C22.6961 46.4062 23.2633 46.4062 23.8477 46.4062C23.8477 46.9734 23.8477 47.5406 23.8477 48.125C23.2805 48.125 22.7133 48.125 22.1289 48.125C22.1289 47.5578 22.1289 46.9906 22.1289 46.4062Z" fill="#383838"/>
<path d="M18.9062 46.4062C19.4734 46.4062 20.0406 46.4062 20.625 46.4062C20.625 46.9734 20.625 47.5406 20.625 48.125C20.0578 48.125 19.4906 48.125 18.9062 48.125C18.9062 47.5578 18.9062 46.9906 18.9062 46.4062Z" fill="#383838"/>
<path d="M49.9512 45.9766C50.5184 45.9766 51.0855 45.9766 51.6699 45.9766C51.6699 46.5438 51.6699 47.1109 51.6699 47.6953C51.1027 47.6953 50.5355 47.6953 49.9512 47.6953C49.9512 47.1281 49.9512 46.5609 49.9512 45.9766Z" fill="#383838"/>
<path d="M28.0371 37.9199C28.6043 37.9199 29.1715 37.9199 29.7559 37.9199C29.7559 38.4871 29.7559 39.0543 29.7559 39.6387C29.1887 39.6387 28.6215 39.6387 28.0371 39.6387C28.0371 39.0715 28.0371 38.5043 28.0371 37.9199Z" fill="#383838"/>
<path d="M47.2656 25.5664C47.8328 25.5664 48.4 25.5664 48.9844 25.5664C48.9844 26.1336 48.9844 26.7008 48.9844 27.2852C48.4172 27.2852 47.85 27.2852 47.2656 27.2852C47.2656 26.718 47.2656 26.1508 47.2656 25.5664Z" fill="#383838"/>
<path d="M37.7051 25.5664C38.2723 25.5664 38.8395 25.5664 39.4238 25.5664C39.4238 26.1336 39.4238 26.7008 39.4238 27.2852C38.8566 27.2852 38.2895 27.2852 37.7051 27.2852C37.7051 26.718 37.7051 26.1508 37.7051 25.5664Z" fill="#383838"/>
<path d="M34.4824 25.5664C35.0496 25.5664 35.6168 25.5664 36.2012 25.5664C36.2012 26.1336 36.2012 26.7008 36.2012 27.2852C35.634 27.2852 35.0668 27.2852 34.4824 27.2852C34.4824 26.718 34.4824 26.1508 34.4824 25.5664Z" fill="#383838"/>
<path d="M31.2598 25.5664C31.827 25.5664 32.3941 25.5664 32.9785 25.5664C32.9785 26.1336 32.9785 26.7008 32.9785 27.2852C32.4113 27.2852 31.8441 27.2852 31.2598 27.2852C31.2598 26.718 31.2598 26.1508 31.2598 25.5664Z" fill="#383838"/>
<path d="M28.0371 25.5664C28.6043 25.5664 29.1715 25.5664 29.7559 25.5664C29.7559 26.1336 29.7559 26.7008 29.7559 27.2852C29.1887 27.2852 28.6215 27.2852 28.0371 27.2852C28.0371 26.718 28.0371 26.1508 28.0371 25.5664Z" fill="#383838"/>
<path d="M24.8145 25.5664C25.3816 25.5664 25.9488 25.5664 26.5332 25.5664C26.5332 26.1336 26.5332 26.7008 26.5332 27.2852C25.966 27.2852 25.3988 27.2852 24.8145 27.2852C24.8145 26.718 24.8145 26.1508 24.8145 25.5664Z" fill="#383838"/>
<path d="M30.8301 14.502C31.3973 14.502 31.9645 14.502 32.5488 14.502C32.5488 15.0691 32.5488 15.6363 32.5488 16.2207C31.9816 16.2207 31.4145 16.2207 30.8301 16.2207C30.8301 15.6535 30.8301 15.0863 30.8301 14.502Z" fill="#383838"/>
<path d="M38.457 14.2871C39.0242 14.2871 39.5914 14.2871 40.1758 14.2871C40.1758 14.8543 40.1758 15.4215 40.1758 16.0059C39.6086 16.0059 39.0414 16.0059 38.457 16.0059C38.457 15.4387 38.457 14.8715 38.457 14.2871Z" fill="#383838"/>
<path d="M27.6074 13.3203C28.1746 13.3203 28.7418 13.3203 29.3262 13.3203C29.3262 13.8875 29.3262 14.4547 29.3262 15.0391C28.759 15.0391 28.1918 15.0391 27.6074 15.0391C27.6074 14.4719 27.6074 13.9047 27.6074 13.3203Z" fill="#383838"/>
<path d="M34.8047 13.2129C35.3719 13.2129 35.9391 13.2129 36.5234 13.2129C36.5234 13.7801 36.5234 14.3473 36.5234 14.9316C35.9562 14.9316 35.3891 14.9316 34.8047 14.9316C34.8047 14.3645 34.8047 13.7973 34.8047 13.2129Z" fill="#383838"/>
<path d="M46.7285 45.9766C47.2957 45.9766 47.8629 45.9766 48.4473 45.9766C48.4473 46.5437 48.4473 47.1109 48.4473 47.6953C48.1836 47.6975 47.92 47.6997 47.6483 47.702C47.5652 47.703 47.482 47.704 47.3964 47.705C47.2095 47.7058 47.0227 47.7007 46.8359 47.6953C46.7285 47.5879 46.7285 47.5879 46.718 47.2249C46.7186 47.0751 46.72 46.9253 46.7218 46.7755C46.724 46.5119 46.7262 46.2482 46.7285 45.9766Z" fill="#383838"/>
<path d="M44.1504 25.5664C44.6821 25.5664 45.2139 25.5664 45.7617 25.5664C45.7617 26.1336 45.7617 26.7008 45.7617 27.2852C45.23 27.2852 44.6982 27.2852 44.1504 27.2852C44.1504 26.718 44.1504 26.1508 44.1504 25.5664Z" fill="#383838"/>
<path d="M40.9277 25.5664C41.4595 25.5664 41.9912 25.5664 42.5391 25.5664C42.5391 26.1336 42.5391 26.7008 42.5391 27.2852C42.0073 27.2852 41.4756 27.2852 40.9277 27.2852C40.9277 26.718 40.9277 26.1508 40.9277 25.5664Z" fill="#383838"/>
</g>
<defs>
<clipPath id="clip0_87_1562">
<rect width="55" height="55" fill="white"/>
</clipPath>
</defs>
</svg>
