<svg width="55" height="55" viewBox="0 0 55 55" fill="none" xmlns="http://www.w3.org/2000/svg">
<g clip-path="url(#clip0_87_1532)">
<path d="M42.8009 0.208219C43.7242 0.773598 44.3449 1.73945 44.9762 2.59836C45.4037 3.17717 45.8308 3.75015 46.2988 4.29696C46.1401 4.69126 45.9254 4.87821 45.5872 5.12948C45.4555 5.22835 45.4555 5.22835 45.3211 5.32922C45.2538 5.37852 45.1865 5.42781 45.1172 5.4786C44.7682 5.32976 44.5829 5.16989 44.3543 4.8689C44.2933 4.78941 44.2323 4.70992 44.1694 4.62802C44.1055 4.54314 44.0416 4.45826 43.9758 4.37082C43.9097 4.28449 43.8437 4.19816 43.7756 4.10921C43.5774 3.85014 43.3804 3.59028 43.1836 3.33017C43.0243 3.12008 42.8649 2.91009 42.7051 2.70045C42.5737 2.52795 42.443 2.35483 42.3125 2.18168C42.031 1.83795 41.9404 1.83216 41.4896 1.77423C40.7291 1.78454 40.1078 2.19516 39.4574 2.55136C39.3184 2.62556 39.1794 2.6996 39.0402 2.77347C38.6296 2.99228 38.2209 3.21466 37.8125 3.43759C37.6465 3.52771 37.6465 3.52771 37.4771 3.61965C37.0872 3.83128 36.6975 4.04321 36.3092 4.25765C35.8011 4.53786 35.29 4.81021 34.7732 5.07409C34.6608 5.13167 34.5483 5.18925 34.4324 5.24858C34.2167 5.35856 34.0005 5.4677 33.7838 5.57582C32.9179 6.01414 32.9179 6.01414 32.334 6.76767C32.2854 7.41569 32.3792 7.83498 32.7003 8.40417C32.7388 8.4758 32.7773 8.54743 32.817 8.62123C32.9431 8.85473 33.0715 9.08679 33.2001 9.31894C33.2892 9.48305 33.3782 9.64726 33.4669 9.81157C33.6471 10.1443 33.8281 10.4766 34.01 10.8084C34.3692 11.4641 34.721 12.1238 35.0732 12.7833C35.2042 13.0272 35.3351 13.2712 35.466 13.5151C35.9703 14.4565 36.4693 15.4008 36.9681 16.3451C37.4049 17.1718 37.8428 17.9978 38.2858 18.8212C38.3421 18.9258 38.3421 18.9258 38.3995 19.0325C38.576 19.3607 38.7529 19.6887 38.9304 20.0164C39.0234 20.1891 39.0234 20.1891 39.1183 20.3653C39.1724 20.4653 39.2265 20.5653 39.2822 20.6682C39.4238 20.9474 39.4238 20.9474 39.5361 21.2435C39.619 21.5027 39.619 21.5027 39.8669 21.6255C40.601 21.801 41.1036 21.7201 41.7645 21.3687C41.8307 21.334 41.897 21.2994 41.9653 21.2637C42.1798 21.151 42.393 21.0358 42.6062 20.9205C42.756 20.8411 42.9059 20.7619 43.0559 20.6829C43.4937 20.4513 43.9297 20.2165 44.3652 19.9806C44.4783 19.9194 44.5914 19.8582 44.7079 19.7951C45.0951 19.5849 45.4819 19.3739 45.8679 19.1612C46.6008 18.7578 47.3414 18.3705 48.0847 17.9865C48.5281 17.7565 48.9712 17.5259 49.4141 17.295C49.5205 17.2396 49.6269 17.1843 49.7365 17.1272C50.0372 16.9699 50.3367 16.8105 50.636 16.6505C50.7254 16.604 50.8148 16.5575 50.9069 16.5097C51.3651 16.2618 51.6778 16.0785 51.8848 15.5763C51.9756 14.8759 51.7165 14.4273 51.3145 13.8815C51.1603 13.6856 51.0029 13.4926 50.8441 13.3003C50.7281 13.1576 50.6123 13.0148 50.4967 12.8718C50.4401 12.802 50.3835 12.7321 50.3253 12.6601C50.0265 12.2866 49.7429 11.902 49.4577 11.5181C49.1449 11.0977 48.8262 10.6817 48.5077 10.2656C48.448 10.1876 48.3883 10.1095 48.3268 10.0291C48.0535 9.67225 47.7798 9.31573 47.5048 8.96017C46.9466 8.23816 46.4011 7.5092 45.8691 6.76767C46.2667 6.34605 46.6738 6.01333 47.1582 5.69345C47.2291 5.69345 47.3 5.69345 47.373 5.69345C47.5721 5.93791 47.759 6.1837 47.9437 6.43869C48.0609 6.59765 48.1781 6.75654 48.2954 6.91537C48.356 6.99776 48.4166 7.08016 48.479 7.16504C48.7663 7.55285 49.0598 7.93578 49.3536 8.31857C49.4706 8.47117 49.5875 8.62377 49.7044 8.77637C49.7627 8.85231 49.8209 8.92824 49.8809 9.00648C50.0606 9.24099 50.2401 9.47568 50.4195 9.71044C50.4787 9.78798 50.538 9.86551 50.599 9.9454C50.717 10.0998 50.8349 10.2541 50.9529 10.4085C51.2644 10.8161 51.577 11.2228 51.891 11.6285C52.1047 11.9053 52.317 12.1832 52.5293 12.461C52.6104 12.5661 52.6916 12.6712 52.7752 12.7795C53.5554 13.8136 53.8549 14.58 53.7109 15.8985C53.5053 16.6689 53.0476 17.3433 52.3815 17.7874C52.0676 17.9651 51.7496 18.1315 51.4282 18.2954C51.2422 18.3929 51.0561 18.4904 50.8701 18.588C50.6694 18.6929 50.4684 18.7971 50.2673 18.9012C49.8279 19.1289 49.3905 19.3601 48.9533 19.592C48.8402 19.652 48.8402 19.652 48.7248 19.7132C48.571 19.7948 48.4171 19.8765 48.2633 19.9581C48.0306 20.0815 47.7977 20.2046 47.5648 20.3276C46.823 20.7195 46.0819 21.1125 45.3429 21.5096C45.2755 21.5459 45.2081 21.5821 45.1387 21.6194C44.8255 21.7877 44.5124 21.9564 44.1995 22.1254C41.0228 23.8355 41.0228 23.8355 39.5623 23.4483C39.0522 23.2324 38.6382 22.9446 38.2422 22.5587C38.2422 22.4878 38.2422 22.4169 38.2422 22.3438C38.1241 22.3166 38.006 22.2893 37.8843 22.2612C36.996 22.0548 36.1116 21.842 35.2344 21.5919C35.2093 21.6481 35.1842 21.7043 35.1584 21.7623C34.9736 22.1073 34.7457 22.4174 34.516 22.7332C34.4196 22.8669 34.3232 23.0007 34.2269 23.1344C34.1794 23.2002 34.1318 23.2661 34.0829 23.3339C33.7821 23.7528 33.4879 24.1764 33.1934 24.5997C32.3615 24.5168 31.5844 24.2433 30.7902 23.9929C30.679 23.9591 30.5678 23.9254 30.4533 23.8905C30.3529 23.8592 30.2524 23.8278 30.149 23.7955C29.8265 23.7332 29.6359 23.7393 29.3262 23.8477C29.1364 24.0233 29.1364 24.0233 28.9871 24.2548C28.9283 24.3383 28.8694 24.4218 28.8088 24.5078C28.7491 24.5957 28.6894 24.6837 28.6279 24.7743C28.5682 24.8597 28.5086 24.9451 28.4471 25.0332C28.3295 25.2016 28.2126 25.3705 28.0963 25.5397C27.8658 25.8739 27.6294 26.2036 27.3926 26.5333C26.5861 26.4732 25.8612 26.28 25.0897 26.0432C24.8594 25.9734 24.6291 25.9039 24.3986 25.8346C24.2475 25.7884 24.2475 25.7884 24.0934 25.7412C23.8556 25.6645 23.8556 25.6645 23.6328 25.6739C23.4825 25.8417 23.4825 25.8417 23.3328 26.0629C23.2742 26.1453 23.2157 26.2277 23.1554 26.3126C23.0627 26.4451 23.0627 26.4451 22.9681 26.5803C22.8421 26.7579 22.7159 26.9354 22.5896 27.1128C22.5289 27.1983 22.4681 27.2838 22.4055 27.372C22.1106 27.7825 21.7996 28.1792 21.4844 28.5743C20.6683 28.4015 19.8655 28.1892 19.0607 27.9701C18.8674 27.9177 18.8674 27.9177 18.6702 27.8643C18.355 27.7789 18.0398 27.6933 17.7246 27.6075C17.6939 27.6895 17.6632 27.7714 17.6315 27.8558C17.4775 28.221 17.2515 28.5089 17.0062 28.816C16.9087 28.9388 16.8112 29.0616 16.7138 29.1844C16.6423 29.2745 16.6423 29.2745 16.5694 29.3664C16.4492 29.5233 16.3379 29.6867 16.2278 29.8508C16.1679 29.9391 16.1079 30.0275 16.0461 30.1185C15.996 30.1969 15.9459 30.2753 15.8942 30.356C15.6836 30.5079 15.6836 30.5079 15.3135 30.5033C14.5785 30.3736 13.8672 30.1199 13.1583 29.8917C12.9918 29.8405 12.9918 29.8405 12.8218 29.7883C12.7215 29.7563 12.6212 29.7244 12.5179 29.6915C12.1954 29.6405 12.0814 29.6786 11.8164 29.8634C11.6344 30.0908 11.4691 30.3146 11.3062 30.5549C11.2119 30.6905 11.1177 30.826 11.0233 30.9615C10.9765 31.0294 10.9297 31.0972 10.8814 31.1672C10.6739 31.4655 10.4598 31.7587 10.2454 32.0521C10.1753 32.1482 10.1052 32.2443 10.033 32.3433C9.95868 32.4451 9.95868 32.4451 9.88281 32.5489C9.34306 32.4366 8.80545 32.317 8.26844 32.1923C8.04392 32.1409 7.81903 32.0911 7.59391 32.0424C7.21886 31.9604 6.84561 31.8725 6.47217 31.7835C6.35206 31.7584 6.23195 31.7333 6.1082 31.7074C5.5015 31.5569 5.12761 31.4287 4.79286 30.883C4.69571 30.6881 4.60209 30.4913 4.51172 30.2931C4.40469 30.0896 4.29697 29.8865 4.18861 29.6838C4.07673 29.4663 3.96512 29.2486 3.85376 29.0309C3.39167 28.1344 2.92205 27.2431 2.43713 26.3587C2.38425 26.2622 2.33137 26.1657 2.27689 26.0663C2.17492 25.8802 2.07292 25.6943 1.97089 25.5083C1.7513 25.1076 1.53277 24.7064 1.31592 24.3043C1.27987 24.2383 1.24383 24.1723 1.20669 24.1043C0.966797 23.6576 0.966797 23.6576 0.966797 23.4181C1.09937 23.3477 1.09937 23.3477 1.23462 23.276C2.78947 22.451 4.34393 21.6254 5.89478 20.7929C7.22843 20.0773 8.56572 19.3687 9.90368 18.6611C9.98002 18.6207 10.0564 18.5804 10.135 18.5388C10.2114 18.4983 10.2879 18.4579 10.3667 18.4162C11.2152 17.9674 12.063 17.5172 12.9108 17.0667C12.9799 17.03 13.049 16.9933 13.1203 16.9554C13.2549 16.8839 13.3895 16.8124 13.5241 16.7408C13.6541 16.6718 13.784 16.6028 13.9141 16.534C14.2599 16.3506 14.6045 16.1651 14.9478 15.9771C15.058 15.9172 15.058 15.9172 15.1704 15.8561C15.3116 15.7793 15.4525 15.7019 15.593 15.6239C15.8976 15.4588 16.0833 15.3614 16.4355 15.3614C16.5465 15.5689 16.6559 15.7772 16.7645 15.9858C16.8561 16.1597 16.8561 16.1597 16.9496 16.337C17.0801 16.6505 17.0801 16.6505 16.9727 16.9727C16.74 17.1191 16.5132 17.2463 16.269 17.3705C16.1599 17.4276 16.1599 17.4276 16.0487 17.4859C15.8089 17.6112 15.5683 17.7351 15.3278 17.859C15.1601 17.9464 14.9924 18.0338 14.8248 18.1214C14.4846 18.2993 14.1441 18.4767 13.8034 18.6539C13.138 19.0008 12.4771 19.3561 11.8164 19.712C10.6365 20.3457 9.45359 20.9735 8.2696 21.5994C6.65672 22.4522 5.04667 23.3103 3.4375 24.17C3.58932 24.5667 3.76554 24.9413 3.96076 25.3185C4.05226 25.4958 4.05226 25.4958 4.1456 25.6768C4.27984 25.9339 4.41475 26.1906 4.55095 26.4467C4.62058 26.5779 4.69017 26.7092 4.75971 26.8405C4.79423 26.9055 4.82875 26.9706 4.86431 27.0377C5.07342 27.4364 5.2606 27.8389 5.4353 28.2537C5.92594 29.3743 5.92594 29.3743 6.9178 30.027C7.50431 30.2089 8.0946 30.3133 8.70117 30.4005C8.88042 30.4352 9.05952 30.4707 9.23828 30.5079C9.26334 30.433 9.28841 30.3581 9.31423 30.2809C9.47937 29.9122 9.70572 29.6187 9.95667 29.3061C10.4194 28.7183 10.8578 28.1184 11.2793 27.5001C12.5037 27.7987 13.7188 28.1244 14.9316 28.4669C15.6677 27.5134 16.4018 26.5624 17.0801 25.5665C17.9469 25.7238 18.7799 25.9541 19.623 26.2073C19.7185 26.2354 19.814 26.2635 19.9125 26.2924C19.9979 26.3181 20.0833 26.3437 20.1713 26.3701C20.439 26.4422 20.439 26.4422 20.8398 26.4259C21.029 26.205 21.1847 25.9958 21.3434 25.7545C21.4377 25.6169 21.5321 25.4794 21.6266 25.342C21.6979 25.2371 21.6979 25.2371 21.7707 25.1301C21.9902 24.8113 22.2195 24.5002 22.4512 24.1902C22.5287 24.0853 22.6063 23.9805 22.6862 23.8725C22.8809 23.6329 22.8809 23.6329 23.0957 23.5255C23.3478 23.5833 23.5903 23.6484 23.8376 23.7227C23.9107 23.7441 23.9838 23.7654 24.0591 23.7874C24.2138 23.8328 24.3684 23.8785 24.5229 23.9245C24.7596 23.9951 24.9966 24.0646 25.2337 24.1339C25.3838 24.1781 25.5338 24.2223 25.6839 24.2665C25.7905 24.2979 25.7905 24.2979 25.8992 24.3299C26.1559 24.4066 26.4005 24.4797 26.6406 24.5997C26.6657 24.5435 26.6908 24.4873 26.7166 24.4293C26.9014 24.0843 27.1293 23.7742 27.359 23.4583C27.4554 23.3247 27.5518 23.1909 27.6481 23.0572C27.6956 22.9913 27.7432 22.9255 27.7921 22.8577C28.093 22.4388 28.3868 22.015 28.6816 21.5919C29.5473 21.7478 30.3762 21.9802 31.2151 22.2421C31.3103 22.2705 31.4055 22.299 31.5036 22.3283C31.5884 22.3545 31.6733 22.3807 31.7607 22.4077C32.0641 22.4604 32.2568 22.4421 32.5488 22.3438C32.7386 22.1683 32.7386 22.1683 32.8879 21.9368C32.9467 21.8533 33.0056 21.7698 33.0662 21.6838C33.1259 21.5959 33.1856 21.5079 33.2471 21.4173C33.3068 21.3319 33.3664 21.2465 33.4279 21.1584C33.5455 20.99 33.6624 20.8211 33.7787 20.6518C34.0092 20.3176 34.2456 19.988 34.4824 19.6583C35.0968 19.7007 35.6453 19.8121 36.2373 19.9856C36.3716 20.0247 36.506 20.0639 36.6444 20.1042C36.7463 20.1343 36.8482 20.1644 36.9531 20.1954C36.9088 20.1127 36.8645 20.03 36.8188 19.9449C36.7258 19.7712 36.7258 19.7712 36.6309 19.5941C36.5974 19.5316 36.5639 19.4691 36.5294 19.4048C36.3457 19.062 36.162 18.7191 35.9785 18.3762C35.5126 17.5055 35.5126 17.5055 35.0434 16.6366C35.0031 16.5619 34.9627 16.4872 34.9211 16.4103C34.819 16.2214 34.7164 16.0327 34.6138 15.844C34.4824 15.5763 34.4824 15.5763 34.4824 15.3614C34.3698 15.4235 34.2573 15.4855 34.1413 15.5494C33.9932 15.63 33.845 15.7106 33.6969 15.7911C33.6227 15.8321 33.5486 15.8731 33.4722 15.9153C32.9076 16.2208 32.9076 16.2208 32.5488 16.2208C32.4406 16.0131 32.3334 15.8048 32.2266 15.5964C32.1368 15.4226 32.1368 15.4226 32.0453 15.2452C31.9043 14.9317 31.9043 14.9317 31.9043 14.6095C32.4006 14.3613 32.8969 14.1132 33.4082 13.8575C33.317 13.4014 33.266 13.221 33.0255 12.8571C32.9766 12.7822 32.9277 12.7073 32.8774 12.6301C32.8399 12.5743 32.8023 12.5185 32.7637 12.461C32.6943 12.499 32.625 12.5369 32.5535 12.5759C32.2387 12.7481 31.9238 12.9201 31.6089 13.0921C31.4998 13.1518 31.3907 13.2115 31.2782 13.273C31.1204 13.3592 31.1204 13.3592 30.9593 13.4471C30.8626 13.5 30.7658 13.5529 30.6661 13.6074C30.5346 13.678 30.5346 13.678 30.4004 13.7501C30.3246 13.7918 30.2488 13.8335 30.1708 13.8764C29.9707 13.9649 29.9707 13.9649 29.6484 13.9649C29.5375 13.7575 29.4281 13.5492 29.3195 13.3405C29.2279 13.1667 29.2279 13.1667 29.1344 12.9893C29.0039 12.6759 29.0039 12.6759 29.1113 12.3536C29.3799 12.179 29.3799 12.179 29.7328 11.9932C29.7946 11.9602 29.8565 11.9273 29.9202 11.8934C30.1178 11.7885 30.3161 11.685 30.5145 11.5815C30.6486 11.5106 30.7827 11.4396 30.9167 11.3686C31.2453 11.1943 31.5748 11.0221 31.9043 10.8497C31.6916 10.4243 31.4789 9.99892 31.2598 9.56064C30.8866 9.56064 30.7298 9.64844 30.4016 9.8208C30.2937 9.87716 30.1858 9.93352 30.0746 9.99158C29.9583 10.0532 29.8421 10.1148 29.7223 10.1783C29.6017 10.2416 29.4812 10.3049 29.357 10.3701C28.4938 10.8248 27.6366 11.2902 26.7817 11.7604C26.042 12.166 25.2954 12.5572 24.5459 12.9444C23.6899 13.3867 22.8392 13.8369 21.9946 14.3006C21.1922 14.7409 20.3873 15.1761 19.5776 15.6031C19.4809 15.6545 19.3843 15.7059 19.2846 15.7588C19.1958 15.8055 19.1069 15.8521 19.0154 15.9002C18.937 15.9415 18.8587 15.9828 18.778 16.0254C18.584 16.1134 18.584 16.1134 18.3691 16.1134C18.2609 15.9056 18.1537 15.6974 18.0469 15.489C17.9871 15.3731 17.9272 15.2572 17.8656 15.1378C17.7246 14.8243 17.7246 14.8243 17.7246 14.502C17.8195 14.4519 17.9144 14.4018 18.0122 14.3501C19.7579 13.4275 21.5026 12.5031 23.2421 11.5688C24.0058 11.159 24.7708 10.7518 25.5374 10.3474C25.9315 10.1395 26.3252 9.93085 26.7178 9.72014C27.4007 9.35443 28.0819 8.99748 28.7865 8.67483C29.7838 8.26922 29.7838 8.26922 30.507 7.5288C30.6105 7.15521 30.6195 6.80028 30.611 6.41477C30.6173 5.82248 30.8451 5.45722 31.2598 5.04892C31.8738 4.52804 32.544 4.16081 33.2605 3.80014C33.4816 3.6869 33.7026 3.57345 33.9235 3.45983C34.0349 3.40259 34.1463 3.34535 34.2611 3.28637C34.7644 3.02452 35.2612 2.75132 35.7581 2.47751C36.628 1.99983 37.5032 1.53322 38.3832 1.07431C38.5494 0.98729 38.5494 0.98729 38.719 0.898515C39.0245 0.73991 39.3309 0.583851 39.6387 0.429776C39.7261 0.38575 39.8135 0.341725 39.9036 0.296364C40.8208 -0.141598 41.8554 -0.212013 42.8009 0.208219Z" fill="#383838"/>
<path d="M10.8873 33.9324C11.0196 33.9323 11.152 33.9323 11.2883 33.9322C11.6538 33.932 12.0193 33.9324 12.3848 33.9329C12.7796 33.9334 13.1744 33.9332 13.5692 33.9331C14.2527 33.9331 14.9361 33.9334 15.6196 33.934C16.6077 33.9349 17.5959 33.9352 18.584 33.9353C20.1874 33.9355 21.7907 33.9362 23.394 33.9373C24.9512 33.9382 26.5084 33.939 28.0656 33.9395C28.1616 33.9395 28.2577 33.9395 28.3566 33.9395C28.8384 33.9397 29.3202 33.9398 29.802 33.94C33.797 33.9411 37.792 33.943 41.7871 33.9454C41.7871 34.5125 41.7871 35.0797 41.7871 35.6641C33.4565 35.6996 25.1259 35.735 16.5429 35.7715C17.0038 36.1615 17.4646 36.5514 17.9394 36.9532C20.0122 39.0533 21.083 41.7546 21.0814 44.7032C21.0384 47.5827 19.8184 50.1057 17.8253 52.1332C17.7735 52.1861 17.7216 52.2389 17.6682 52.2934C17.2768 52.6812 16.8959 52.9525 16.4355 53.2813C22.2846 53.3345 22.2846 53.3345 28.2519 53.3887C28.2519 53.9205 28.2519 54.4522 28.2519 55C25.7708 55.0075 23.2897 55.0133 20.8086 55.0167C19.6564 55.0184 18.5043 55.0207 17.3522 55.0244C16.3474 55.0276 15.3427 55.0297 14.338 55.0304C13.8065 55.0308 13.275 55.0318 12.7435 55.0341C12.2421 55.0363 11.7408 55.037 11.2394 55.0365C11.0565 55.0366 10.8735 55.0372 10.6905 55.0385C7.79592 55.0572 5.17887 54.1337 3.10051 52.0883C2.99783 51.9848 2.89529 51.8812 2.79293 51.7774C2.71248 51.698 2.63203 51.6187 2.54913 51.5369C0.784286 49.6886 -0.0683484 47.0685 -0.0470345 44.5533C-0.0461431 44.4167 -0.0452517 44.2801 -0.0443333 44.1394C0.00522621 41.3717 1.11964 38.974 3.00778 36.9532C5.2369 34.8789 7.87295 33.9248 10.8873 33.9324ZM4.08199 38.4571C4.00099 38.5381 3.91998 38.6191 3.83652 38.7026C2.12235 40.5224 1.64504 42.7922 1.68598 45.2049C1.7673 47.4312 2.96563 49.5841 4.55364 51.1119C5.4294 51.8487 6.44742 52.4527 7.51949 52.8516C7.63069 52.8937 7.74188 52.9358 7.85645 52.9792C10.0094 53.6735 12.4196 53.4273 14.4348 52.4488C15.135 52.0879 15.7469 51.6675 16.3281 51.1329C16.4171 51.0537 16.5062 50.9744 16.5979 50.8928C18.2576 49.3373 19.2337 47.1656 19.3531 44.8978C19.3917 43.4135 19.131 42.0519 18.4765 40.7129C18.4315 40.6163 18.3865 40.5196 18.3402 40.42C17.3289 38.3976 15.4884 36.8722 13.379 36.1047C9.96727 35.0451 6.58781 35.9513 4.08199 38.4571Z" fill="#383838"/>
<path d="M43.291 33.9453C46.3453 33.86 49.0938 34.4799 51.4551 36.5235C51.5459 36.5946 51.6368 36.6658 51.7303 36.7391C53.51 38.1936 54.6769 40.7229 55 42.9688C55.0796 44.4653 55.1505 46.0426 54.6777 47.4805C54.657 47.5467 54.6362 47.613 54.6148 47.6812C54.0434 49.4753 53.1126 50.8905 51.7773 52.207C51.698 52.2875 51.6187 52.368 51.5369 52.4508C50.5681 53.3758 49.3969 53.9918 48.1519 54.4562C48.0302 54.5017 48.0302 54.5017 47.906 54.5481C46.7319 54.9623 45.5908 55.031 44.3534 55.0244C44.1934 55.0243 44.0334 55.0244 43.8735 55.0245C43.4427 55.0246 43.012 55.0233 42.5813 55.0218C42.1299 55.0204 41.6784 55.0203 41.2269 55.0201C40.3736 55.0194 39.5203 55.0176 38.667 55.0155C37.6949 55.0131 36.7228 55.0119 35.7506 55.0108C33.7524 55.0086 31.7541 55.0048 29.7559 55C29.7559 54.4683 29.7559 53.9365 29.7559 53.3887C30.026 53.3874 30.026 53.3874 30.3016 53.3861C32.0051 53.3777 33.7086 53.3683 35.4122 53.3578C36.2878 53.3524 37.1634 53.3475 38.0391 53.3434C38.8032 53.3398 39.5673 53.3355 40.3314 53.3304C40.7352 53.3277 41.139 53.3253 41.5427 53.3239C45.0927 53.3104 48.1462 53.1605 50.8538 50.563C52.6413 48.6991 53.2492 46.3707 53.2066 43.855C53.136 41.9119 52.3371 40.1014 51.0254 38.6719C50.9541 38.5907 50.8828 38.5096 50.8093 38.426C49.1019 36.5892 46.7135 35.8247 44.2645 35.7111C44.1706 35.7064 44.0766 35.7018 43.9798 35.697C43.7502 35.6857 43.5206 35.6749 43.291 35.6641C43.291 35.0969 43.291 34.5297 43.291 33.9453Z" fill="#383838"/>
<path d="M41.1425 5.04883C41.3072 5.20955 41.3072 5.20955 41.4644 5.4181C41.5237 5.49558 41.5829 5.57306 41.644 5.6529C41.7067 5.73715 41.7695 5.8214 41.8341 5.90821C41.9332 6.03864 41.9332 6.03864 42.0344 6.1717C42.172 6.35277 42.3091 6.53418 42.4458 6.71592C42.6885 7.0383 42.9341 7.35848 43.1798 7.67857C43.4105 7.97927 43.6403 8.28068 43.8701 8.58206C44.1601 8.9622 44.4507 9.34192 44.7412 9.72168C44.8576 9.87386 44.9739 10.026 45.0903 10.1782C45.1479 10.2536 45.2055 10.3289 45.2649 10.4065C45.4394 10.6348 45.614 10.863 45.7885 11.0913C45.8751 11.2045 45.8751 11.2045 45.9634 11.3199C46.0788 11.4709 46.1943 11.622 46.3096 11.7731C46.6142 12.1718 46.9197 12.5697 47.2266 12.9666C47.2904 13.0494 47.3542 13.1322 47.42 13.2175C47.5424 13.3762 47.665 13.5347 47.788 13.6929C47.8707 13.8003 47.8707 13.8003 47.955 13.9099C48.0035 13.9725 48.052 14.0351 48.102 14.0997C48.2396 14.2975 48.3447 14.4991 48.4472 14.7168C46.8724 15.585 45.2866 16.4315 43.6958 17.2699C43.6199 17.3099 43.544 17.35 43.4659 17.3912C43.3185 17.4689 43.1712 17.5466 43.0237 17.6242C42.5586 17.8697 42.0995 18.1237 41.6466 18.3914C41.4648 18.4766 41.4648 18.4766 41.1425 18.4766C41.0941 18.3829 41.0941 18.3829 41.0447 18.2873C40.4462 17.1312 39.8429 15.9784 39.2157 14.8377C38.6929 13.8866 38.1898 12.9265 37.6919 11.9624C37.2382 11.0862 36.7705 10.2184 36.2945 9.3541C36.1974 9.1776 36.1006 9.00091 36.0042 8.82397C35.8954 8.62406 35.7853 8.42484 35.6749 8.22575C35.5566 7.94922 35.5566 7.94922 35.664 7.62696C35.8852 7.48264 35.8852 7.48264 36.1789 7.33532C36.2877 7.27988 36.3965 7.22444 36.5086 7.16732C36.6265 7.10852 36.7444 7.04972 36.8658 6.98914C37.1107 6.86505 37.3555 6.7407 37.6001 6.6161C37.7247 6.55266 37.8493 6.48922 37.9777 6.42386C38.3351 6.23802 38.6873 6.04535 39.0386 5.8482C39.1455 5.7883 39.2523 5.72841 39.3625 5.66669C39.5658 5.55197 39.7686 5.43627 39.9708 5.31951C40.0624 5.26813 40.154 5.21675 40.2483 5.16381C40.328 5.11813 40.4077 5.07245 40.4898 5.02539C40.764 4.92215 40.8756 4.93127 41.1425 5.04883ZM39.209 7.71424C39.0976 7.77302 38.9863 7.8318 38.8716 7.89237C38.7658 7.94949 38.66 8.00661 38.551 8.06546C38.4532 8.11777 38.3555 8.17009 38.2547 8.22399C37.995 8.36727 37.995 8.36727 37.9199 8.70118C38.0288 8.95378 38.1437 9.18562 38.2757 9.42585C38.3145 9.49837 38.3532 9.57089 38.3931 9.64561C38.5208 9.88413 38.65 10.1218 38.7793 10.3595C38.8677 10.524 38.9561 10.6885 39.0443 10.8531C39.2248 11.1894 39.4059 11.5254 39.5876 11.8611C39.8353 12.3193 40.081 12.7784 40.326 13.2381C41.0929 14.6852 41.0929 14.6852 41.8945 16.1133C42.3656 15.9682 42.7882 15.7838 43.2251 15.556C43.2878 15.5235 43.3505 15.4909 43.4151 15.4573C43.5466 15.389 43.6779 15.3203 43.8091 15.2515C44.0097 15.1463 44.2106 15.0419 44.4116 14.9375C45.1006 14.5828 45.1006 14.5828 45.7617 14.1797C45.5974 13.6665 45.3083 13.3178 44.9694 12.9108C44.509 12.3468 44.0606 11.7767 43.6267 11.192C43.096 10.4781 42.5531 9.77458 42.005 9.07393C41.5495 8.4907 41.1046 7.90069 40.6671 7.30385C40.5834 7.19792 40.5834 7.19792 40.498 7.08985C40.0956 7.08985 39.5564 7.52688 39.209 7.71424Z" fill="#383838"/>
<path d="M3.22266 44.4727C3.78984 44.4727 4.35703 44.4727 4.94141 44.4727C4.96578 44.6942 4.99015 44.9158 5.01526 45.144C5.24308 46.7119 5.94542 47.8689 7.14062 48.8925C8.1443 49.6293 9.21725 49.993 10.4535 49.9847C10.5437 49.9844 10.6338 49.984 10.7267 49.9836C11.6709 49.967 12.3763 49.7351 13.2129 49.3066C13.3192 49.3066 13.4256 49.3066 13.5352 49.3066C13.7349 49.5773 13.7349 49.5773 13.938 49.931C14.0061 50.0469 14.0742 50.1628 14.1444 50.2822C14.2871 50.5957 14.2871 50.5957 14.1797 50.918C13.8742 51.0829 13.8742 51.0829 13.4814 51.2469C13.354 51.3014 13.2267 51.3558 13.0954 51.4119C11.4353 52.0414 9.37338 52.0163 7.73437 51.3477C7.62609 51.3046 7.5178 51.2615 7.40623 51.2172C5.68661 50.4467 4.35521 49.009 3.65234 47.2656C3.30932 46.3108 3.17323 45.4859 3.22266 44.4727Z" fill="#383838"/>
<path d="M12.6758 37.4901C12.6196 37.9359 12.5505 38.3487 12.4005 38.7725C12.3716 38.8554 12.3426 38.9384 12.3128 39.0238C12.2908 39.0849 12.2688 39.146 12.2461 39.2089C12.1745 39.1934 12.1029 39.1779 12.0292 39.1619C10.3164 38.8169 8.8068 39.0263 7.30469 39.9608C6.65748 40.4564 6.13163 40.993 5.69336 41.6796C5.50276 41.5796 5.31262 41.4787 5.12268 41.3775C5.01675 41.3214 4.91082 41.2653 4.80167 41.2075C4.5529 41.0595 4.37893 40.9281 4.18945 40.7128C5.4831 38.7795 7.12993 37.681 9.39941 37.1947C10.5566 37.1121 11.5523 37.2072 12.6758 37.4901Z" fill="#383838"/>
<path d="M15.4687 39.3164C16.5024 39.7758 16.9824 40.9077 17.4023 41.8945C17.9735 43.5684 18.1027 45.5664 17.3373 47.2052C17.2879 47.296 17.2384 47.3869 17.1875 47.4805C16.6293 47.3087 16.1062 47.0786 15.5762 46.8359C15.6227 46.6569 15.6227 46.6569 15.6702 46.4742C16.113 44.7234 16.1623 43.2446 15.214 41.6214C14.9686 41.2512 14.6975 40.93 14.3945 40.6055C14.5532 40.2346 14.7638 39.9986 15.0525 39.7192C15.1303 39.6434 15.2081 39.5675 15.2883 39.4893C15.3479 39.4322 15.4074 39.3752 15.4687 39.3164Z" fill="#383838"/>
<path d="M37.2754 39.209C39.5087 39.209 41.742 39.209 44.043 39.209C44.043 39.7762 44.043 40.3434 44.043 40.9277C41.8097 40.9277 39.5764 40.9277 37.2754 40.9277C37.2754 40.3605 37.2754 39.7934 37.2754 39.209Z" fill="#383838"/>
<path d="M30.5078 29.2188C32.6702 29.2188 34.8326 29.2188 37.0605 29.2188C37.0605 29.7859 37.0605 30.3531 37.0605 30.9375C34.8981 30.9375 32.7357 30.9375 30.5078 30.9375C30.5078 30.3703 30.5078 29.8031 30.5078 29.2188Z" fill="#383838"/>
<path d="M14.502 7.62695C16.6644 7.62695 18.8268 7.62695 21.0547 7.62695C21.0547 8.19414 21.0547 8.76133 21.0547 9.3457C18.8923 9.3457 16.7299 9.3457 14.502 9.3457C14.502 8.77852 14.502 8.21133 14.502 7.62695Z" fill="#383838"/>
<path d="M7.9492 41.25C8.36707 41.4109 8.53674 41.6479 8.78172 42.0154C8.88059 42.162 8.88059 42.162 8.98146 42.3116C9.03075 42.3867 9.08005 42.4617 9.13084 42.5391C9.08681 42.5949 9.04277 42.6507 8.9974 42.7082C8.93952 42.7831 8.88164 42.858 8.822 42.9352C8.76468 43.0087 8.70735 43.0822 8.64828 43.158C8.22827 43.7815 8.18618 44.3835 8.27147 45.1172C8.43719 45.6086 8.70984 45.9974 9.02342 46.4062C8.8702 46.6041 8.7155 46.8009 8.56016 46.9971C8.47417 47.1067 8.38818 47.2164 8.29958 47.3294C8.21941 47.4147 8.13923 47.5 8.05662 47.5879C7.73436 47.5879 7.73436 47.5879 7.55728 47.4452C6.64428 46.4289 6.33596 45.3858 6.39956 44.0434C6.49043 42.9521 7.06005 42.0969 7.84178 41.3574C7.87723 41.322 7.91268 41.2865 7.9492 41.25Z" fill="#383838"/>
<path d="M31.582 43.1836C33.3899 43.1836 35.1979 43.1836 37.0605 43.1836C37.0605 43.7508 37.0605 44.318 37.0605 44.9023C35.2526 44.9023 33.4447 44.9023 31.582 44.9023C31.582 44.3352 31.582 43.768 31.582 43.1836Z" fill="#383838"/>
<path d="M35.0195 25.9961C36.792 25.9961 38.5645 25.9961 40.3906 25.9961C40.3906 26.5633 40.3906 27.1305 40.3906 27.7148C38.6182 27.7148 36.8457 27.7148 35.0195 27.7148C35.0195 27.1477 35.0195 26.5805 35.0195 25.9961Z" fill="#383838"/>
<path d="M11.1719 10.8496C12.9443 10.8496 14.7168 10.8496 16.543 10.8496C16.543 11.4168 16.543 11.984 16.543 12.5684C14.7705 12.5684 12.998 12.5684 11.1719 12.5684C11.1719 12.0012 11.1719 11.434 11.1719 10.8496Z" fill="#383838"/>
<path d="M23.0957 46.9433C23.8434 46.9407 24.591 46.9387 25.3387 46.9374C25.5933 46.9369 25.8478 46.9362 26.1024 46.9352C26.4674 46.9339 26.8324 46.9333 27.1975 46.9328C27.312 46.9323 27.4266 46.9317 27.5447 46.9312C27.7027 46.9312 27.7027 46.9312 27.864 46.9311C27.9573 46.9309 28.0505 46.9307 28.1466 46.9304C28.3594 46.9433 28.3594 46.9433 28.4668 47.0508C28.4668 47.5825 28.4668 48.1142 28.4668 48.6621C26.6943 48.6621 24.9219 48.6621 23.0957 48.6621C23.0957 48.0949 23.0957 47.5277 23.0957 46.9433Z" fill="#383838"/>
<path d="M12.8906 44.4727C13.4578 44.4727 14.025 44.4727 14.6094 44.4727C14.5435 45.6254 14.2481 46.6337 13.4277 47.4805C12.4931 48.2734 11.6389 48.6127 10.4199 48.5547C10.4199 47.9875 10.4199 47.4203 10.4199 46.8359C10.5661 46.8094 10.7124 46.7828 10.863 46.7554C11.5352 46.6037 12.0159 46.29 12.45 45.7466C12.6843 45.3512 12.777 44.9152 12.8906 44.4727Z" fill="#383838"/>
<path d="M44.7949 45.7617C46.2483 45.7617 47.7018 45.7617 49.1992 45.7617C49.1992 46.3289 49.1992 46.8961 49.1992 47.4805C47.7458 47.4805 46.2924 47.4805 44.7949 47.4805C44.7949 46.9133 44.7949 46.3461 44.7949 45.7617Z" fill="#383838"/>
<path d="M40.1758 49.5215C41.4165 49.5215 42.6572 49.5215 43.9355 49.5215C43.9355 50.0887 43.9355 50.6559 43.9355 51.2402C42.6948 51.2402 41.4541 51.2402 40.1758 51.2402C40.1758 50.673 40.1758 50.1059 40.1758 49.5215Z" fill="#383838"/>
<path d="M25.1367 39.4238C26.2711 39.4238 27.4055 39.4238 28.5742 39.4238C28.5742 39.991 28.5742 40.5582 28.5742 41.1426C27.4398 41.1426 26.3055 41.1426 25.1367 41.1426C25.1367 40.5754 25.1367 40.0082 25.1367 39.4238Z" fill="#383838"/>
<path d="M10.4199 40.3906C11.581 40.4063 12.6598 40.8005 13.5284 41.5924C13.75 41.8945 13.75 41.8945 13.7441 42.1031C13.5987 42.4199 13.3874 42.5371 13.0988 42.7271C12.9507 42.8259 12.9507 42.8259 12.7996 42.9268C12.7233 42.9761 12.647 43.0254 12.5684 43.0762C12.2731 42.9351 12.0065 42.7762 11.7358 42.5928C11.306 42.3189 10.9182 42.2072 10.4199 42.1094C10.4199 41.5422 10.4199 40.975 10.4199 40.3906Z" fill="#383838"/>
<path d="M27.5 13.2129C27.7325 13.5229 27.9245 13.8045 28.111 14.1394C28.1814 14.2644 28.1814 14.2644 28.2532 14.392C28.3594 14.6094 28.3594 14.6094 28.3594 14.8242C28.1314 14.9501 27.9031 15.0753 27.6746 15.2002C27.6098 15.2361 27.5449 15.2719 27.4782 15.3089C26.9872 15.5762 26.9872 15.5762 26.748 15.5762C26.6222 15.3482 26.4969 15.1199 26.3721 14.8914C26.3183 14.7941 26.3183 14.7941 26.2634 14.695C25.9961 14.204 25.9961 14.204 25.9961 13.9648C26.4924 13.7167 26.9887 13.4686 27.5 13.2129Z" fill="#383838"/>
<path d="M32.9785 48.2324C33.5457 48.2324 34.1129 48.2324 34.6973 48.2324C34.6973 48.7996 34.6973 49.3668 34.6973 49.9512C34.1301 49.9512 33.5629 49.9512 32.9785 49.9512C32.9785 49.384 32.9785 48.8168 32.9785 48.2324Z" fill="#383838"/>
<path d="M46.6211 41.4648C47.1883 41.4648 47.7555 41.4648 48.3398 41.4648C48.3398 42.032 48.3398 42.5992 48.3398 43.1836C47.7727 43.1836 47.2055 43.1836 46.6211 43.1836C46.6211 42.6164 46.6211 42.0492 46.6211 41.4648Z" fill="#383838"/>
<path d="M31.582 37.168C32.1492 37.168 32.7164 37.168 33.3008 37.168C33.3008 37.7352 33.3008 38.3023 33.3008 38.8867C32.7336 38.8867 32.1664 38.8867 31.582 38.8867C31.582 38.3195 31.582 37.7523 31.582 37.168Z" fill="#383838"/>
<path d="M38.5645 29.2188C39.1316 29.2188 39.6988 29.2188 40.2832 29.2188C40.2832 29.7859 40.2832 30.3531 40.2832 30.9375C39.716 30.9375 39.1488 30.9375 38.5645 30.9375C38.5645 30.3703 38.5645 29.8031 38.5645 29.2188Z" fill="#383838"/>
<path d="M42.002 25.9961C42.5691 25.9961 43.1363 25.9961 43.7207 25.9961C43.7207 26.5633 43.7207 27.1305 43.7207 27.7148C43.1535 27.7148 42.5863 27.7148 42.002 27.7148C42.002 27.1477 42.002 26.5805 42.002 25.9961Z" fill="#383838"/>
<path d="M6.01562 24.1699C6.58281 24.1699 7.15 24.1699 7.73438 24.1699C7.73438 24.7371 7.73438 25.3043 7.73438 25.8887C7.16719 25.8887 6.6 25.8887 6.01562 25.8887C6.01562 25.3215 6.01562 24.7543 6.01562 24.1699Z" fill="#383838"/>
<path d="M7.8418 10.8496C8.40898 10.8496 8.97617 10.8496 9.56055 10.8496C9.56055 11.4168 9.56055 11.984 9.56055 12.5684C8.99336 12.5684 8.42617 12.5684 7.8418 12.5684C7.8418 12.0012 7.8418 11.434 7.8418 10.8496Z" fill="#383838"/>
<path d="M11.2793 7.62695C11.8465 7.62695 12.4137 7.62695 12.998 7.62695C12.998 8.19414 12.998 8.76133 12.998 9.3457C12.4309 9.3457 11.8637 9.3457 11.2793 9.3457C11.2793 8.77852 11.2793 8.21133 11.2793 7.62695Z" fill="#383838"/>
</g>
<defs>
<clipPath id="clip0_87_1532">
<rect width="55" height="55" fill="white"/>
</clipPath>
</defs>
</svg>
