<svg xmlns="http://www.w3.org/2000/svg" xmlns:xlink="http://www.w3.org/1999/xlink" viewBox="0 0 435.34 350.06"><defs><style>.cls-1,.cls-20,.cls-21,.cls-22,.cls-23,.cls-25,.cls-29,.cls-33,.cls-37,.cls-43{fill:none;}.cls-2{isolation:isolate;}.cls-12,.cls-3,.cls-4,.cls-5,.cls-7{fill:#b5c3df;}.cls-3{opacity:0.65;}.cls-4{opacity:0.36;}.cls-44,.cls-5{opacity:0.26;}.cls-6{fill:#dae5f0;}.cls-8{clip-path:url(#clip-path);}.cls-9{fill:#8998ad;}.cls-10{fill:#9dafca;}.cls-11,.cls-17,.cls-30,.cls-38{mix-blend-mode:multiply;}.cls-11{fill:url(#linear-gradient);}.cls-12{opacity:0.48;}.cls-13{fill:#36394e;}.cls-14,.cls-44{fill:#345d80;}.cls-15{fill:#e99c25;}.cls-16{fill:#f7c83c;}.cls-17,.cls-30,.cls-38{fill:#2c0a0c;}.cls-17{opacity:0.31;}.cls-18{fill:#349bd1;}.cls-19{fill:#fefefe;opacity:0.34;}.cls-20{stroke:#f7c83c;}.cls-20,.cls-21,.cls-22,.cls-23,.cls-25,.cls-29,.cls-33,.cls-37,.cls-43{stroke-miterlimit:10;}.cls-20,.cls-23{stroke-width:0.48px;}.cls-21,.cls-22,.cls-25{stroke:#36394e;}.cls-22{stroke-width:2px;}.cls-23{stroke:#1e1f0f;}.cls-24{fill:#3a3a52;}.cls-25,.cls-33,.cls-37{stroke-width:1.18px;}.cls-26{fill:#ef7d6e;}.cls-27{fill:#bfbfbf;}.cls-28,.cls-34{fill:#fff;}.cls-29,.cls-37{stroke:#61241e;}.cls-29{stroke-width:0.74px;}.cls-30{opacity:0.18;}.cls-31{fill:#335c80;}.cls-32{fill:#e8e8e8;}.cls-33{stroke:#345d80;}.cls-34{mix-blend-mode:overlay;opacity:0.37;}.cls-35{fill:#61241e;}.cls-36{fill:#1e1f0f;}.cls-37{stroke-linecap:round;}.cls-38{opacity:0.61;}.cls-39{fill:#f8b734;}.cls-40{fill:#f8c83c;}.cls-41{fill:#e89724;}.cls-42{fill:#b75c55;}.cls-43{stroke:#983533;stroke-width:0.59px;}</style><clipPath id="clip-path"><rect class="cls-1" x="114.61" y="114.39" width="43.91" height="159.29"/></clipPath><linearGradient id="linear-gradient" x1="218.44" y1="160.48" x2="218.44" y2="295.05" gradientUnits="userSpaceOnUse"><stop offset="0" stop-color="#fff"/><stop offset="1" stop-color="#024870"/></linearGradient></defs><g class="cls-2"><g id="Layer_2" data-name="Layer 2"><g id="OBJECTS"><path class="cls-3" d="M112.73,26.76a6.2,6.2,0,0,0,.45-2.33,6.28,6.28,0,0,0-9.2-5.56A10.48,10.48,0,0,0,89.43,10.6a15.34,15.34,0,0,0-29.06-.36A10.48,10.48,0,0,0,47.44,24.13L33.18,30.71h89.43Z"/><path class="cls-4" d="M354.42,38.73a4.4,4.4,0,0,0-4.1-6,4.3,4.3,0,0,0-2.05.51A7.38,7.38,0,0,0,341,26.76a7.27,7.27,0,0,0-2.92.61,10.79,10.79,0,0,0-20.44-.26,7.62,7.62,0,0,0-2.25-.35,7.35,7.35,0,0,0-6.84,10.12l-10,4.63h62.9Z"/><polygon class="cls-5" points="417.46 273.24 417.46 160.85 399.16 160.85 399.16 184.72 370.63 184.72 370.63 61.38 348.83 61.38 348.83 136.36 253.63 136.36 253.63 87 185.84 87 153.92 87 153.92 44.48 127.39 44.48 127.39 189.86 82.55 189.86 82.55 85.69 52.35 85.69 52.35 208.26 19.41 208.26 19.41 273.24 417.46 273.24"/><rect class="cls-6" x="114.61" y="114.39" width="43.91" height="159.29"/><rect class="cls-7" x="158.52" y="114.39" width="13.64" height="159.29"/><g class="cls-8"><rect class="cls-7" x="100.53" y="126.85" width="71.19" height="5.78" transform="translate(-51.87 134.25) rotate(-45)"/><rect class="cls-7" x="100.53" y="150.68" width="71.19" height="5.78" transform="translate(-68.72 141.23) rotate(-45)"/><rect class="cls-7" x="100.53" y="174.5" width="71.19" height="5.78" transform="translate(-85.56 148.21) rotate(-45)"/><rect class="cls-7" x="100.53" y="198.32" width="71.19" height="5.78" transform="translate(-102.41 155.19) rotate(-45)"/><rect class="cls-7" x="100.53" y="222.15" width="71.19" height="5.78" transform="translate(-119.25 162.16) rotate(-45)"/><rect class="cls-7" x="100.53" y="245.97" width="71.19" height="5.78" transform="translate(-136.1 169.14) rotate(-45)"/><rect class="cls-7" x="100.53" y="269.79" width="71.19" height="5.78" transform="translate(-152.95 176.12) rotate(-45)"/><rect class="cls-7" x="133.23" y="94.15" width="5.78" height="71.19" transform="translate(-51.87 134.25) rotate(-45)"/><rect class="cls-7" x="133.23" y="117.97" width="5.78" height="71.19" transform="translate(-68.72 141.23) rotate(-45)"/><rect class="cls-7" x="133.23" y="141.79" width="5.78" height="71.19" transform="translate(-85.56 148.21) rotate(-45)"/><rect class="cls-7" x="133.23" y="165.62" width="5.78" height="71.19" transform="translate(-102.41 155.19) rotate(-45)"/><rect class="cls-7" x="133.23" y="189.44" width="5.78" height="71.19" transform="translate(-119.25 162.16) rotate(-45)"/><rect class="cls-7" x="133.23" y="213.26" width="5.78" height="71.19" transform="translate(-136.1 169.14) rotate(-45)"/><rect class="cls-7" x="133.23" y="237.09" width="5.78" height="71.19" transform="translate(-152.95 176.12) rotate(-45)"/></g><rect class="cls-9" x="289.77" y="126.01" width="34.96" height="146.64"/><rect class="cls-7" x="289.77" y="126.01" width="17.48" height="146.64"/><rect class="cls-9" x="293.15" y="132.36" width="1.89" height="8.12"/><rect class="cls-9" x="301.66" y="132.36" width="1.89" height="8.12"/><rect class="cls-9" x="293.15" y="143.82" width="1.89" height="8.12"/><rect class="cls-9" x="301.66" y="143.82" width="1.89" height="8.12"/><rect class="cls-9" x="293.15" y="155.27" width="1.89" height="8.12"/><rect class="cls-9" x="301.66" y="155.27" width="1.89" height="8.12"/><rect class="cls-9" x="293.15" y="166.73" width="1.89" height="8.12"/><rect class="cls-9" x="301.66" y="166.73" width="1.89" height="8.12"/><rect class="cls-9" x="293.15" y="178.18" width="1.89" height="8.12"/><rect class="cls-9" x="301.66" y="178.18" width="1.89" height="8.12"/><rect class="cls-9" x="293.15" y="189.64" width="1.89" height="8.12"/><rect class="cls-9" x="301.66" y="189.64" width="1.89" height="8.12"/><rect class="cls-9" x="293.15" y="201.09" width="1.89" height="8.12"/><rect class="cls-9" x="301.66" y="201.09" width="1.89" height="8.12"/><rect class="cls-9" x="293.15" y="212.55" width="1.89" height="8.12"/><rect class="cls-9" x="301.66" y="212.55" width="1.89" height="8.12"/><rect class="cls-9" x="293.15" y="224" width="1.89" height="8.12"/><rect class="cls-9" x="301.66" y="224" width="1.89" height="8.12"/><rect class="cls-9" x="293.15" y="235.46" width="1.89" height="8.12"/><rect class="cls-9" x="301.66" y="235.46" width="1.89" height="8.12"/><rect class="cls-9" x="293.15" y="246.91" width="1.89" height="8.12"/><rect class="cls-9" x="301.66" y="246.91" width="1.89" height="8.12"/><rect class="cls-9" x="293.15" y="258.37" width="1.89" height="8.12"/><rect class="cls-9" x="301.66" y="258.37" width="1.89" height="8.12"/><rect class="cls-7" x="311" y="132.36" width="1.89" height="8.12"/><rect class="cls-7" x="319.5" y="132.36" width="1.89" height="8.12"/><rect class="cls-7" x="311" y="143.82" width="1.89" height="8.12"/><rect class="cls-7" x="319.5" y="143.82" width="1.89" height="8.12"/><rect class="cls-7" x="311" y="155.27" width="1.89" height="8.12"/><rect class="cls-7" x="319.5" y="155.27" width="1.89" height="8.12"/><rect class="cls-7" x="311" y="166.73" width="1.89" height="8.12"/><rect class="cls-7" x="319.5" y="166.73" width="1.89" height="8.12"/><rect class="cls-7" x="311" y="178.18" width="1.89" height="8.12"/><rect class="cls-7" x="319.5" y="178.18" width="1.89" height="8.12"/><rect class="cls-7" x="311" y="189.64" width="1.89" height="8.12"/><rect class="cls-7" x="319.5" y="189.64" width="1.89" height="8.12"/><rect class="cls-7" x="311" y="201.09" width="1.89" height="8.12"/><rect class="cls-7" x="319.5" y="201.09" width="1.89" height="8.12"/><rect class="cls-7" x="311" y="212.55" width="1.89" height="8.12"/><rect class="cls-7" x="319.5" y="212.55" width="1.89" height="8.12"/><rect class="cls-7" x="311" y="224" width="1.89" height="8.12"/><rect class="cls-7" x="319.5" y="224" width="1.89" height="8.12"/><rect class="cls-7" x="311" y="235.46" width="1.89" height="8.12"/><rect class="cls-7" x="319.5" y="235.46" width="1.89" height="8.12"/><rect class="cls-7" x="311" y="246.91" width="1.89" height="8.12"/><rect class="cls-7" x="319.5" y="246.91" width="1.89" height="8.12"/><rect class="cls-7" x="311" y="258.37" width="1.89" height="8.12"/><rect class="cls-7" x="319.5" y="258.37" width="1.89" height="8.12"/><rect class="cls-6" x="294.1" y="122.98" width="13.16" height="3.02"/><rect class="cls-7" x="307.25" y="122.98" width="12.25" height="3.02"/><rect class="cls-10" x="101.21" y="122.21" width="3.48" height="150.71"/><rect class="cls-7" x="97.73" y="122.21" width="3.48" height="150.71"/><rect class="cls-10" x="97.73" y="101.41" width="1.74" height="20.8"/><rect class="cls-7" x="101.21" y="101.41" width="1.74" height="20.8"/><rect class="cls-10" x="66.33" y="122.21" width="3.48" height="150.71"/><rect class="cls-7" x="62.85" y="122.21" width="3.48" height="150.71"/><rect class="cls-10" x="62.85" y="101.41" width="1.74" height="20.8"/><rect class="cls-7" x="66.33" y="101.41" width="1.74" height="20.8"/><rect class="cls-10" x="31.44" y="122.21" width="3.48" height="150.71"/><rect class="cls-7" x="27.96" y="122.21" width="3.48" height="150.71"/><rect class="cls-10" x="27.96" y="101.41" width="1.74" height="20.8"/><rect class="cls-7" x="31.44" y="101.41" width="1.74" height="20.8"/><rect class="cls-7" x="29.7" y="138.95" width="71.51" height="6.09"/><rect class="cls-7" x="29.7" y="159.2" width="71.51" height="6.09"/><rect class="cls-7" x="29.7" y="179.45" width="71.51" height="6.09"/><rect class="cls-7" x="29.7" y="199.7" width="71.51" height="6.09"/><rect class="cls-7" x="29.7" y="219.95" width="71.51" height="6.09"/><rect class="cls-7" x="29.7" y="240.2" width="71.51" height="6.09"/><rect class="cls-7" x="29.7" y="260.45" width="71.51" height="6.09"/><rect class="cls-10" x="207.49" y="35.95" width="61.57" height="236.69"/><rect class="cls-7" x="181.58" y="35.95" width="61.57" height="236.69"/><rect class="cls-6" x="181.58" y="21.04" width="8.52" height="251.61"/><rect class="cls-6" x="208.1" y="21.04" width="8.52" height="251.61"/><rect class="cls-6" x="234.62" y="21.04" width="8.52" height="251.61"/><rect class="cls-7" x="263.27" y="21.04" width="5.91" height="251.61"/><rect class="cls-7" x="250.67" y="21.04" width="5.91" height="251.61"/><rect class="cls-10" x="195.43" y="44.47" width="6.39" height="16.91"/><rect class="cls-10" x="195.43" y="70.09" width="6.39" height="16.91"/><rect class="cls-10" x="195.43" y="95.71" width="6.39" height="16.91"/><rect class="cls-10" x="195.43" y="121.33" width="6.39" height="16.91"/><rect class="cls-10" x="195.43" y="146.95" width="6.39" height="16.91"/><rect class="cls-10" x="195.43" y="172.57" width="6.39" height="16.91"/><rect class="cls-10" x="195.43" y="198.18" width="6.39" height="16.91"/><rect class="cls-10" x="195.43" y="223.8" width="6.39" height="16.91"/><rect class="cls-10" x="195.43" y="249.42" width="6.39" height="16.91"/><rect class="cls-10" x="222.06" y="44.47" width="6.39" height="16.91"/><rect class="cls-10" x="222.06" y="70.09" width="6.39" height="16.91"/><rect class="cls-10" x="222.06" y="95.71" width="6.39" height="16.91"/><rect class="cls-10" x="222.06" y="121.33" width="6.39" height="16.91"/><rect class="cls-10" x="222.06" y="146.95" width="6.39" height="16.91"/><rect class="cls-10" x="222.06" y="172.57" width="6.39" height="16.91"/><rect class="cls-10" x="222.06" y="198.18" width="6.39" height="16.91"/><rect class="cls-10" x="222.06" y="223.8" width="6.39" height="16.91"/><rect class="cls-10" x="222.06" y="249.42" width="6.39" height="16.91"/><rect class="cls-6" x="170.57" y="15.36" width="106.52" height="5.68"/><rect class="cls-7" x="198.62" y="6.83" width="52.05" height="8.52"/><rect class="cls-7" x="373.72" y="105.71" width="25.96" height="167.53"/><rect class="cls-6" x="332.59" y="105.71" width="42.36" height="167.53"/><rect class="cls-7" x="332.59" y="117.02" width="34.94" height="4.19"/><rect class="cls-7" x="332.59" y="126.69" width="34.94" height="4.19"/><rect class="cls-7" x="332.59" y="136.36" width="34.94" height="4.19"/><rect class="cls-7" x="332.59" y="146.04" width="34.94" height="4.19"/><rect class="cls-7" x="332.59" y="155.71" width="34.94" height="4.19"/><rect class="cls-7" x="332.59" y="165.38" width="34.94" height="4.19"/><rect class="cls-7" x="332.59" y="175.05" width="34.94" height="4.19"/><rect class="cls-7" x="332.59" y="184.72" width="34.94" height="4.19"/><rect class="cls-7" x="332.59" y="194.4" width="34.94" height="4.19"/><rect class="cls-7" x="332.59" y="204.07" width="34.94" height="4.19"/><rect class="cls-7" x="332.59" y="213.74" width="34.94" height="4.19"/><rect class="cls-7" x="332.59" y="223.41" width="34.94" height="4.19"/><rect class="cls-7" x="332.59" y="233.09" width="34.94" height="4.19"/><rect class="cls-7" x="332.59" y="242.76" width="34.94" height="4.19"/><rect class="cls-7" x="332.59" y="252.43" width="34.94" height="4.19"/><rect class="cls-7" x="332.59" y="262.1" width="34.94" height="4.19"/><rect class="cls-10" x="383.66" y="117.02" width="16.03" height="4.19"/><rect class="cls-10" x="383.66" y="126.69" width="16.03" height="4.19"/><rect class="cls-10" x="383.66" y="136.36" width="16.03" height="4.19"/><rect class="cls-10" x="383.66" y="146.04" width="16.03" height="4.19"/><rect class="cls-10" x="383.66" y="155.71" width="16.03" height="4.19"/><rect class="cls-10" x="383.66" y="165.38" width="16.03" height="4.19"/><rect class="cls-10" x="383.66" y="175.05" width="16.03" height="4.19"/><rect class="cls-10" x="383.66" y="184.72" width="16.03" height="4.19"/><rect class="cls-10" x="383.66" y="194.4" width="16.03" height="4.19"/><rect class="cls-10" x="383.66" y="204.07" width="16.03" height="4.19"/><rect class="cls-10" x="383.66" y="213.74" width="16.03" height="4.19"/><rect class="cls-10" x="383.66" y="223.41" width="16.03" height="4.19"/><rect class="cls-10" x="383.66" y="233.09" width="16.03" height="4.19"/><rect class="cls-10" x="383.66" y="242.76" width="16.03" height="4.19"/><rect class="cls-10" x="383.66" y="252.43" width="16.03" height="4.19"/><rect class="cls-10" x="383.66" y="262.1" width="16.03" height="4.19"/><path class="cls-11" d="M172.16,273.24h245.3V160.85H399.68v-.95h0v-4.19h0v-5.49h0V146h0v-5.49h0v-4.19h0v-5.48h0v-4.19h0v-5.48h0V117h0V105.71H370.63V61.38h-21.8v44.33H332.59v30.65h-7.86V126H319.5v-3H294.1v3h-4.33v10.35H269.19V21h7.9V15.36H250.67V6.83h-52v8.53H170.57V21h11V87H153.92V44.47H127.39v69.92h-2.53L113,102.53l-4.09,4.08,7.78,7.78h-2.08V128L113,126.35l-4.09,4.09,5.7,5.7v11l-5.7,5.7.7.69-.7.7,5.7,5.7v11l-5.7,5.7.7.7-.7.7,5.7,5.69v6.08h-9.92V122.21H103v-20.8h-1.74v20.8H99.47v-20.8H97.73V139H82.55V85.69H52.35V139H34.92V122.21H33.18v-20.8H31.44v20.8H29.7v-20.8H28V208.26H19.41v65H172.16ZM256.59,21h6.68V36h-6.68Zm-13.45,0h7.53V36h-7.53Zm-26.52,0h18V36h-18ZM190.1,21h18V36h-18ZM52.35,208.26H34.92v-2.47H52.35Zm0-8.56H34.92V185.54H52.35Zm0-20.25H34.92V165.28H52.35Zm0-20.25H34.92V145H52.35Zm45.38,30.66H82.55v-4.32H97.73Zm0-10.41H82.55V165.28H97.73Zm0-20.25H82.55V145H97.73Z"/><path class="cls-12" d="M148,296.09a3.53,3.53,0,0,1-3.54,3.54H9.27a3.53,3.53,0,0,1-3.54-3.54h0a3.53,3.53,0,0,1,3.54-3.54H144.5a3.53,3.53,0,0,1,3.54,3.54Z"/><rect class="cls-13" x="63.1" y="232.54" width="5.08" height="41.17" transform="translate(-126.08 75.29) rotate(-32.61)"/><rect class="cls-14" x="51.13" y="227.81" width="2.18" height="8.65" transform="translate(-116.89 64.76) rotate(-32.62)"/><rect class="cls-13" x="80.47" y="273.24" width="28.86" height="4.64"/><polygon class="cls-15" points="15.48 203.22 46.2 211.96 48.38 208.06 12.58 199.6 15.48 203.22"/><path class="cls-16" d="M86.35,241.21,59.9,217.45A20.08,20.08,0,0,0,50,212.62l-35.7-6.3a3.32,3.32,0,0,0-3.89,3.27v.06a3.31,3.31,0,0,0,2.13,3.09l34.23,13.12a25.12,25.12,0,0,1,7.32,4.35L83.45,255.3Z"/><path class="cls-17" d="M10.4,209.59v.06a3.31,3.31,0,0,0,2.13,3.09l10.41,4-.31-7.22c0-.61,0-1.18-.08-1.73l-8.26-1.46A3.32,3.32,0,0,0,10.4,209.59Z"/><path class="cls-16" d="M18.62,209.51l2.67,62.32L17,267.52,3,209.26c-1.59-6.6,5.37-12.2,11.32-9C16.8,201.64,18.62,204.38,18.62,209.51Z"/><polygon class="cls-17" points="76.4 249.28 83.45 255.3 86.35 241.22 80.59 236.04 76.4 249.28"/><path class="cls-16" d="M96,274.65H75.84a2.52,2.52,0,0,1-2.4-3.27l10-31.67a3.3,3.3,0,0,1,3.15-2.31h16a2.41,2.41,0,0,1,2.4,2.4v34.85Z"/><path class="cls-14" d="M46.2,212,49,206.27s7.05,3.66,6.5,8.17C47.17,215.8,46.2,212,46.2,212Z"/><path class="cls-18" d="M78.94,264.75l7.14-22.91a3.09,3.09,0,0,1,3-2.18H99a3.1,3.1,0,0,1,3.1,3.1V263.4a3.19,3.19,0,0,1-3.19,3.19H80.3A1.42,1.42,0,0,1,78.94,264.75Z"/><path class="cls-17" d="M74.19,269l-.75,2.37a2.52,2.52,0,0,0,2.4,3.27H105V269Z"/><rect class="cls-14" x="54.02" y="277.88" width="84.01" height="18.22" rx="9.02"/><rect class="cls-13" x="56.74" y="280.45" width="79.04" height="13.07" rx="6.47"/><path class="cls-14" d="M68.45,287.15a4.76,4.76,0,1,1-4.75-4.75A4.76,4.76,0,0,1,68.45,287.15Z"/><circle class="cls-14" cx="128.2" cy="287.15" r="4.76"/><path class="cls-14" d="M102.07,287.15a4.76,4.76,0,1,1-4.75-4.75A4.76,4.76,0,0,1,102.07,287.15Z"/><path class="cls-15" d="M56.74,227.84a5.27,5.27,0,1,1-5.27-5.27A5.26,5.26,0,0,1,56.74,227.84Z"/><path class="cls-15" d="M13.93,206.67a2.74,2.74,0,1,1-2.74-2.75A2.74,2.74,0,0,1,13.93,206.67Z"/><polygon class="cls-15" points="2.8 208.06 0 222.57 5.93 221.5 6.77 215.31 2.8 208.06"/><polygon class="cls-15" points="16.93 260.3 8.47 265.79 10.4 269.01 18.63 263.85 16.93 260.3"/><polygon class="cls-13" points="0 222.57 8.47 265.79 11.45 263.85 3.39 221.96 0 222.57"/><path class="cls-13" d="M21.29,271.83,35.8,293.52l7.5,2.58H19.83S8.47,294.8,8.47,287,15.48,273,21.29,271.83Z"/><polygon class="cls-15" points="10.4 269.01 15.48 277.88 18.63 276.75 12.03 265.79 10.4 269.01"/><path class="cls-19" d="M79.75,262.17l21.42-21.6a3.11,3.11,0,0,0-2.2-.91H89a3.09,3.09,0,0,0-3,2.18Z"/><path class="cls-13" d="M98.88,266.59a3.19,3.19,0,0,0,3.19-3.19V245.67H98.75L93.91,259.5h-5a1.75,1.75,0,0,0-1.75,1.75v0A1.75,1.75,0,0,0,88.87,263h3.69v3.55Z"/><line class="cls-20" x1="68.22" y1="280.45" x2="126.41" y2="280.45"/><path class="cls-16" d="M96,274.65v-16a3.31,3.31,0,0,1,3.3-3.31h25.88s12.9-.64,12.9,19.35Z"/><rect class="cls-13" x="108.36" y="249.02" width="12.58" height="6.29"/><rect class="cls-17" x="107.4" y="258.69" width="17.74" height="1.61" rx="0.8"/><rect class="cls-17" x="107.4" y="262.24" width="17.74" height="1.61" rx="0.8"/><rect class="cls-17" x="107.4" y="265.79" width="17.74" height="1.61" rx="0.8"/><path class="cls-17" d="M96,274.65H138c0-1,0-1.92-.09-2.82H96Z"/><path class="cls-12" d="M294.36,306.77a4.09,4.09,0,0,1,4.09-4.09H415.2a4.09,4.09,0,0,1,4.09,4.09h0a4.09,4.09,0,0,1-4.09,4.09H298.45a4.09,4.09,0,0,1-4.09-4.09Z"/><path class="cls-21" d="M419.29,157.34s-63.07,71.08-82.23,79"/><line class="cls-22" x1="417.72" y1="159.16" x2="378.72" y2="246.34"/><line class="cls-22" x1="428.89" y1="161.95" x2="386.56" y2="279.27"/><line class="cls-22" x1="419.29" y1="151.32" x2="422.89" y2="176.67"/><line class="cls-22" x1="412.7" y1="170.38" x2="416.56" y2="196.13"/><line class="cls-22" x1="403.06" y1="191.93" x2="406.91" y2="222.87"/><line class="cls-22" x1="393.22" y1="213.92" x2="397.71" y2="248.35"/><line class="cls-22" x1="384.9" y1="232.52" x2="390.46" y2="268.45"/><line class="cls-22" x1="432.05" y1="159.16" x2="412.7" y2="170.38"/><line class="cls-22" x1="422.89" y1="176.67" x2="403.06" y2="191.93"/><line class="cls-22" x1="416.56" y1="196.13" x2="393.22" y2="213.92"/><line class="cls-22" x1="406.91" y1="222.87" x2="385.16" y2="234.18"/><line class="cls-22" x1="398.22" y1="246.94" x2="378.72" y2="259"/><path class="cls-16" d="M416.56,158.67l13.66,6,4.63-10.89a6.25,6.25,0,0,0-3.17-8.12l-2.7-1.23a6.25,6.25,0,0,0-8.43,3.51Z"/><path class="cls-13" d="M432.05,152.76a4.58,4.58,0,1,1-4.58-4.58A4.58,4.58,0,0,1,432.05,152.76Z"/><rect class="cls-16" x="320.22" y="277.15" width="78" height="4.23"/><polygon class="cls-16" points="356.22 259 324.22 259 324.22 277.15 359.22 277.15 356.22 259"/><polygon class="cls-17" points="324.22 277.15 359.22 277.15 358.5 272.8 324.22 272.8 324.22 277.15"/><path class="cls-16" d="M353.22,277.15V239.64a5.47,5.47,0,0,1,5.46-5.46h17.57a5.47,5.47,0,0,1,5.39,4.58l6.25,38.39Z"/><polygon class="cls-17" points="353.22 277.15 387.89 277.15 386.47 268.45 353.22 268.45 353.22 277.15"/><path class="cls-18" d="M357.22,242.26v22.79h24.34l-3.16-23.24a3.34,3.34,0,0,0-3.3-2.88H360.55A3.33,3.33,0,0,0,357.22,242.26Z"/><rect class="cls-17" x="329.89" y="261.27" width="3.67" height="10.38"/><rect class="cls-17" x="335.22" y="261.27" width="3.67" height="10.38"/><rect class="cls-17" x="340.56" y="261.27" width="3.67" height="10.38"/><rect class="cls-17" x="345.89" y="261.27" width="3.67" height="10.38"/><rect class="cls-13" x="328.56" y="281.38" width="58" height="4.64"/><rect class="cls-13" x="314.56" y="286.02" width="90.33" height="19.98" rx="9.89"/><path class="cls-14" d="M330.89,296a6.67,6.67,0,1,1-6.67-6.66A6.67,6.67,0,0,1,330.89,296Z"/><path class="cls-14" d="M348.47,296a6.67,6.67,0,1,1-6.66-6.66A6.67,6.67,0,0,1,348.47,296Z"/><path class="cls-14" d="M366.06,296a6.67,6.67,0,1,1-6.67-6.66A6.67,6.67,0,0,1,366.06,296Z"/><path class="cls-14" d="M383.64,296a6.67,6.67,0,1,1-6.67-6.66A6.67,6.67,0,0,1,383.64,296Z"/><path class="cls-14" d="M401.22,296a6.67,6.67,0,1,1-6.66-6.66A6.67,6.67,0,0,1,401.22,296Z"/><path class="cls-13" d="M357.22,242.26l.06,0a11.13,11.13,0,0,1,5.28,9.46V259h5.54a2.46,2.46,0,0,1,2.46,2.46v.05a2.47,2.47,0,0,1-1.89,2.39l-4.78,1.15h-6.67Z"/><circle class="cls-13" cx="339.47" cy="244.44" r="8.42" transform="translate(23.81 518.93) rotate(-76.77)"/><rect class="cls-13" x="335.14" y="248.35" width="7.25" height="10.66"/><line class="cls-22" x1="430.22" y1="164.67" x2="430.22" y2="238.93"/><rect class="cls-16" x="427.47" y="238.93" width="4.58" height="8"/><path class="cls-14" d="M345.55,244.44a6.08,6.08,0,1,1-6.08-6.08A6.08,6.08,0,0,1,345.55,244.44Z"/><path class="cls-13" d="M433.42,250.51a3.66,3.66,0,1,1-3.66-3.66A3.66,3.66,0,0,1,433.42,250.51Z"/><path class="cls-19" d="M375.1,238.93h-1.22l-16.66,25.3v.82h24.34l-3.16-23.24A3.34,3.34,0,0,0,375.1,238.93Z"/><line class="cls-23" x1="324.22" y1="277.15" x2="387.89" y2="277.15"/><ellipse class="cls-12" cx="214.12" cy="341.29" rx="142.79" ry="8.77"/><polygon class="cls-14" points="297.02 205.55 297.22 213.98 297.22 331.11 262.75 331.11 262.75 202.84 297.02 205.55"/><polygon class="cls-14" points="324.89 205.55 325.08 213.98 325.08 331.11 290.62 331.11 290.62 202.84 324.89 205.55"/><path class="cls-24" d="M290.61,202.84V205l-27.86-2.2v14.67c7.45-1.41,22.33-4.47,25.22-7a120.81,120.81,0,0,0,37.11,14.45V214l-.19-8.43Z"/><path class="cls-24" d="M297.22,331.11v8.69H250.84s.13-8.69,11.91-8.69Z"/><path class="cls-24" d="M325.08,331.11v8.69H278.71s.13-8.69,11.9-8.69Z"/><path class="cls-13" d="M262.75,286.88a14.59,14.59,0,0,0,2.49.23,14.4,14.4,0,0,0,0-28.8,14.59,14.59,0,0,0-2.49.23Z"/><path class="cls-13" d="M290.61,286.88a14.81,14.81,0,0,0,2.5.23,14.4,14.4,0,0,0,0-28.8,14.81,14.81,0,0,0-2.5.23Z"/><line class="cls-25" x1="290.99" y1="208.99" x2="290.61" y2="331.11"/><path class="cls-24" d="M325.08,218.31l-9-1.56s6.16,28.71-4.37,63.84a147.61,147.61,0,0,0-6.19,50.52h19.54Z"/><path class="cls-26" d="M268.54,115.61a189.5,189.5,0,0,0-11,21.65c-5.62,13-12.14,27.19-12.14,27.19l-23.33-18.32a12.18,12.18,0,0,0-7.51-2.6h-11a2.19,2.19,0,0,0-2.18,2.18v0a2.19,2.19,0,0,0,2.18,2.18h7.77v9.28a16.67,16.67,0,0,0,5.29,12.17l25.13,23.45a10.6,10.6,0,0,0,16.3-2.26l10.41-17.25Z"/><path class="cls-27" d="M222.12,146.13a12.18,12.18,0,0,0-7.51-2.6h-11a2.19,2.19,0,0,0-2.18,2.18v0a2.19,2.19,0,0,0,2.18,2.18h7.77v9.28a16.67,16.67,0,0,0,5.29,12.17l7.16,6.68c8.78-2.6,12.91-11.31,14.71-17Z"/><path class="cls-28" d="M222.12,146.13a12.18,12.18,0,0,0-7.51-2.6h-11a2.19,2.19,0,0,0-2.18,2.18v0a2.19,2.19,0,0,0,2.18,2.18h7.77v9.28a16.67,16.67,0,0,0,5.29,12.17l4.94,4.61h0a24.74,24.74,0,0,0,14.41-16.93Z"/><line class="cls-29" x1="245.45" y1="164.45" x2="252.85" y2="170.08"/><path class="cls-30" d="M252.87,188.49a11.34,11.34,0,0,0-9.67,5.42,10.59,10.59,0,0,0,14.93-3.33l.36-.6A11.39,11.39,0,0,0,252.87,188.49Z"/><path class="cls-31" d="M252.8,148.16A49.66,49.66,0,0,1,268.54,157V115.61a189.5,189.5,0,0,0-11,21.65C256,140.91,254.36,144.66,252.8,148.16Z"/><path class="cls-16" d="M306.81,103.9l24.79,16.44s-6.52,19.54-6.52,46.48v47.36s-27.4,1.1-35.6-7.73c-16.79,5.66-27.45,4.77-27.45,4.77s3.85-92.36,6.51-95.61,23.39-10.49,23.39-10.49Z"/><path class="cls-32" d="M291.93,132.19a199.13,199.13,0,0,1,20.4-24.63l-5.52-3.66-14.88,1.22s-2.3.8-5.46,2C287.61,113.58,290,126.35,291.93,132.19Z"/><path class="cls-14" d="M263.64,176.84h61.44V168h-61C263.94,171,263.79,174,263.64,176.84Z"/><path class="cls-14" d="M315.63,109.75c-4.54,8.77-12.86,29.42-11.92,61.63l8.28-.24c-.85-29.31,6.53-48.47,10.62-56.75Z"/><path class="cls-14" d="M274.09,112.23c-1.44,21.14-2.25,57-2.29,58.94l8.29.18c0-.49,1-43,2.57-62.78C279.77,109.71,276.67,111,274.09,112.23Z"/><path class="cls-33" d="M289.48,206.45c-1-21.06,2.45-74.26,2.45-74.26"/><path class="cls-17" d="M325.08,214.18V197.36l-22,.64s-3.26,11,2.74,15A110.71,110.71,0,0,0,325.08,214.18Z"/><path class="cls-34" d="M327.76,117.8l-5.15-3.41-7-4.64h0l-8.82-5.85-14.88,1.22-.06,0-.1,0-.2.07-.07,0c-.66.23-2.07.73-3.88,1.41h0l-1.11.42h0l-3.81,1.46h0c-2.89,1.13-6,2.42-8.57,3.65h0c-2.68,1.27-4.81,2.48-5.55,3.38,0,0,3.71,42.09,27.1,34.61C318.17,143,314.93,122,327.76,117.8Z"/><path class="cls-35" d="M309.31,86.14l-.9,6.17a5.14,5.14,0,0,1-3.68,4.21l-.41.12V83.56l4.13-3.44Z"/><path class="cls-26" d="M306.81,92v14.8s-4,7.91-12.82,7.57-2.06-8.26-2.06-8.26v-7Z"/><path class="cls-26" d="M286.94,80.12l-1.13,18.29a3.82,3.82,0,0,0,4.1,4.06A28.22,28.22,0,0,0,304.14,97c1.9-2.75,1.72-14.36,1.72-14.36V77.88l-12.55-4.29-4.81,3.26Z"/><path class="cls-36" d="M291.93,106.1s10.81-4.73,12.21-9.12c.39-1.22-.92-1.92-3-2.29l-9.19,4.36Z"/><path class="cls-35" d="M304.14,97c1.9-2.75,1.72-14.36,1.72-14.36V77.88l-3.13-1.07a52.36,52.36,0,0,1-.29,9.33c-.85,6.71-1.05,6.54-2.94,7.23s-4.82-1.55-8.78-2.07a8.9,8.9,0,0,0-4.5.46l-.41,6.65a3.82,3.82,0,0,0,4.1,4.06A28.22,28.22,0,0,0,304.14,97Z"/><circle class="cls-26" cx="308.02" cy="89.84" r="3.7"/><ellipse class="cls-35" cx="292.83" cy="84.7" rx="0.8" ry="1.44"/><polyline class="cls-29" points="288.5 86.14 286.92 89.84 288.5 90.54"/><path class="cls-37" d="M290.76,81.45a4,4,0,0,1,4.88,0"/><path class="cls-38" d="M305.86,82.28v-4.4l-3.13-1.07-9.43-3.22-4.8,3.26-1.56,3.27-.22,3.6c3.91-.9,11.53-1.55,22.59,2.42l-.86-6Z"/><path class="cls-39" d="M286.94,80.12s2.75-4.3,10.67-1.89a23.15,23.15,0,0,1,11.7,7.91s1.72-7.74,0-12.21-13.94-10.5-23.23-2.07c-2.58,3.1-2.41,5-2.41,5Z"/><path class="cls-40" d="M294.81,77.61a17.27,17.27,0,0,1,2.8.62,23.15,23.15,0,0,1,11.7,7.91s1.72-7.74,0-12.21a5.41,5.41,0,0,0-.9-1.46,10.72,10.72,0,0,0-13.6,5.14Z"/><path class="cls-41" d="M286.94,80.12a29.24,29.24,0,0,1-7.23-5c-2.58-2.75,11.36-1.89,17.9,3.1C293.86,77.52,289.35,77.88,286.94,80.12Z"/><path class="cls-26" d="M331.6,120.34s4.73,2.68,12.73,19.7c4.74,10.1,10.95,23.45,15.21,32.63A12.6,12.6,0,0,1,354.23,189l-38.69,21.57a6.11,6.11,0,0,1-8.47-2.65,60.11,60.11,0,0,1-3.95-9.9,6.07,6.07,0,0,1,2.89-6.87l29.73-16.91-13.91-27.15S314.72,129.82,331.6,120.34Z"/><path class="cls-31" d="M344.33,140c-8-17-12.73-19.7-12.73-19.7-16.88,9.48-9.77,26.73-9.77,26.73l6.68,13c4.35-3.12,12.34-8.2,20.45-10.16C347.35,146.48,345.77,143.11,344.33,140Z"/><path class="cls-27" d="M322.81,181.58,306,191.13a6.07,6.07,0,0,0-2.89,6.87,60.11,60.11,0,0,0,3.95,9.9,6.11,6.11,0,0,0,8.47,2.65l18.13-10.11A42.24,42.24,0,0,0,322.81,181.58Z"/><path class="cls-28" d="M319.09,183.69,306,191.13a6.07,6.07,0,0,0-2.89,6.87,60.11,60.11,0,0,0,3.95,9.9,6.11,6.11,0,0,0,8.47,2.65l13.76-7.67C327.54,192.24,322.08,186.24,319.09,183.69Z"/><path class="cls-32" d="M319.09,183.69h-6.85a12.18,12.18,0,0,0-5.46,1.29l-.48.23a3.48,3.48,0,0,0-1.41,4.93l1.2,2Z"/><line class="cls-29" x1="335.74" y1="174.22" x2="344.8" y2="169.32"/><path class="cls-30" d="M352.07,180.88a10.75,10.75,0,0,0,3.07,7.54,12.61,12.61,0,0,0,4.4-15.75l-.82-1.76A10.81,10.81,0,0,0,352.07,180.88Z"/><path class="cls-30" d="M336.88,152.52c8.74,12.67,19.06,26.78,16.72,36.81l.63-.35a12.32,12.32,0,0,0,1.72-1.16l.13-.1c.24-.19.46-.4.68-.61l.18-.16c.2-.2.39-.41.58-.62s.13-.14.19-.22a7.68,7.68,0,0,0,.5-.63l.2-.27c.14-.21.28-.42.41-.63s.13-.22.2-.32.23-.43.34-.64l.18-.37.27-.63.15-.42c.08-.21.15-.41.21-.62s.09-.31.13-.46.1-.41.14-.62.06-.33.09-.5l.09-.59c0-.18,0-.36,0-.54s0-.39,0-.58,0-.38,0-.58,0-.36,0-.55l-.06-.61c0-.18,0-.35-.07-.52s-.08-.44-.13-.66-.06-.32-.1-.47-.14-.49-.21-.73-.08-.27-.12-.39c-.14-.38-.28-.74-.45-1.11l-.82-1.76c-3.18-6.85-7.22-15.54-10.93-23.47l-.09-.21c-.32-.67-.63-1.33-.93-2l-.33-.7-.82-1.75c-.09-.18-.17-.35-.25-.53l-1-2.22c-1-2.13-1.95-4-2.85-5.73a81.13,81.13,0,0,0-5.18-8.69c-.32-.46-.63-.88-.91-1.26-2.46-3.26-3.79-4-3.79-4S327,138.25,336.88,152.52Z"/><path class="cls-24" d="M169,331.11s12.84,2.37,12.84,8.69H158.35l.23-8.69Z"/><polygon class="cls-14" points="130.72 211.22 124.78 331.11 158.58 331.11 162.89 191.69 137.19 191.69 130.72 211.22"/><path class="cls-24" d="M158.58,191.69H137.19l-6.47,19.53-.28,5.53C135.76,216.74,155.78,215.1,158.58,191.69Z"/><path class="cls-14" d="M158.58,331.11H169l22.53-54.33a32.83,32.83,0,0,0,2-18.22l-11.7-66.87h-19Z"/><path class="cls-13" d="M139,192l-2.06.42-6.23,18.82-5.94,119.89h13.29c4.71-23.78,9.84-55,5.35-82.88A338.82,338.82,0,0,1,139,192Z"/><path class="cls-13" d="M160.31,275.08c3-4.7,5.62-10,4.87-13.53-.81-3.85-2.4-12.44-3.82-20.21Z"/><path class="cls-24" d="M124.78,331.11v8.69h42.59s-1.44-8.69-8.79-8.69Z"/><path class="cls-24" d="M187,221.21l-.41-2.33c-.62-3.53-1-5.51-1.16-6.61l0-.17-.22-1.23-3.36-19.18H165.18C166.65,197.62,172.21,215.45,187,221.21Z"/><path class="cls-13" d="M193.75,268.39c-.2-.14-13.74-9.43-23.65,1.94-3,3.45-6.63,10.48-10.21,18.62l-1.31,42.16H169l22.53-54.33A32.81,32.81,0,0,0,193.75,268.39Z"/><rect class="cls-32" x="149.96" y="107.32" width="22.99" height="84.37"/><path class="cls-16" d="M156.13,103.9,134,110.15l-3.26,101.07h3.19a21.74,21.74,0,0,0,21.74-21.62Z"/><path class="cls-16" d="M167.37,103.9l22,8v99.27h-.22a21.74,21.74,0,0,1-21.74-21.74Z"/><path class="cls-42" d="M134,110.15s-7.11,4.57-10.07,19.67c-1.93,9.87-5.77,35.8-8.19,52.58a13.31,13.31,0,0,0,13.18,15.21h1.82Z"/><path class="cls-31" d="M121,147.06a74.85,74.85,0,0,1,11.57.88L134,110.15s-7.11,4.57-10.07,19.67C123.16,133.64,122.13,139.88,121,147.06Z"/><path class="cls-42" d="M189.33,112s3.26,2.47,6.81,12.84c2.63,7.65,8.81,38,11.86,53.25a8.73,8.73,0,0,1-7.21,10.32l-.18,0a8.72,8.72,0,0,1-10-7.26l-1.31-8.38Z"/><polygon class="cls-31" points="158.58 113.34 161.46 118.38 159.47 176.6 161.75 182.19 165.13 175.25 164.24 118.97 166.21 113.34 162.89 111.95 158.58 113.34"/><path class="cls-31" d="M201,144.54c-1.94-8.8-3.76-16.42-4.9-19.75-3.55-10.37-6.81-12.84-6.81-12.84v32.52C192.77,144.56,197.51,144.64,201,144.54Z"/><polygon class="cls-32" points="162.89 111.95 156.05 117.39 156.13 105.12 162.89 111.95"/><polygon class="cls-32" points="167.37 103.9 167.3 116.85 162.89 111.95 167.37 103.9"/><line class="cls-25" x1="162.89" y1="191.69" x2="158.58" y2="331.11"/><rect class="cls-14" x="167.37" y="180.38" width="21.96" height="5.8"/><polygon class="cls-14" points="131.53 186.19 155.67 186.19 155.7 180.38 131.71 180.38 131.53 186.19"/><polygon class="cls-26" points="156.13 90.3 156.13 105.12 162.89 111.95 167.37 103.9 167.37 93.77 156.13 90.3"/><path class="cls-36" d="M157.76,94.89s6.53,5.6,9.61,6.92V94.89Z"/><path class="cls-35" d="M149,84s1.32,9.48,2.87,10.91a8.51,8.51,0,0,0,4.4,1.65l1.55-15.86-6.61,1.54Z"/><path class="cls-26" d="M157.79,87.1a3.92,3.92,0,1,1-3.92-3.91A3.92,3.92,0,0,1,157.79,87.1Z"/><path class="cls-26" d="M173,79.3V95A3.55,3.55,0,0,1,169,98.54c-3.89-.42-9.53-1.4-11.28-3.65-2.77-3.56-2.18-15.59-2.18-15.59Z"/><path class="cls-35" d="M169,85.53c0,.87-.37,1.57-.82,1.57s-.83-.7-.83-1.57.37-1.57.83-1.57S169,84.67,169,85.53Z"/><polyline class="cls-43" points="171.78 85.89 172.95 90.35 170.46 90.35"/><path class="cls-35" d="M168.78,79.89s3.43,1.49,6.13.77.28-2.1.28-2.1l-5-1.22Z"/><path class="cls-37" d="M169,82.05a3.47,3.47,0,0,0-3.45.31"/><path class="cls-35" d="M155.53,82.58s-.08,6.4.52,6.35a3.54,3.54,0,0,0,2.53-3.17,16.79,16.79,0,0,0,0-4.4Z"/><path class="cls-34" d="M173,95V82.36s-11.09,2.5-10.06,15.12A44.08,44.08,0,0,0,169,98.54,3.55,3.55,0,0,0,173,95Z"/><path class="cls-38" d="M174.91,80.66c2.7-.72.28-2.1.28-2.1l-5-1.22-1.08,2H155.58s0,.73,0,1.88l-4.36,1L149,84s16.54-.51,24-1.6V80.84A6.43,6.43,0,0,0,174.91,80.66Z"/><path class="cls-39" d="M149,84l28.32-5.84L172,75.48s-2.42-12.56-16.47-7.82C144.68,71.07,149,84,149,84Z"/><path class="cls-40" d="M159.55,71.84a14.82,14.82,0,0,0-11.37,5.3A19.59,19.59,0,0,0,149,84l23.36-4.81A14.85,14.85,0,0,0,159.55,71.84Z"/><path class="cls-41" d="M149,84l28.32-5.84L172,75.48S157.38,80.06,148.49,82A17.52,17.52,0,0,0,149,84Z"/><path class="cls-28" d="M127.49,110.15s37.36,1.27,40.83.24,32.75-7,32.75-7l1.17,47.6s-34.09,3.81-42.43,4.4-29.71-2.11-29.71-2.11Z"/><path class="cls-44" d="M191.09,152.22l-1-15.68-4.72-8.27-3.55,8.06s-6.59,2-8.88,7.2a91.88,91.88,0,0,0-3.62,11C176,153.85,184.44,152.94,191.09,152.22Z"/><path class="cls-44" d="M156.13,143.53l-6.59,11.65c-9.1-.6-19.44-1.9-19.44-1.9S148,136.93,149,140,156.13,143.53,156.13,143.53Z"/><path class="cls-26" d="M118.29,177.18l29-37.69a2.89,2.89,0,0,1,4-.57l0,0a2.89,2.89,0,0,1,.81,3.77l-4,6.93,6.54-6.05a2.31,2.31,0,0,1,3-.11l0,0a2.32,2.32,0,0,1,.41,3.2l-2,2.65.91,5.35a10.89,10.89,0,0,1-1.83,8.08l-24.49,34.82a15,15,0,0,1-12.43-5.3C112.66,186.06,118.29,177.18,118.29,177.18Z"/><line class="cls-29" x1="156.13" y1="149.36" x2="152.33" y2="155.68"/><path class="cls-30" d="M116.82,182.19c-.2,0-.4,0-.59,0-.75,3-.82,6.9,2.06,10.09a15.77,15.77,0,0,0,8.23,5,10.65,10.65,0,0,0-9.7-15.09Z"/><path class="cls-26" d="M210.42,171.89l-20.14-43.06a2.88,2.88,0,0,0-3.77-1.42l0,0a2.88,2.88,0,0,0-1.6,3.5l2.37,7.63-5.08-7.32a2.3,2.3,0,0,0-2.91-.76l0,0a2.32,2.32,0,0,0-1.09,3l1.38,3-2.05,5a10.92,10.92,0,0,0,0,8.29l15.24,36.53a5.42,5.42,0,0,0,4.9,3.34,15.78,15.78,0,0,0,9.53-3.07C214,181.77,210.42,171.89,210.42,171.89Z"/><line class="cls-29" x1="179.49" y1="136.54" x2="181.83" y2="143.53"/><path class="cls-30" d="M210.77,177.1c.2,0,.38.1.57.15.08,3.12-.69,6.92-4.19,9.41a15.85,15.85,0,0,1-9.11,3.07,10.65,10.65,0,0,1,12.73-12.63Z"/><path class="cls-34" d="M190.28,128.83a2.89,2.89,0,0,0-3.26-1.59c.29,1.28,4.46,19.74,8.16,33.33,2.51,9.2,10.21,17.38,15.26,22,2-4.89,0-10.63,0-10.63Z"/></g></g></g></svg>