<svg width="55" height="55" viewBox="0 0 55 55" fill="none" xmlns="http://www.w3.org/2000/svg">
<g clip-path="url(#clip0_87_1459)">
<path d="M20.3778 -0.100766C20.4973 -0.102401 20.6168 -0.104037 20.7398 -0.105722C20.9918 -0.108036 21.2438 -0.108659 21.4958 -0.107689C21.8778 -0.107481 22.2588 -0.116413 22.6406 -0.125943C23.9276 -0.139419 24.8742 -0.130374 25.8279 0.793123C25.9643 0.932237 25.9643 0.932237 26.1035 1.07416C26.335 1.2541 26.5734 1.41804 26.8152 1.58442C26.8838 1.63308 26.9524 1.68174 27.0231 1.73188C27.1075 1.79161 27.1075 1.79161 27.1937 1.85255C27.6671 2.18933 28.134 2.53476 28.6011 2.88019C29.2696 3.37438 29.9405 3.8649 30.6152 4.35053C31.7103 5.139 32.7953 5.94086 33.8804 6.74287C34.794 7.41796 35.709 8.09098 36.6309 8.75483C37.7259 9.54333 38.8109 10.3452 39.896 11.1472C40.0674 11.2738 40.2388 11.4004 40.4102 11.5269C40.5795 11.6519 40.7487 11.7769 40.9178 11.9021C41.3522 12.2228 41.789 12.5394 42.2302 12.8507C42.3192 12.9138 42.4081 12.9768 42.4998 13.0418C42.6696 13.1619 42.8398 13.2812 43.0107 13.3996C43.0868 13.4534 43.1628 13.5073 43.2411 13.5628C43.308 13.6095 43.3749 13.6562 43.4438 13.7043C43.6133 13.8574 43.6133 13.8574 43.8281 14.2871C43.5445 14.677 43.2609 15.0669 42.9687 15.4687C42.5391 15.3613 42.5391 15.3613 41.3574 14.5019C41.322 16.6643 41.2865 18.8267 41.25 21.0546C41.8172 21.0546 42.3844 21.0546 42.9687 21.0546C44.91 21.4492 46.5361 22.3315 47.6774 23.9719C48.3325 24.9714 48.6901 25.9859 48.7695 27.1777C48.8404 27.1777 48.9113 27.1777 48.9844 27.1777C49.3163 27.5734 49.3551 27.9192 49.3385 28.4156C49.276 28.9373 49.1435 29.4883 48.8731 29.9429C48.7367 30.2625 48.742 30.5249 48.7402 30.872C48.7373 31.0749 48.7373 31.0749 48.7344 31.282C48.7337 31.353 48.7329 31.424 48.7322 31.4971C48.7071 33.386 48.4754 34.8912 47.4805 36.5234C48.0543 36.8176 48.6299 37.0811 49.2282 37.3211C49.3962 37.3896 49.5643 37.4582 49.7323 37.5269C49.9923 37.6327 50.2524 37.7382 50.5129 37.8428C52.3591 38.5858 53.7432 39.2894 54.6496 41.1396C55.0011 41.9828 55.0289 42.6967 55.021 43.6061C55.0205 43.8048 55.0205 43.8048 55.0201 44.0075C55.0189 44.4289 55.0162 44.8502 55.0134 45.2716C55.0122 45.5579 55.0114 45.8443 55.0105 46.1307C55.0081 46.8313 55.0044 47.5318 55 48.2324C54.4328 48.2324 53.8656 48.2324 53.2812 48.2324C53.2802 48.0617 53.2792 47.8911 53.2782 47.7152C53.2739 47.0792 53.2668 46.4431 53.259 45.8071C53.2559 45.5324 53.2536 45.2576 53.2521 44.9829C53.2498 44.5868 53.2448 44.1909 53.2393 43.7949C53.2391 43.6121 53.2391 43.6121 53.2389 43.4255C53.2252 42.6772 53.1106 42.1191 52.7441 41.4648C52.6799 41.3496 52.6156 41.2344 52.5494 41.1157C52.122 40.5783 51.66 40.3221 51.0254 40.0683C50.9899 44.9958 50.9545 49.9232 50.918 55C50.3508 55 49.7836 55 49.1992 55C49.1992 52.0931 49.1992 49.1863 49.1992 46.1914C44.4845 46.1914 39.7697 46.1914 34.9121 46.1914C34.9121 49.0982 34.9121 52.005 34.9121 55C34.3449 55 33.7777 55 33.1934 55C33.1579 50.0725 33.1225 45.1451 33.0859 40.0683C32.1468 40.5379 31.4036 41.0899 31.0396 42.0999C30.8882 42.649 30.9044 43.2024 30.9032 43.7683C30.9022 43.8899 30.9011 44.0115 30.9 44.1369C30.8967 44.5373 30.8948 44.9378 30.893 45.3383C30.891 45.6166 30.8889 45.8949 30.8867 46.1732C30.8818 46.8298 30.8777 47.4864 30.8742 48.1431C30.8701 48.891 30.8648 49.6389 30.8594 50.3868C30.8483 51.9245 30.8387 53.4622 30.8301 55C30.2629 55 29.6957 55 29.1113 55C29.1113 52.2704 29.1113 49.5408 29.1113 46.7285C20.3199 46.7285 11.5285 46.7285 2.4707 46.7285C2.4707 39.8159 2.4707 32.9033 2.4707 25.7812C3.03789 25.7812 3.60508 25.7812 4.18945 25.7812C4.18945 32.1621 4.18945 38.5429 4.18945 45.1171C12.4137 45.1171 20.6379 45.1171 29.1113 45.1171C29.1113 44.1955 29.1113 43.2738 29.1113 42.3242C29.1468 42.1469 29.1822 41.9697 29.2187 41.7871C29.1323 41.7804 29.0459 41.7738 28.9569 41.7669C28.0097 41.5509 27.356 40.953 26.6935 40.2743C26.6108 40.1913 26.5281 40.1083 26.4429 40.0227C26.1811 39.7592 25.9208 39.4941 25.6604 39.2291C25.485 39.0524 25.3094 38.8758 25.1338 38.6993C24.9643 38.5284 24.7949 38.3574 24.6256 38.1863C24.5479 38.1079 24.4703 38.0294 24.3902 37.9485C23.9669 37.5173 23.5621 37.0757 23.1671 36.6185C22.8918 36.3067 22.5993 36.0137 22.3039 35.7211C22.243 35.6603 22.182 35.5995 22.1193 35.5369C21.928 35.3463 21.7364 35.156 21.5448 34.9658C21.4136 34.8352 21.2825 34.7045 21.1514 34.5738C20.833 34.2566 20.5142 33.9397 20.1953 33.623C19.6779 34.0537 19.1927 34.5048 18.7208 34.9847C18.619 35.0875 18.619 35.0875 18.5151 35.1924C18.369 35.34 18.223 35.4877 18.0771 35.6355C17.8457 35.8698 17.6138 36.1036 17.3818 36.3373C16.7224 37.0012 16.0634 37.6653 15.4061 38.3312C15.0029 38.7397 14.5987 39.1471 14.1937 39.5538C14.0402 39.7083 13.8871 39.8633 13.7344 40.0186C13.5206 40.2361 13.3054 40.4522 13.09 40.668C13.0279 40.7317 12.9659 40.7955 12.902 40.8611C12.0724 41.6847 11.2361 41.928 10.0819 41.928C9.05662 41.9063 8.36143 41.5416 7.62485 40.8442C6.78314 39.8995 6.69284 38.9121 6.75069 37.6972C6.89115 35.9758 9.01476 34.4765 10.1627 33.3326C10.332 33.1635 10.5013 32.9943 10.6706 32.8251C11.112 32.3841 11.5538 31.9434 11.9956 31.5028C12.4481 31.0515 12.9002 30.5998 13.3524 30.1481C14.2366 29.2651 15.1211 28.3824 16.0059 27.4999C15.8893 27.1504 15.8356 27.104 15.5598 26.8852C15.1068 26.5022 14.7095 26.0814 14.3068 25.6473C14.1002 25.4286 13.8931 25.2103 13.6859 24.9921C13.5451 24.8423 13.4056 24.6911 13.2676 24.5386C12.4868 23.5928 12.4868 23.5928 11.4096 23.1831C11.2766 23.2028 11.1436 23.2226 11.0065 23.2429C10.6053 23.2849 10.6053 23.2849 10.2051 23.2031C9.51881 22.6205 9.07794 21.7593 8.61389 21.0009C8.48076 20.7926 8.34712 20.5846 8.21295 20.377C7.8916 19.8768 7.5767 19.373 7.26466 18.8671C7.04529 18.5118 6.82371 18.1579 6.60197 17.8041C6.40605 17.4914 6.21082 17.1783 6.01562 16.8652C6.53602 16.2496 7.07784 15.6618 7.64308 15.0868C7.74509 14.9824 7.84642 14.8774 7.94709 14.7718C8.09407 14.6176 8.24338 14.4657 8.39275 14.3139C8.48035 14.2236 8.56794 14.1333 8.65819 14.0403C8.91601 13.8574 8.91601 13.8574 9.17103 13.8819C9.46676 13.9688 9.67151 14.0789 9.92753 14.2493C10.018 14.3089 10.1084 14.3685 10.2016 14.4299C10.2981 14.4948 10.3947 14.5597 10.4942 14.6265C10.5953 14.6935 10.6964 14.7604 10.8005 14.8294C11.124 15.0439 11.4467 15.2597 11.7694 15.4754C12.0889 15.6877 12.4085 15.8998 12.7283 16.1117C12.9342 16.2488 13.1395 16.3867 13.3441 16.5256C13.7607 16.8075 14.1709 17.0837 14.6177 17.3154C15.2218 17.6434 15.2218 17.6434 15.4687 17.9394C15.5057 18.3484 15.4709 18.7289 15.4373 19.1378C15.4981 19.9354 16.1392 20.3912 16.7041 20.8935C16.8214 21.0036 16.9383 21.1141 17.0549 21.225C17.6018 21.7413 18.1666 22.2374 18.7348 22.73C18.9434 22.9135 19.1415 23.1053 19.3359 23.3038C19.398 23.3668 19.46 23.4298 19.5239 23.4947C19.5904 23.563 19.5904 23.563 19.6582 23.6328C20.6237 23.1972 21.5734 22.2668 22.1289 21.3769C22.2898 20.7299 22.1109 20.1061 21.9602 19.4715C21.7007 18.1048 22.4665 16.5283 23.2107 15.428C24.3754 13.8459 25.9646 12.7043 27.9297 12.3535C29.6719 12.1892 31.1568 12.4466 32.7637 13.1054C32.6183 13.433 32.4584 13.6479 32.1973 13.8922C32.126 13.9597 32.0547 14.0272 31.9812 14.0967C31.8661 14.2046 31.8661 14.2046 31.7486 14.3147C31.5871 14.4699 31.4258 14.6251 31.2646 14.7805C31.0106 15.0246 30.7559 15.2676 30.4986 15.508C30.25 15.7409 30.0055 15.9774 29.7613 16.2148C29.6839 16.2854 29.6065 16.3561 29.5267 16.4289C29.1209 16.8271 29.1209 16.8271 28.9794 17.361C29.0051 17.6332 29.049 17.8883 29.1113 18.1542C29.1303 18.2664 29.1493 18.3786 29.1688 18.4941C29.1875 18.5814 29.2062 18.6686 29.2255 18.7585C29.2444 18.8485 29.2634 18.9385 29.2829 19.0312C29.2972 19.0963 29.3115 19.1614 29.3262 19.2285C29.4828 19.2598 29.6395 19.2911 29.7961 19.3225C30.4004 19.4433 30.4004 19.4433 30.6364 19.5251C31.1841 19.6903 31.1841 19.6903 31.713 19.5311C31.9573 19.3195 32.1734 19.096 32.3906 18.8567C32.4718 18.7729 32.553 18.6892 32.6366 18.6029C32.8948 18.3354 33.1482 18.0638 33.4015 17.7917C33.6583 17.5212 33.916 17.2517 34.1744 16.9828C34.3349 16.8154 34.4942 16.6468 34.6522 16.4771C34.724 16.4012 34.7957 16.3252 34.8697 16.2469C34.9325 16.1795 34.9954 16.112 35.0601 16.0426C35.2344 15.8984 35.2344 15.8984 35.5566 15.8984C35.6622 16.2093 35.7673 16.5204 35.8722 16.8316C35.902 16.9193 35.9319 17.0071 35.9626 17.0974C36.613 19.033 36.4488 21.0126 35.5499 22.8405C35.1176 23.6019 34.5631 24.2022 33.9453 24.8144C33.8851 24.8782 33.8248 24.9421 33.7628 25.0078C32.4606 26.2758 30.5935 26.6716 28.8547 26.6666C28.4152 26.66 28.0091 26.6375 27.5785 26.5487C27.1615 26.4912 27.1615 26.4912 26.8353 26.7811C26.732 26.8908 26.6313 27.003 26.5332 27.1173C26.4807 27.1741 26.4282 27.2309 26.3742 27.2895C26.2458 27.4292 26.1206 27.5717 25.9961 27.7148C26.1481 28.0611 26.3306 28.2902 26.6003 28.554C26.6682 28.6212 26.736 28.6883 26.806 28.7575C26.9472 28.8891 27.0893 29.02 27.2366 29.1448C28.1075 29.8837 28.8937 30.7135 29.6963 31.5246C30.6801 32.5236 30.6801 32.5236 31.7193 33.4638C32.0526 33.7506 32.3642 34.0589 32.6764 34.3682C32.7397 34.4294 32.8031 34.4905 32.8684 34.5535C33.4459 35.1259 33.9187 35.75 34.14 36.5435C34.1651 36.6292 34.1901 36.715 34.216 36.8033C34.2676 37.0605 34.2676 37.0605 34.2676 37.5976C35.012 37.2786 35.7564 36.9595 36.5234 36.6308C36.5234 36.2493 36.4401 36.1607 36.228 35.852C35.4691 34.6135 35.3892 33.2745 35.3955 31.864C35.4205 30.5965 35.4205 30.5965 35.0147 29.4131C34.8202 29.0446 34.7833 28.6775 34.7711 28.2653C34.7671 28.177 34.7631 28.0886 34.7589 27.9976C34.8206 27.6166 35.0203 27.389 35.2344 27.0703C35.3496 26.7058 35.3496 26.7058 35.4291 26.3183C35.877 24.4957 36.86 23.0823 38.4323 22.0575C39.2099 21.5917 39.2099 21.5917 39.5312 21.5917C39.5496 20.5038 39.5604 19.4161 39.5616 18.328C39.5624 17.8226 39.5657 17.3175 39.5751 16.8122C39.584 16.3238 39.586 15.8359 39.5834 15.3474C39.5836 15.1618 39.5862 14.9762 39.5914 14.7906C39.6437 13.8068 39.6437 13.8068 39.287 12.9232C38.9114 12.5525 38.482 12.2941 38.0273 12.0312C37.8633 11.9141 37.7003 11.7955 37.5397 11.6737C37.3936 11.5689 37.2473 11.4642 37.1008 11.3598C36.4214 10.8722 35.7457 10.38 35.0732 9.88276C34.4137 9.39531 33.7516 8.9117 33.0859 8.43256C31.9909 7.64408 30.9059 6.84223 29.8208 6.04022C28.8293 5.30759 27.8352 4.579 26.8347 3.85861C26.2102 3.40838 25.5888 2.95395 24.9689 2.4975C24.8799 2.43207 24.7909 2.36664 24.6993 2.29923C24.6175 2.23893 24.5357 2.17862 24.4515 2.11649C24.3788 2.06293 24.3062 2.00938 24.2314 1.9542C24.0625 1.82611 24.0625 1.82611 23.9551 1.71869C23.3972 1.67396 22.8391 1.66189 22.2797 1.65158C22.0919 1.64714 21.9041 1.64058 21.7165 1.63175C20.4778 1.57445 19.7115 1.65933 18.777 2.51069C18.6778 2.60383 18.5787 2.69696 18.4766 2.79291C18.244 2.97079 18.0057 3.13626 17.7649 3.30317C17.6963 3.35183 17.6277 3.40049 17.557 3.45063C17.4726 3.51036 17.4726 3.51036 17.3864 3.5713C16.913 3.90808 16.4461 4.25351 15.979 4.59894C15.3105 5.09313 14.6396 5.58365 13.9648 6.06928C12.9564 6.79542 11.9564 7.53281 10.957 8.27143C9.87945 9.06786 8.80013 9.86138 7.71242 10.6439C7.01244 11.1483 6.31801 11.6599 5.62538 12.1743C5.54534 12.2336 5.46531 12.2928 5.38284 12.3539C5.31302 12.4057 5.24319 12.4576 5.17125 12.5111C4.94141 12.6757 4.94141 12.6757 4.60996 12.8337C4.26888 13.1297 4.24998 13.1608 4.21529 13.5812C4.21151 13.7807 4.2113 13.9802 4.21384 14.1797C4.2127 14.2888 4.21156 14.3978 4.21038 14.5101C4.20736 14.8705 4.20888 15.2308 4.21043 15.5912C4.20923 15.8411 4.20773 16.0909 4.20597 16.3408C4.20209 16.9985 4.20206 17.6561 4.20282 18.3138C4.20292 18.9849 4.19939 19.6559 4.19617 20.327C4.19037 21.6438 4.18864 22.9605 4.18945 24.2773C3.62227 24.2773 3.05508 24.2773 2.4707 24.2773C2.4707 21.0514 2.4707 17.8255 2.4707 14.5019C2.00986 14.8209 1.54902 15.14 1.07422 15.4687C1.00332 15.4687 0.932422 15.4687 0.859375 15.4687C0.704607 15.2773 0.558045 15.0791 0.41626 14.8779C0.299527 14.7134 0.299527 14.7134 0.180435 14.5455C0.120892 14.4602 0.061348 14.3749 0 14.2871C0.148415 13.9371 0.302901 13.7599 0.610542 13.5393C0.731858 13.4512 0.731858 13.4512 0.855625 13.3614C0.94327 13.299 1.03091 13.2367 1.12122 13.1726C1.30782 13.0376 1.49441 12.9026 1.68098 12.7676C1.82446 12.6645 1.82446 12.6645 1.97083 12.5592C2.411 12.2415 2.8468 11.9179 3.28308 11.5948C4.01966 11.0512 4.76034 10.5136 5.5033 9.97882C6.08879 9.55684 6.67056 9.13004 7.25098 8.70112C7.91056 8.21369 8.57265 7.73006 9.23828 7.25092C10.2467 6.52477 11.2467 5.78739 12.2461 5.04877C13.3238 4.25221 14.4036 3.45887 15.4912 2.67579C16.0995 2.23722 16.7047 1.7944 17.3083 1.34943C17.391 1.2885 17.4737 1.22757 17.5589 1.1648C18.0107 0.839265 18.0107 0.839265 18.4377 0.483154C19.0577 -0.051775 19.5759 -0.10046 20.3778 -0.100766ZM25.1501 15.7842C23.9887 17.161 23.6156 18.5011 23.7176 20.289C23.756 20.6763 23.8558 21.0274 24.0025 21.3865C24.0779 21.6445 24.0405 21.7684 23.9551 22.0214C23.7458 22.2583 23.536 22.478 23.3101 22.6979C23.2459 22.7616 23.1817 22.8254 23.1155 22.8911C22.9105 23.0943 22.7043 23.2964 22.4982 23.4985C22.3589 23.6362 22.2196 23.774 22.0804 23.9118C21.7394 24.2493 21.3973 24.5858 21.0547 24.9218C21.471 25.7721 22.0049 26.2042 22.8979 26.5114C23.0357 26.5554 23.0357 26.5554 23.1763 26.6003C23.2665 26.6295 23.3568 26.6587 23.4498 26.6888C23.9146 26.8441 23.9146 26.8441 24.3845 26.7831C24.6505 26.6068 24.8452 26.4039 25.0616 26.1693C25.1489 26.0775 25.2362 25.9856 25.3262 25.8909C25.5087 25.6969 25.69 25.5016 25.87 25.3051C26.5432 24.6033 26.5432 24.6033 27.0586 24.5836C27.2239 24.6447 27.2239 24.6447 27.3926 24.707C28.8343 25.1526 30.3238 25.0203 31.6697 24.339C33.0878 23.5211 33.9615 22.4003 34.4824 20.8398C34.5813 20.446 34.6014 20.0837 34.5966 19.6783C34.5956 19.5735 34.5946 19.4686 34.5936 19.3606C34.5924 19.2816 34.5911 19.2025 34.5898 19.121C34.1624 19.4702 33.7752 19.8245 33.4065 20.2355C33.3319 20.3168 33.2572 20.3981 33.1803 20.4819C33.027 20.6499 32.8762 20.8203 32.728 20.9929C32.1773 21.5801 32.1773 21.5801 31.7388 21.6109C31.4237 21.5581 31.1341 21.475 30.8301 21.3769C30.5996 21.3149 30.3691 21.2531 30.1385 21.1914C29.9034 21.124 29.6684 21.056 29.4336 20.9875C29.1965 20.9186 28.9593 20.85 28.7219 20.7819C28.6186 20.7517 28.5153 20.7216 28.4089 20.6906C28.1378 20.612 28.1378 20.612 27.8223 20.6249C27.8059 20.4264 27.8059 20.4264 27.7891 20.2238C27.7177 19.5804 27.5516 18.9667 27.3859 18.3422C27.3258 18.1158 27.2663 17.8892 27.2075 17.6625C27.1812 17.5634 27.1549 17.4644 27.1278 17.3623C27.0669 17.0632 27.024 16.8458 27.0703 16.5429C27.2873 16.2667 27.2873 16.2667 27.5873 15.9773C27.666 15.9001 27.666 15.9001 27.7462 15.8214C27.9136 15.6577 28.0827 15.4961 28.252 15.3344C28.4208 15.1709 28.5894 15.007 28.7577 14.8428C28.91 14.6946 29.0633 14.5474 29.2167 14.4002C29.4461 14.2184 29.4461 14.2184 29.4336 14.0722C27.7384 13.964 26.3121 14.5339 25.1501 15.7842ZM9.0163 16.2173C8.92782 16.307 8.83933 16.3968 8.74817 16.4892C8.65941 16.5789 8.57065 16.6687 8.47919 16.7611C8.37638 16.8658 8.37638 16.8658 8.27148 16.9726C8.55508 17.7981 9.10005 18.5223 9.57321 19.2484C9.69439 19.4362 9.81365 19.6254 9.93094 19.8157C10.4685 20.7164 10.4685 20.7164 11.1719 21.4843C11.5029 21.5577 11.5029 21.5577 11.8357 21.4885C12.218 21.4303 12.4606 21.4142 12.7907 21.629C13.4212 22.1583 13.9753 22.7695 14.5355 23.3709C14.7925 23.6397 15.0504 23.9075 15.3084 24.1752C15.4679 24.3416 15.6266 24.5087 15.7844 24.6767C16.2628 25.1848 16.7609 25.654 17.2949 26.1035C17.6366 25.9413 17.8641 25.7727 18.1274 25.4992C18.1934 25.4314 18.2593 25.3635 18.3272 25.2936C18.3765 25.2418 18.4258 25.19 18.4766 25.1367C18.3331 24.8169 18.1766 24.5953 17.926 24.3511C17.8681 24.294 17.8103 24.2368 17.7506 24.1778C17.5528 23.9948 17.352 23.8184 17.1481 23.6424C16.533 23.1048 15.9346 22.5507 15.3464 21.9839C15.2129 21.8565 15.0781 21.7305 14.942 21.6059C13.9949 20.7369 13.9949 20.7369 13.75 20.3027C13.7403 19.9523 13.7403 19.9523 13.7999 19.6074C13.8587 19.2572 13.8587 19.2572 13.75 18.9062C13.1481 18.2531 12.3076 17.8233 11.5546 17.3687C11.343 17.2358 11.1317 17.1024 10.9207 16.9686C9.97204 16.2015 9.97204 16.2015 9.0163 16.2173ZM38.2623 24.4518C37.6927 25.1198 37.168 25.9601 37.168 26.8554C40.3938 26.8554 43.6197 26.8554 46.9434 26.8554C46.6131 25.3691 45.914 24.3273 44.651 23.4796C42.4998 22.2066 39.9827 22.6827 38.2623 24.4518ZM19.4257 26.5298C19.3385 26.6195 19.2513 26.7093 19.1614 26.8017C19.0736 26.8914 18.9858 26.9812 18.8953 27.0736C18.828 27.1434 18.7607 27.2132 18.6914 27.2851C18.8511 27.6836 19.0687 27.8444 19.4031 28.1042C20.1052 28.7761 20.2808 29.6142 20.5038 30.5393C20.7449 31.4731 21.1416 32.0756 21.8066 32.7636C21.8682 32.8273 21.9297 32.8911 21.9931 32.9567C22.5014 33.479 23.0195 33.9912 23.5388 34.5025C23.77 34.7307 24.001 34.9591 24.2317 35.1878C24.374 35.3288 24.5167 35.4696 24.6596 35.61C25.0641 36.0101 25.444 36.424 25.8157 36.8546C26.0846 37.1616 26.3676 37.4535 26.6541 37.744C26.7132 37.8041 26.7723 37.8641 26.8333 37.9259C26.957 38.0511 27.0808 38.1761 27.2048 38.3009C27.3305 38.4278 27.4556 38.5552 27.5804 38.6831C27.7629 38.8702 27.9468 39.0559 28.1311 39.2412C28.186 39.298 28.2408 39.3547 28.2973 39.4132C28.7484 39.8616 29.1929 40.1011 29.823 40.2362C30.1526 40.1581 30.2487 39.9862 30.4461 39.7234C30.9774 39.1196 31.708 38.7534 32.4414 38.457C32.6652 38.0094 32.6076 37.5034 32.4855 37.0294C32.019 35.9091 30.928 35.0357 30.0198 34.2654C29.2073 33.561 28.4689 32.7712 27.7128 32.0075C27.5011 31.7938 27.2892 31.5804 27.077 31.3671C27.0095 31.2992 26.9419 31.2313 26.8723 31.1614C26.4709 30.7603 26.0595 30.3796 25.6255 30.0138C25.3647 29.778 25.1577 29.4971 24.9353 29.2254C24.2483 28.4644 23.3494 28.259 22.3803 28.0209C21.5822 27.8178 21.0823 27.5643 20.5176 26.9628C20.3049 26.7454 20.0907 26.5308 19.873 26.3183C19.6323 26.2942 19.6323 26.2942 19.4257 26.5298ZM36.6309 28.5742C36.7789 29.3142 37.1872 29.7659 37.7852 30.2207C38.731 30.7515 40.0664 31.0044 41.1426 31.0449C41.3368 31.0532 41.3368 31.0532 41.5349 31.0617C43.3135 31.1124 45.3596 30.985 46.7889 29.8162C47.1119 29.5087 47.3231 29.2119 47.4805 28.789C47.4805 28.7181 47.4805 28.6472 47.4805 28.5742C43.9001 28.5742 40.3197 28.5742 36.6309 28.5742ZM16.9491 28.9994C16.8778 29.0699 16.8066 29.1404 16.7332 29.213C16.6161 29.3305 16.6161 29.3305 16.4966 29.4504C16.4143 29.5321 16.3321 29.6139 16.2473 29.6981C15.9739 29.9699 15.7014 30.2426 15.4289 30.5153C15.2397 30.7041 15.0505 30.8928 14.8613 31.0815C14.4641 31.4779 14.0672 31.8748 13.6707 32.2719C13.2634 32.6798 12.8554 33.087 12.4469 33.4935C11.9541 33.9838 11.4622 34.4749 10.9709 34.9667C10.7834 35.1541 10.5957 35.3412 10.4077 35.5281C10.1446 35.7899 9.88259 36.0527 9.62079 36.3157C9.54293 36.3928 9.46507 36.4698 9.38486 36.5492C8.86344 37.0761 8.44059 37.5652 8.43933 38.3428C8.45909 38.8692 8.5603 39.2438 8.91601 39.6386C9.40521 40.0737 9.84668 40.2358 10.498 40.2261C11.2274 40.0757 11.6778 39.6071 12.1797 39.097C12.2563 39.0205 12.3329 38.944 12.4118 38.8651C12.6637 38.613 12.9144 38.3598 13.1651 38.1066C13.3399 37.9312 13.5148 37.7558 13.6897 37.5805C14.1493 37.1198 14.6078 36.6581 15.0661 36.1962C15.5343 35.7247 16.0034 35.2541 16.4725 34.7834C17.3921 33.8604 18.3106 32.9364 19.2285 32.0117C19.1357 31.649 19.039 31.2875 18.9415 30.9261C18.9155 30.8242 18.8895 30.7223 18.8627 30.6173C18.6253 29.7502 18.275 29.1922 17.5098 28.6816C17.2139 28.6816 17.1567 28.7925 16.9491 28.9994ZM37.168 31.7968C37.1073 33.4808 37.3819 34.8308 38.5577 36.1029C39.6175 37.0864 40.9609 37.5836 42.4031 37.5313C43.4424 37.4095 44.2924 37.0493 45.1172 36.416C45.2102 36.3539 45.3033 36.2919 45.3992 36.228C46.3032 35.3715 46.9194 34.1719 46.9538 32.9193C46.9526 32.7859 46.9514 32.6526 46.9501 32.5152C46.9491 32.3805 46.9481 32.2457 46.9471 32.1069C46.9459 32.0046 46.9446 31.9023 46.9434 31.7968C46.842 31.8331 46.7406 31.8694 46.6362 31.9068C43.6748 32.9448 40.0984 33.0238 37.168 31.7968ZM38.2422 38.0273C38.2422 40.1542 38.2422 42.2812 38.2422 44.4726C40.7591 44.4726 43.276 44.4726 45.8691 44.4726C45.8691 42.3456 45.8691 40.2187 45.8691 38.0273C45.3374 38.2754 44.8057 38.5236 44.2578 38.7792C42.3135 39.3126 40.4392 39.2257 38.6526 38.2476C38.588 38.2103 38.5235 38.1731 38.457 38.1347C38.3861 38.0993 38.3152 38.0638 38.2422 38.0273ZM47.5879 38.5644C47.5879 40.5141 47.5879 42.4638 47.5879 44.4726C48.1196 44.4726 48.6514 44.4726 49.1992 44.4726C49.1992 42.7356 49.1992 40.9986 49.1992 39.2089C48.4016 38.8899 48.4016 38.8899 47.5879 38.5644ZM34.9121 39.2089C34.9121 40.9459 34.9121 42.683 34.9121 44.4726C35.4438 44.4726 35.9756 44.4726 36.5234 44.4726C36.5234 42.5229 36.5234 40.5732 36.5234 38.5644C35.945 38.5644 35.4438 38.9811 34.9121 39.2089Z" fill="#383838"/>
<path d="M53.2812 49.7363C53.8484 49.7363 54.4156 49.7363 55 49.7363C55 51.4733 55 53.2104 55 55C54.4328 55 53.8656 55 53.2812 55C53.2812 53.263 53.2812 51.526 53.2812 49.7363Z" fill="#383838"/>
<path d="M22.666 8.59375C23.2332 8.59375 23.8004 8.59375 24.3848 8.59375C24.3848 9.12549 24.3848 9.65723 24.3848 10.2051C23.8176 10.2051 23.2504 10.2051 22.666 10.2051C22.666 9.67334 22.666 9.1416 22.666 8.59375Z" fill="#383838"/>
<path d="M19.4434 8.59375C20.0105 8.59375 20.5777 8.59375 21.1621 8.59375C21.1621 9.12549 21.1621 9.65723 21.1621 10.2051C20.5949 10.2051 20.0277 10.2051 19.4434 10.2051C19.4434 9.67334 19.4434 9.1416 19.4434 8.59375Z" fill="#383838"/>
</g>
<defs>
<clipPath id="clip0_87_1459">
<rect width="55" height="55" fill="white"/>
</clipPath>
</defs>
</svg>
