<svg width="55" height="47" viewBox="0 0 55 47" fill="none" xmlns="http://www.w3.org/2000/svg">
<g clip-path="url(#clip0_192_72)">
<path d="M31.6042 1.91296C32.0256 2.21249 32.4396 2.52164 32.8524 2.83286C33.1769 3.07591 33.5069 3.3107 33.8378 3.54485C34.653 4.12547 35.4638 4.71223 36.2748 5.29869C36.6798 5.59152 37.085 5.88409 37.4902 6.17668C37.6513 6.29306 37.8125 6.40943 37.9736 6.5258C38.0932 6.61221 38.0932 6.61221 38.2153 6.70036C38.9404 7.22405 38.9404 7.22405 39.1822 7.39869C39.343 7.5148 39.5038 7.63091 39.6645 7.74702C40.0728 8.04185 40.481 8.33677 40.8891 8.63186C41.0541 8.75118 41.2192 8.87049 41.3842 8.98979C41.5045 9.07675 41.5045 9.07675 41.6272 9.16546C42.0651 9.48184 42.5043 9.79647 42.9449 10.1091C45.4382 11.8805 45.4382 11.8805 45.8355 13.2531C45.9621 14.316 45.9621 14.316 45.7617 14.7167C45.9181 14.7156 45.9181 14.7156 46.0776 14.7146C47.0592 14.708 48.0408 14.7032 49.0224 14.7C49.5271 14.6983 50.0317 14.6961 50.5364 14.6924C51.0233 14.6889 51.5101 14.687 51.997 14.6861C52.1829 14.6856 52.3689 14.6844 52.5548 14.6826C52.8148 14.6803 53.0748 14.68 53.3348 14.6801C53.412 14.679 53.4892 14.6778 53.5688 14.6766C54.0898 14.6799 54.0898 14.6799 54.3215 14.8479C54.5066 15.0981 54.5033 15.2477 54.5037 15.5575C54.5046 15.665 54.5055 15.7725 54.5065 15.8832C54.5058 16.0016 54.5052 16.12 54.5045 16.2419C54.5054 16.4302 54.5054 16.4302 54.5063 16.6222C54.5075 16.9712 54.5073 17.3201 54.5066 17.6691C54.506 18.0451 54.5074 18.4212 54.5085 18.7973C54.5103 19.5343 54.5104 20.2713 54.5099 21.0083C54.5094 21.6071 54.5096 22.2059 54.5102 22.8047C54.5102 22.8898 54.5103 22.975 54.5104 23.0627C54.5106 23.2356 54.5107 23.4085 54.5109 23.5815C54.5124 25.2041 54.5118 26.8267 54.5106 28.4493C54.5095 29.935 54.5109 31.4206 54.5135 32.9062C54.5161 34.4305 54.5171 35.9547 54.5164 37.479C54.516 38.3353 54.5163 39.1915 54.5181 40.0477C54.5197 40.7765 54.5198 41.5054 54.5179 42.2342C54.517 42.6063 54.5168 42.9783 54.5184 43.3504C54.5198 43.7532 54.5186 44.1559 54.5167 44.5587C54.5177 44.6771 54.5188 44.7955 54.5198 44.9174C54.5188 45.0249 54.5177 45.1324 54.5166 45.2431C54.5166 45.3361 54.5166 45.4291 54.5166 45.525C54.4628 45.7616 54.4628 45.7616 54.2997 45.9527C53.9217 46.1388 53.5649 46.1282 53.1527 46.1245C53.0628 46.1249 52.9728 46.1254 52.8801 46.1259C52.5767 46.1271 52.2732 46.1259 51.9698 46.1248C51.7508 46.1252 51.5319 46.1257 51.3129 46.1264C50.7097 46.1277 50.1064 46.127 49.5032 46.126C48.8532 46.1253 48.2033 46.1264 47.5533 46.1273C46.3531 46.1287 45.1529 46.1286 43.9527 46.1277C42.8441 46.1269 41.7354 46.1267 40.6267 46.127C40.5165 46.1271 40.5165 46.1271 40.4041 46.1271C40.1058 46.1272 39.8076 46.1273 39.5093 46.1274C36.7103 46.1284 33.9112 46.1275 31.1121 46.1258C28.6241 46.1242 26.136 46.1244 23.648 46.1259C20.8541 46.1276 18.0602 46.1283 15.2663 46.1273C14.9686 46.1272 14.6709 46.1271 14.3732 46.127C14.2999 46.127 14.2266 46.127 14.151 46.127C13.0429 46.1266 11.9348 46.127 10.8267 46.1278C9.56706 46.1288 8.30738 46.1285 7.0477 46.1268C6.40454 46.1259 5.76139 46.1256 5.11823 46.1267C4.5301 46.1276 3.942 46.1271 3.35388 46.1254C3.14049 46.125 2.9271 46.1252 2.71371 46.126C2.42484 46.127 2.13605 46.126 1.84719 46.1245C1.7633 46.1252 1.67942 46.126 1.59299 46.1268C1.2613 46.1233 1.00286 46.1007 0.700247 45.96C0.468616 45.6784 0.483332 45.4881 0.483296 45.1256C0.482241 44.992 0.481189 44.8583 0.480103 44.7206C0.481106 44.5715 0.48215 44.4224 0.48323 44.2732C0.482812 44.1154 0.482205 43.9577 0.481427 43.7999C0.479836 43.3652 0.480939 42.9305 0.482473 42.4959C0.483662 42.0275 0.482383 41.5591 0.481414 41.0908C0.479914 40.1729 0.480733 39.2549 0.482348 38.337C0.484156 37.2688 0.483813 36.2007 0.48341 35.1325C0.482778 33.2271 0.484304 31.3216 0.486951 29.4162C0.489521 27.5658 0.490281 25.7153 0.489154 23.8649C0.487929 21.8516 0.48772 19.8384 0.489272 17.8251C0.489436 17.6105 0.489598 17.396 0.48976 17.1815C0.489842 17.0759 0.489926 16.9703 0.490009 16.8616C0.49052 16.1164 0.490318 15.3712 0.489862 14.626C0.489334 13.7183 0.489973 12.8106 0.492108 11.9029C0.493171 11.4394 0.493714 10.976 0.492871 10.5125C0.492116 10.0887 0.492834 9.66496 0.49476 9.24116C0.495196 9.0874 0.495084 8.93365 0.494383 8.77989C0.493514 8.57175 0.494803 8.3636 0.496215 8.15545C0.496326 8.03958 0.496436 7.92371 0.49655 7.80432C0.537069 7.51946 0.53707 7.51946 0.673428 7.32105C0.9001 7.17003 1.02538 7.15711 1.29659 7.15754C1.38592 7.1569 1.47524 7.15625 1.56727 7.15559C1.66539 7.15653 1.76351 7.15747 1.86461 7.15844C1.96885 7.15816 2.07309 7.15789 2.18048 7.1576C2.53133 7.15707 2.88213 7.15885 3.23298 7.16061C3.48385 7.1607 3.73472 7.16065 3.98559 7.16046C4.66804 7.16037 5.35047 7.16227 6.03292 7.16452C6.67344 7.16632 7.31397 7.16665 7.95449 7.16698C9.2233 7.16769 10.4921 7.16983 11.7609 7.17288C12.9935 7.17584 14.2261 7.17812 15.4588 7.17949C15.5347 7.17957 15.6107 7.17966 15.689 7.17974C16.07 7.18017 16.4511 7.18057 16.8322 7.18097C19.9942 7.18431 23.1563 7.19002 26.3183 7.19719C26.3033 7.10298 26.2882 7.00877 26.2727 6.9117C26.2434 6.72498 26.2434 6.72498 26.2134 6.53448C26.1939 6.41147 26.1744 6.28846 26.1544 6.16171C25.9818 4.93727 25.8801 3.61796 26.6406 2.57805C26.7004 2.48057 26.7602 2.38308 26.8219 2.28264C28.2146 0.927516 30.0378 0.836431 31.6042 1.91296ZM27.8222 3.33C26.9511 4.80373 27.6272 7.19264 27.7966 8.82916C27.8386 9.23695 27.8797 9.64484 27.921 10.0527C27.9903 10.7363 28.0603 11.4199 28.1307 12.1034C28.2119 12.8914 28.292 13.6794 28.3716 14.4675C28.4486 15.2298 28.5262 15.9921 28.6042 16.7543C28.6372 17.077 28.67 17.3997 28.7026 17.7224C28.7411 18.1024 28.7801 18.4824 28.8195 18.8623C28.8406 19.0667 28.8612 19.2711 28.8817 19.4755C29.0048 21.0193 29.0048 21.0193 29.8632 22.2363C30.3845 22.5355 30.8808 22.6876 31.4746 22.5585C32.0013 22.3541 32.4875 22.0836 32.9785 21.8066C33.0837 21.7472 33.1889 21.6879 33.2972 21.6268C33.6506 21.4263 34.0029 21.2241 34.3548 21.021C34.529 20.9207 34.529 20.9207 34.7067 20.8183C34.815 20.7549 34.9234 20.6915 35.035 20.6262C35.1329 20.5691 35.2308 20.512 35.3316 20.4532C35.5697 20.3208 35.5697 20.3208 35.664 20.0878C35.5583 19.8486 35.5583 19.8486 35.3963 19.5847C35.3383 19.4851 35.2803 19.3854 35.2205 19.2828C35.1586 19.1784 35.0967 19.0741 35.0329 18.9666C34.9121 18.761 34.7915 18.5552 34.6712 18.3493C34.6171 18.2579 34.563 18.1664 34.5072 18.0722C34.168 17.4559 34.2 16.7979 34.2675 16.1132C34.4394 15.5381 34.7342 15.1481 35.2343 14.8174C35.9217 14.4869 36.7062 14.4719 37.4331 14.6882C38.3088 15.0868 38.6769 15.9335 39.1284 16.7376C39.2177 16.8954 39.2177 16.8954 39.3088 17.0563C39.455 17.3146 39.6007 17.5732 39.7461 17.832C40.5626 17.3879 41.3781 16.9419 42.1899 16.4892C42.2961 16.4309 42.4023 16.3726 42.5117 16.3125C43.729 15.6536 43.729 15.6536 44.4328 14.5174C44.5299 13.9562 44.4507 13.4912 44.1973 12.9845C43.5035 12.1661 42.6211 11.5916 41.7472 10.9826C41.2577 10.6412 40.7732 10.2933 40.2899 9.94316C40.2098 9.88519 40.1297 9.82723 40.0472 9.7675C39.8847 9.64986 39.7222 9.5322 39.5598 9.4145C39.1567 9.12257 38.7531 8.8313 38.3496 8.53996C38.1884 8.42359 38.0273 8.30722 37.8662 8.19084C37.7864 8.13324 37.7066 8.07563 37.6245 8.01628C36.8994 7.4926 36.8994 7.4926 36.6576 7.31796C36.4968 7.20185 36.336 7.08573 36.1752 6.96963C35.767 6.6748 35.3587 6.37988 34.9507 6.08479C34.4726 5.7391 33.9942 5.39376 33.5156 5.04875C33.4486 5.00044 33.3816 4.95213 33.3126 4.90236C32.8804 4.59101 32.4469 4.28164 32.0117 3.97453C31.9382 3.92264 31.8647 3.87075 31.7889 3.81728C31.557 3.65416 31.3246 3.49195 31.0919 3.33C31.0202 3.27958 30.9485 3.22916 30.8747 3.17721C29.8024 2.43556 28.828 2.3522 27.8222 3.33ZM1.82613 8.59368C1.82613 10.6143 1.82613 12.6349 1.82613 14.7167C5.72555 14.7167 9.62496 14.7167 13.6425 14.7167C13.6425 12.6961 13.6425 10.6755 13.6425 8.59368C9.74312 8.59368 5.84371 8.59368 1.82613 8.59368ZM15.039 8.59368C15.039 10.6143 15.039 12.6349 15.039 14.7167C19.0093 14.7167 22.9796 14.7167 27.0703 14.7167C26.8939 12.58 26.8939 12.58 26.6876 10.4467C26.6673 10.2467 26.6673 10.2467 26.6467 10.0426C26.6268 9.85131 26.6268 9.85131 26.6066 9.65615C26.595 9.54429 26.5835 9.43244 26.5715 9.3172C26.5356 8.99808 26.5356 8.99808 26.4257 8.59368C22.6681 8.59368 18.9105 8.59368 15.039 8.59368ZM35.7782 16.1199C35.4899 16.5305 35.4963 16.6893 35.5566 17.1874C35.7252 17.5807 35.9413 17.9419 36.1608 18.3086C36.223 18.4153 36.2851 18.5219 36.349 18.6318C36.4811 18.8581 36.6138 19.0839 36.7472 19.3094C36.9539 19.6596 37.1582 20.0111 37.3618 20.3631C37.8939 21.2817 38.4263 22.1984 38.9941 23.0956C39.4904 22.812 39.9867 22.5284 40.498 22.2363C40.498 21.7147 40.3077 21.4119 40.0549 20.974C40.0078 20.891 39.9608 20.808 39.9123 20.7225C39.7507 20.4386 39.5875 20.1557 39.4238 19.873C39.3617 19.7656 39.2996 19.6582 39.2357 19.5476C38.8577 18.8947 38.4788 18.2423 38.0951 17.5928C37.9774 17.3927 37.8612 17.1919 37.7464 16.9902C37.6912 16.8947 37.636 16.7991 37.5792 16.7007C37.5309 16.6159 37.4826 16.531 37.4328 16.4437C37.2595 16.1982 37.1013 16.0554 36.8457 15.8984C36.3734 15.8297 36.172 15.8434 35.7782 16.1199ZM1.82613 16.1132C1.82613 18.1338 1.82613 20.1544 1.82613 22.2363C3.56314 22.2363 5.30015 22.2363 7.0898 22.2363C7.0898 20.2156 7.0898 18.195 7.0898 16.1132C5.35279 16.1132 3.61578 16.1132 1.82613 16.1132ZM8.48629 16.1132C8.48629 18.1338 8.48629 20.1544 8.48629 22.2363C12.3503 22.2363 16.2142 22.2363 20.1953 22.2363C20.1953 20.2156 20.1953 18.195 20.1953 16.1132C16.3313 16.1132 12.4673 16.1132 8.48629 16.1132ZM21.5918 16.1132C21.5918 18.1338 21.5918 20.1544 21.5918 22.2363C23.7187 22.2363 25.8457 22.2363 28.0371 22.2363C27.9307 21.7045 27.8244 21.1728 27.7148 20.6249C27.6678 20.2693 27.6252 19.919 27.5931 19.5625C27.5799 19.4275 27.5799 19.4275 27.5664 19.2899C27.539 19.0099 27.5127 18.7298 27.4865 18.4496C27.4595 18.1649 27.4321 17.8802 27.4044 17.5956C27.3874 17.4202 27.3707 17.2448 27.3545 17.0694C27.3222 16.7332 27.2849 16.4349 27.1777 16.1132C25.3343 16.1132 23.491 16.1132 21.5918 16.1132ZM44.7475 16.3813C44.6631 16.4698 44.6631 16.4698 44.577 16.56C44.3012 16.8175 43.9909 16.9941 43.664 17.1778C43.5999 17.2141 43.5357 17.2504 43.4697 17.2878C43.2695 17.4005 43.0688 17.5122 42.868 17.6238C42.6028 17.7725 42.3378 17.9216 42.0728 18.0707C42.0099 18.106 41.9471 18.1413 41.8823 18.1777C41.4116 18.4429 40.9526 18.7217 40.498 19.0136C40.6321 19.2666 40.7664 19.5194 40.9008 19.7723C40.9382 19.8428 40.9756 19.9134 41.0141 19.9861C41.2635 20.4547 41.5216 20.9171 41.7871 21.3769C41.9233 21.3237 41.9233 21.3237 42.0623 21.2695C42.7473 21.0702 42.7473 21.0702 43.1836 21.162C43.2751 21.3389 43.3617 21.5184 43.4454 21.6991C43.688 21.965 43.688 21.965 43.9355 22.2363C44.7863 22.2363 45.6371 22.2363 46.5136 22.2363C46.5136 20.2156 46.5136 18.195 46.5136 16.1132C45.2294 15.9766 45.2294 15.9766 44.7475 16.3813ZM47.9101 16.1132C47.9101 18.1338 47.9101 20.1544 47.9101 22.2363C49.6471 22.2363 51.3841 22.2363 53.1738 22.2363C53.1738 20.2156 53.1738 18.195 53.1738 16.1132C51.4368 16.1132 49.6998 16.1132 47.9101 16.1132ZM35.6573 21.7461C35.4793 21.849 35.4793 21.849 35.2977 21.9539C35.2059 22.0116 35.1141 22.0693 35.0195 22.1288C35.0195 22.1643 35.0195 22.1997 35.0195 22.2363C35.6221 22.2363 36.2248 22.2363 36.8457 22.2363C36.7039 21.9527 36.5621 21.6691 36.416 21.3769C36.1647 21.3769 35.8634 21.6264 35.6573 21.7461ZM42.4316 22.6659C42.1767 22.782 42.1767 22.782 41.892 22.958C41.7822 23.0228 41.6724 23.0876 41.5592 23.1544C41.4439 23.2236 41.3285 23.2928 41.2097 23.3642C40.985 23.4973 40.7604 23.6305 40.5358 23.7637C40.4243 23.8301 40.3129 23.8966 40.1981 23.9651C39.6556 24.2875 39.1101 24.6047 38.5644 24.9218C38.7289 25.4406 38.9468 25.8819 39.2291 26.3451C39.3266 26.508 39.4239 26.671 39.5211 26.834C39.5743 26.923 39.6275 27.012 39.6823 27.1037C40.0016 27.6424 40.3132 28.1857 40.6256 28.7286C40.694 28.8473 40.7624 28.9661 40.8329 29.0885C40.9736 29.3326 41.1142 29.5767 41.2547 29.8208C41.4596 30.1764 41.6646 30.532 41.8697 30.8875C41.936 31.0023 42.0022 31.1171 42.0705 31.2354C42.2035 31.4659 42.3365 31.6962 42.4696 31.9266C42.7821 32.4675 43.0939 33.0088 43.403 33.5516C43.5121 33.7431 43.6214 33.9344 43.7307 34.1257C43.8676 34.3651 44.004 34.6049 44.1399 34.8449C44.9745 36.3334 44.9745 36.3334 46.4062 37.1679C47.113 37.3019 47.74 37.1238 48.3398 36.7382C48.8229 36.3026 49.1277 35.8384 49.2466 35.1911C49.2919 34.2424 48.9075 33.559 48.4472 32.7636C48.3694 32.6279 48.3694 32.6279 48.29 32.4895C47.9805 31.9516 47.6675 31.4159 47.3524 30.8812C46.9456 30.1907 46.5443 29.497 46.1444 28.8024C46.0779 28.6872 46.0115 28.5719 45.9431 28.4532C45.6691 27.9778 45.3952 27.5024 45.1214 27.0269C44.7158 26.3225 44.3097 25.6183 43.9028 24.9147C43.7848 24.7106 43.667 24.5064 43.5495 24.302C43.3989 24.0406 43.2477 23.7795 43.0963 23.5186C43.053 23.4431 43.0098 23.3676 42.9652 23.2899C42.7628 22.9146 42.7628 22.9146 42.4316 22.6659ZM1.82613 23.6327C1.82613 25.6179 1.82613 27.6031 1.82613 29.6484C5.72555 29.6484 9.62496 29.6484 13.6425 29.6484C13.6425 27.6632 13.6425 25.6781 13.6425 23.6327C9.74312 23.6327 5.84371 23.6327 1.82613 23.6327ZM15.039 23.6327C15.039 25.6179 15.039 27.6031 15.039 29.6484C18.9384 29.6484 22.8379 29.6484 26.8554 29.6484C26.8554 27.6632 26.8554 25.6781 26.8554 23.6327C22.956 23.6327 19.0566 23.6327 15.039 23.6327ZM28.1445 23.6327C28.1445 25.6179 28.1445 27.6031 28.1445 29.6484C31.9021 29.6484 35.6597 29.6484 39.5312 29.6484C39.0437 28.6734 38.5543 27.7294 38.0004 26.795C37.9348 26.6833 37.8692 26.5716 37.8015 26.4565C37.4562 25.8663 37.4562 25.8663 37.0938 25.2865C36.9531 25.0292 36.9531 25.0292 36.9464 24.6465C37.0914 24.1772 37.2892 24.0865 37.705 23.8476C37.705 23.7767 37.705 23.7058 37.705 23.6327C36.9692 23.6273 36.2333 23.6235 35.4975 23.6209C35.2473 23.6199 34.9971 23.6184 34.747 23.6165C34.3867 23.6139 34.0265 23.6127 33.6662 23.6118C33.555 23.6106 33.4437 23.6095 33.3291 23.6084C32.7354 23.6083 32.2517 23.658 31.6894 23.8476C31.1255 23.8965 30.5824 23.9015 30.0378 23.7402C29.4741 23.5661 29.4741 23.5661 28.1445 23.6327ZM44.7949 23.6327C44.9627 24.0523 45.1347 24.4083 45.3576 24.7972C45.4274 24.9192 45.4972 25.0412 45.569 25.1669C45.6444 25.2978 45.7198 25.4287 45.7952 25.5596C45.8723 25.6938 45.9493 25.828 46.0263 25.9622C46.5218 26.8245 47.0222 27.6839 47.5274 28.5406C47.5864 28.6406 47.6454 28.7407 47.7061 28.8437C47.76 28.9346 47.8139 29.0256 47.8694 29.1192C47.9164 29.1985 47.9634 29.2778 48.0118 29.3595C48.1132 29.5372 48.1132 29.5372 48.2324 29.6484C48.3874 29.6583 48.5429 29.661 48.6982 29.6606C48.7985 29.6605 48.8988 29.6605 49.0022 29.6605C49.1614 29.6597 49.1614 29.6597 49.3238 29.6589C49.4208 29.6587 49.5179 29.6586 49.6178 29.6585C49.9818 29.658 50.3458 29.6565 50.7098 29.6551C51.9295 29.6518 51.9295 29.6518 53.1738 29.6484C53.1738 27.6632 53.1738 25.6781 53.1738 23.6327C50.4087 23.6327 47.6437 23.6327 44.7949 23.6327ZM1.82613 31.0448C1.82613 33.0655 1.82613 35.0861 1.82613 37.1679C3.56314 37.1679 5.30015 37.1679 7.0898 37.1679C7.0898 35.1473 7.0898 33.1267 7.0898 31.0448C5.35279 31.0448 3.61578 31.0448 1.82613 31.0448ZM8.48629 31.0448C8.48629 33.0655 8.48629 35.0861 8.48629 37.1679C12.3503 37.1679 16.2142 37.1679 20.1953 37.1679C20.1953 35.1473 20.1953 33.1267 20.1953 31.0448C16.3313 31.0448 12.4673 31.0448 8.48629 31.0448ZM21.5918 31.0448C21.5918 33.0655 21.5918 35.0861 21.5918 37.1679C25.4912 37.1679 29.3906 37.1679 33.4082 37.1679C33.4082 35.1473 33.4082 33.1267 33.4082 31.0448C29.5087 31.0448 25.6093 31.0448 21.5918 31.0448ZM34.8046 31.0448C34.8046 33.0655 34.8046 35.0861 34.8046 37.1679C37.8178 37.1679 40.831 37.1679 43.9355 37.1679C43.6519 36.6716 43.3683 36.1753 43.0761 35.664C42.7728 35.1197 42.4696 34.5753 42.1687 34.0296C42.0444 33.8062 41.9166 33.5847 41.7857 33.3651C41.6163 33.074 41.488 32.7782 41.3615 32.4664C41.1183 31.9184 40.8753 31.4157 40.3906 31.0448C39.4806 30.7332 38.4644 30.865 37.5238 30.924C36.6265 30.9639 35.7291 31.0038 34.8046 31.0448ZM49.0918 31.0448C49.2469 31.4327 49.403 31.7598 49.6148 32.1146C50.3256 33.3064 50.6493 34.2481 50.4882 35.664C50.3495 36.1175 50.1696 36.5327 49.9511 36.9531C49.9157 37.0239 49.8802 37.0948 49.8437 37.1679C50.9426 37.1679 52.0416 37.1679 53.1738 37.1679C53.1738 35.1473 53.1738 33.1267 53.1738 31.0448C51.8267 31.0448 50.4796 31.0448 49.0918 31.0448ZM1.82613 38.5644C1.82613 40.585 1.82613 42.6056 1.82613 44.6874C5.72555 44.6874 9.62496 44.6874 13.6425 44.6874C13.6425 42.6668 13.6425 40.6462 13.6425 38.5644C9.74312 38.5644 5.84371 38.5644 1.82613 38.5644ZM15.039 38.5644C15.039 40.585 15.039 42.6056 15.039 44.6874C18.9384 44.6874 22.8379 44.6874 26.8554 44.6874C26.8554 42.6668 26.8554 40.6462 26.8554 38.5644C22.956 38.5644 19.0566 38.5644 15.039 38.5644ZM28.1445 38.5644C28.1445 40.585 28.1445 42.6056 28.1445 44.6874C32.0439 44.6874 35.9433 44.6874 39.9609 44.6874C39.9609 42.6668 39.9609 40.6462 39.9609 38.5644C36.0615 38.5644 32.1621 38.5644 28.1445 38.5644ZM41.3574 38.5644C41.3574 40.585 41.3574 42.6056 41.3574 44.6874C45.2568 44.6874 49.1562 44.6874 53.1738 44.6874C53.1738 42.6668 53.1738 40.6462 53.1738 38.5644C49.2744 38.5644 45.375 38.5644 41.3574 38.5644Z" fill="#383838"/>
<path d="M45.2246 29.4336C45.5605 29.8063 45.8066 30.2118 46.0533 30.6472C46.0896 30.7109 46.1259 30.7746 46.1632 30.8402C46.2782 31.0425 46.3926 31.2451 46.5069 31.4478C46.5832 31.5821 46.6595 31.7164 46.7358 31.8506C46.8827 32.109 47.0288 32.3678 47.1745 32.6269C47.2972 32.8443 47.4212 33.0611 47.547 33.2767C47.5962 33.3618 47.6454 33.4469 47.6961 33.5345C47.7593 33.642 47.7593 33.642 47.8237 33.7516C47.9611 34.0597 47.9157 34.2809 47.8027 34.5899C47.5879 34.8047 47.5879 34.8047 47.2253 34.845C46.755 34.7964 46.7016 34.7309 46.4062 34.375C46.2291 34.0936 46.0725 33.8024 45.9161 33.5089C45.6205 32.9617 45.3217 32.4187 44.9992 31.8867C44.945 31.7964 44.8907 31.7062 44.8348 31.6131C44.7298 31.4394 44.6236 31.2664 44.516 31.0942C44.217 30.5952 44.0711 30.2482 44.1504 29.6485C44.4699 29.2552 44.7638 29.2801 45.2246 29.4336Z" fill="#383838"/>
</g>
<defs>
<clipPath id="clip0_192_72">
<rect width="55" height="46.7285" fill="white"/>
</clipPath>
</defs>
</svg>
