<svg width="55" height="55" viewBox="0 0 55 55" fill="none" xmlns="http://www.w3.org/2000/svg">
<g clip-path="url(#clip0_87_1479)">
<path d="M11.1719 0C24.1463 0 37.1207 0 50.4883 0C50.4883 4.11211 50.4883 8.22422 50.4883 12.4609C37.5139 12.4609 24.5395 12.4609 11.1719 12.4609C11.1719 8.34883 11.1719 4.23672 11.1719 0ZM12.8906 1.61133C12.8906 4.62451 12.8906 7.6377 12.8906 10.7422C13.5287 10.7422 14.1668 10.7422 14.8242 10.7422C14.8242 9.21787 14.8242 7.69355 14.8242 6.12305C15.3914 6.12305 15.9586 6.12305 16.543 6.12305C16.543 7.64736 16.543 9.17168 16.543 10.7422C27.1777 10.7422 37.8125 10.7422 48.7695 10.7422C48.7695 7.729 48.7695 4.71582 48.7695 1.61133C36.9295 1.61133 25.0895 1.61133 12.8906 1.61133Z" fill="#383838"/>
<path d="M11.1719 13.75C11.7391 13.75 12.3062 13.75 12.8906 13.75C12.997 13.9981 13.1033 14.2463 13.2129 14.502C13.3265 14.5021 13.4401 14.5023 13.5572 14.5024C16.3231 14.5064 19.0891 14.5128 21.855 14.5217C23.1926 14.526 24.5302 14.5295 25.8678 14.5311C27.0338 14.5325 28.1998 14.5354 29.3658 14.54C29.9831 14.5425 30.6003 14.5442 31.2176 14.5441C31.799 14.544 32.3803 14.5459 32.9617 14.5493C33.1747 14.5503 33.3877 14.5504 33.6006 14.5498C35.9962 14.544 35.9962 14.544 36.9397 15.3882C37.7304 16.2591 37.8258 17.1716 37.8314 18.3062C37.8339 18.5029 37.8365 18.6995 37.8391 18.8962C37.8429 19.2043 37.8461 19.5124 37.8475 19.8205C37.8492 20.1192 37.8535 20.4178 37.8582 20.7165C37.8579 20.8546 37.8579 20.8546 37.8576 20.9956C37.8675 21.5182 37.8675 21.5182 38.1155 21.9692C38.4481 22.1961 38.7013 22.2293 39.1016 22.2363C39.4584 22.1015 39.5962 22.0049 39.7583 21.6585C39.9195 21 39.8922 20.3273 39.8955 19.6519C39.9143 18.8156 40.0468 18.2315 40.5979 17.5912C41.3338 16.9735 41.9017 16.8134 42.8643 16.8312C43.5908 16.9086 44.1212 17.2712 44.5801 17.832C44.9595 18.4628 45.1302 19.0304 45.1313 19.77C45.1319 19.9297 45.1319 19.9297 45.1326 20.0926C45.1325 20.2082 45.1325 20.3238 45.1324 20.4429C45.133 20.6269 45.133 20.6269 45.1336 20.8146C45.1343 21.0808 45.1349 21.3469 45.1353 21.6131C45.1361 22.0343 45.1378 22.4556 45.1397 22.8768C45.1404 23.0212 45.1411 23.1657 45.1418 23.3101C45.1421 23.3824 45.1425 23.4547 45.1428 23.5292C45.1473 24.5093 45.1509 25.4894 45.1522 26.4695C45.1532 27.2022 45.1564 27.9348 45.1609 28.6675C45.1623 28.9467 45.1628 29.2259 45.1626 29.5051C45.1623 29.8954 45.1647 30.2857 45.1677 30.6761C45.167 30.7914 45.1663 30.9068 45.1655 31.0256C45.1737 31.6758 45.2209 32.0537 45.6543 32.5488C46.0491 32.9051 46.3212 33.0671 46.8561 33.1195C47.3596 33.0782 47.7134 32.9479 48.125 32.6562C48.6127 32.056 48.6751 31.6094 48.6791 30.8534C48.6799 30.7436 48.6799 30.7436 48.6807 30.6316C48.6824 30.3865 48.6833 30.1414 48.6842 29.8963C48.6852 29.7206 48.6863 29.5448 48.6874 29.3691C48.6903 28.8919 48.6925 28.4148 48.6947 27.9377C48.697 27.439 48.7 26.9404 48.7029 26.4418C48.7082 25.4975 48.7131 24.5533 48.7177 23.609C48.723 22.534 48.7289 21.459 48.7348 20.384C48.7471 18.1727 48.7585 15.9614 48.7695 13.75C49.3367 13.75 49.9039 13.75 50.4883 13.75C50.4958 16.0527 50.5015 18.3555 50.505 20.6582C50.5066 21.7275 50.5089 22.7968 50.5126 23.8661C50.5158 24.7985 50.5179 25.7309 50.5186 26.6633C50.519 27.1567 50.52 27.65 50.5224 28.1433C50.5246 28.6085 50.5252 29.0737 50.5247 29.5389C50.5248 29.7088 50.5254 29.8787 50.5267 30.0486C50.5363 31.422 50.4723 32.7586 49.5215 33.8379C48.6426 34.6525 47.7029 34.9329 46.5137 34.9121C45.4499 34.7696 44.6405 34.2518 43.9797 33.4138C43.4252 32.6073 43.3362 31.7873 43.3449 30.8323C43.344 30.6463 43.344 30.6463 43.3431 30.4566C43.3421 30.1892 43.3421 29.9219 43.343 29.6546C43.3443 29.2315 43.3431 28.8085 43.3412 28.3855C43.3379 27.5645 43.3378 26.7436 43.338 25.9226C43.3381 24.8046 43.3363 23.6867 43.3319 22.5688C43.3309 22.1519 43.3318 21.7351 43.3329 21.3182C43.3322 21.0633 43.3315 20.8083 43.3306 20.5533C43.3319 20.3795 43.3319 20.3795 43.3332 20.2021C43.329 19.5904 43.3169 19.147 42.8613 18.6914C42.5052 18.6518 42.2925 18.6441 41.9847 18.8366C41.6744 19.2833 41.7228 19.7376 41.72 20.2692C41.7013 21.6511 41.5831 22.5678 40.5652 23.559C39.8285 24.0325 39.1152 24.1744 38.2422 24.0625C37.4486 23.8312 36.7815 23.3967 36.348 22.6815C35.9085 21.7782 36.0216 20.7265 36.0266 19.7455C36.027 19.4386 36.0266 19.1318 36.0244 18.8249C36.0231 18.635 36.0234 18.4451 36.0254 18.2553C36.0228 17.6757 35.9572 17.2638 35.6641 16.7578C35.2112 16.3954 34.7812 16.3902 34.224 16.3956C34.1333 16.3952 34.0427 16.3948 33.9493 16.3944C33.6456 16.3934 33.342 16.3947 33.0384 16.3959C32.8206 16.3957 32.6029 16.3952 32.3851 16.3947C31.9162 16.3938 31.4473 16.3939 30.9784 16.3947C30.2367 16.396 29.495 16.3947 28.7534 16.3929C26.911 16.389 25.0686 16.3884 23.2262 16.3886C21.7948 16.3888 20.3634 16.3881 18.9319 16.3843C18.1949 16.3825 17.4579 16.3827 16.7208 16.3844C16.2619 16.3851 15.8029 16.3839 15.344 16.3823C15.1314 16.3819 14.9189 16.3822 14.7064 16.3833C14.4157 16.3848 14.1252 16.3836 13.8345 16.3817C13.7509 16.3828 13.6672 16.3838 13.581 16.3849C12.8911 16.3759 12.3503 16.1571 11.8139 15.7222C11.2898 15.0982 11.1719 14.574 11.1719 13.75Z" fill="#383838"/>
<path d="M25.1367 32.6562C28.8943 32.6562 32.652 32.6562 36.5234 32.6562C36.5234 36.3086 36.5234 36.3086 35.7784 37.0719C35.6409 37.1776 35.5035 37.2833 35.362 37.3922C34.8651 37.88 34.8787 38.4875 34.8671 39.1532C34.8646 39.7801 34.8798 40.4055 34.902 41.032C34.9149 41.456 34.9177 41.8801 34.9212 42.3044C34.9334 43.5632 34.9622 44.8216 34.9923 46.0802C35.0154 47.0598 35.0343 48.0392 35.0416 49.0191C35.0451 49.44 35.0521 49.8601 35.0678 50.2807C35.1734 53.165 35.1734 53.165 34.3432 54.1215C33.5478 54.902 32.828 55.1846 31.7162 55.2472C31.6271 55.2431 31.5379 55.2391 31.4461 55.235C30.943 55.2171 30.4468 55.2245 29.944 55.2472C28.8322 55.1846 28.1124 54.902 27.3169 54.1215C26.3354 52.9907 26.5494 51.4369 26.6016 50.0329C26.6151 49.6088 26.6174 49.1846 26.6205 48.7602C26.6296 47.7756 26.6509 46.7914 26.6744 45.8069C26.7042 44.5532 26.7308 43.2997 26.7411 42.0457C26.745 41.6248 26.7521 41.2044 26.767 40.7837C26.9141 39.1135 26.9141 39.1135 26.4875 37.5781C26.2708 37.3578 26.2708 37.3578 25.8818 37.0719C25.1367 36.3086 25.1367 36.3086 25.1367 32.6562ZM26.8555 34.375C26.7636 35.3691 26.7636 35.3691 27.1811 36.0568C27.8182 36.6074 28.5904 36.509 29.3799 36.4697C29.5312 36.4654 29.6826 36.4615 29.8339 36.458C30.2019 36.4479 30.5697 36.4325 30.9375 36.416C30.9375 36.9832 30.9375 37.5504 30.9375 38.1348C30.1222 38.1348 29.3068 38.1348 28.4668 38.1348C28.4444 39.9809 28.4271 41.8269 28.4167 43.6731C28.4117 44.5304 28.4049 45.3876 28.3939 46.2448C28.3842 46.9923 28.378 47.7397 28.3758 48.4872C28.3746 48.8828 28.3716 49.2782 28.3646 49.6737C28.3567 50.1161 28.3566 50.5582 28.357 51.0006C28.3536 51.1307 28.3501 51.2608 28.3465 51.3949C28.3542 52.0962 28.4379 52.4735 28.9344 52.9864C29.3233 53.3336 29.5961 53.5113 30.1323 53.5133C30.2561 53.5141 30.38 53.5148 30.5076 53.5156C30.634 53.5114 30.7603 53.5072 30.8905 53.5028C31.0173 53.5056 31.144 53.5085 31.2747 53.5114C31.9071 53.5033 32.2892 53.4711 32.7794 53.0505C33.2739 52.5372 33.2943 52.0929 33.3003 51.3998C33.2972 51.2507 33.2941 51.1017 33.2909 50.9526C33.2907 50.7937 33.2908 50.6348 33.2913 50.476C33.2915 50.0467 33.2865 49.6176 33.2805 49.1884C33.2751 48.7391 33.2746 48.2898 33.2736 47.8405C33.2709 46.9906 33.2639 46.1407 33.2552 45.2908C33.2456 44.3229 33.2409 43.3549 33.2366 42.3869C33.2276 40.3966 33.2125 38.4063 33.1934 36.416C33.3714 36.4205 33.3714 36.4205 33.553 36.4252C33.9949 36.4149 34.1115 36.3622 34.422 36.0602C34.5315 35.9611 34.5315 35.9611 34.6431 35.86C34.8973 35.4401 34.8973 35.4401 34.8047 34.375C32.1814 34.375 29.5582 34.375 26.8555 34.375Z" fill="#383838"/>
<path d="M4.61914 3.97461C6.3916 3.97461 8.16406 3.97461 9.99023 3.97461C9.99023 4.5418 9.99023 5.10898 9.99023 5.69336C8.74951 5.69336 7.50879 5.69336 6.23047 5.69336C6.23047 9.80547 6.23047 13.9176 6.23047 18.1543C6.51406 18.1897 6.79766 18.2252 7.08984 18.2617C7.23711 18.2904 7.38393 18.3217 7.52949 18.3581C7.6056 18.3768 7.68171 18.3955 7.76012 18.4148C7.84064 18.4352 7.92117 18.4555 8.00414 18.4765C8.09192 18.4982 8.17971 18.52 8.27016 18.5424C8.56138 18.6147 8.85241 18.6877 9.14345 18.7606C9.3518 18.8125 9.56016 18.8643 9.76853 18.916C10.2141 19.0267 10.6597 19.1378 11.1051 19.249C12.1662 19.514 13.2277 19.7775 14.2891 20.041C14.5305 20.101 14.772 20.161 15.0134 20.221C17.7125 20.8917 20.4143 21.5511 23.1169 22.2075C24.8212 22.6215 26.5251 23.0372 28.227 23.4608C28.3999 23.5038 28.5727 23.5468 28.7456 23.5896C28.9835 23.6486 29.2213 23.7079 29.4591 23.7673C29.5945 23.8011 29.73 23.8348 29.8696 23.8696C30.1855 23.9551 30.1855 23.9551 30.4004 24.0625C30.4004 26.473 30.4004 28.8836 30.4004 31.3672C29.8332 31.3672 29.266 31.3672 28.6816 31.3672C28.6462 29.4175 28.6107 27.4678 28.5742 25.459C26.305 24.8947 24.0357 24.3307 21.7664 23.7671C21.6826 23.7463 21.5989 23.7255 21.5126 23.7041C16.1235 22.3656 10.7327 21.0349 5.33588 19.7281C5.09675 19.6699 4.85791 19.6105 4.61914 19.5508C4.61914 14.4106 4.61914 9.27051 4.61914 3.97461Z" fill="#383838"/>
<path d="M7.30469 6.66016C8.19092 6.66016 9.07715 6.66016 9.99023 6.66016C9.99023 7.22734 9.99023 7.79453 9.99023 8.37891C9.63574 8.37891 9.28125 8.37891 8.91602 8.37891C8.91602 10.8958 8.91602 13.4127 8.91602 16.0059C9.5541 16.1477 10.1922 16.2895 10.8496 16.4355C11.3979 16.5655 11.9458 16.6967 12.4932 16.8304C12.6513 16.8689 12.8093 16.9073 12.9674 16.9458C13.3993 17.0509 13.8312 17.1564 14.2631 17.2619C14.5378 17.3291 14.8126 17.3961 15.0873 17.4631C21.0914 18.9282 27.0881 20.4237 33.0859 21.9141C33.0859 25.0336 33.0859 28.1531 33.0859 31.3672C32.5187 31.3672 31.9516 31.3672 31.3672 31.3672C31.3672 28.7085 31.3672 26.0498 31.3672 23.3105C30.7291 23.1688 30.091 23.027 29.4336 22.8809C29.0975 22.8019 28.7619 22.7223 28.4267 22.6397C28.3416 22.619 28.2566 22.5982 28.1689 22.5768C27.892 22.5091 27.6152 22.4411 27.3384 22.3731C27.1359 22.3235 26.9333 22.2739 26.7307 22.2244C26.1852 22.0908 25.6398 21.957 25.0944 21.823C24.7523 21.7391 24.4102 21.6552 24.0681 21.5713C20.38 20.667 16.6931 19.7576 13.0069 18.8454C12.6285 18.7517 12.25 18.6581 11.8715 18.5645C11.2767 18.4174 10.682 18.2701 10.0873 18.1228C9.86804 18.0684 9.64874 18.0141 9.42942 17.9599C9.13021 17.8859 8.83104 17.8117 8.53188 17.7374C8.44409 17.7157 8.35629 17.6941 8.26584 17.6717C7.94131 17.591 7.62208 17.5081 7.30469 17.4023C7.30469 13.8574 7.30469 10.3125 7.30469 6.66016Z" fill="#383838"/>
<path d="M35.6641 2.68555C39.6698 2.68555 43.6756 2.68555 47.8027 2.68555C47.8027 4.77705 47.8027 6.86855 47.8027 9.02344C47.2355 9.02344 46.6684 9.02344 46.084 9.02344C46.084 7.46367 46.084 5.90391 46.084 4.29688C42.6454 4.29688 39.2068 4.29688 35.6641 4.29688C35.6641 3.76514 35.6641 3.2334 35.6641 2.68555Z" fill="#383838"/>
<path d="M46.2988 18.9062C46.866 18.9062 47.4332 18.9062 48.0176 18.9062C48.0176 21.5295 48.0176 24.1527 48.0176 26.8555C47.4504 26.8555 46.8832 26.8555 46.2988 26.8555C46.2988 24.2322 46.2988 21.609 46.2988 18.9062Z" fill="#383838"/>
<path d="M30.5078 45.0098C31.075 45.0098 31.6422 45.0098 32.2266 45.0098C32.2266 47.1013 32.2266 49.1928 32.2266 51.3477C31.6594 51.3477 31.0922 51.3477 30.5078 51.3477C30.5078 49.2562 30.5078 47.1646 30.5078 45.0098Z" fill="#383838"/>
<path d="M46.2988 16.2207C46.866 16.2207 47.4332 16.2207 48.0176 16.2207C48.0176 16.7879 48.0176 17.3551 48.0176 17.9395C47.4504 17.9395 46.8832 17.9395 46.2988 17.9395C46.2988 17.3723 46.2988 16.8051 46.2988 16.2207Z" fill="#383838"/>
<path d="M46.2988 13.5352C46.866 13.5352 47.4332 13.5352 48.0176 13.5352C48.0176 14.1023 48.0176 14.6695 48.0176 15.2539C47.4504 15.2539 46.8832 15.2539 46.2988 15.2539C46.2988 14.6867 46.2988 14.1195 46.2988 13.5352Z" fill="#383838"/>
<path d="M30.5078 42.3242C31.075 42.3242 31.6422 42.3242 32.2266 42.3242C32.2266 42.856 32.2266 43.3877 32.2266 43.9355C31.6594 43.9355 31.0922 43.9355 30.5078 43.9355C30.5078 43.4038 30.5078 42.8721 30.5078 42.3242Z" fill="#383838"/>
<path d="M30.5078 39.6387C31.075 39.6387 31.6422 39.6387 32.2266 39.6387C32.2266 40.1704 32.2266 40.7021 32.2266 41.25C31.6594 41.25 31.0922 41.25 30.5078 41.25C30.5078 40.7183 30.5078 40.1865 30.5078 39.6387Z" fill="#383838"/>
<path d="M32.9785 2.68555C33.5457 2.68555 34.1129 2.68555 34.6973 2.68555C34.6973 3.21729 34.6973 3.74902 34.6973 4.29688C34.1301 4.29688 33.5629 4.29688 32.9785 4.29688C32.9785 3.76514 32.9785 3.2334 32.9785 2.68555Z" fill="#383838"/>
<path d="M30.293 2.68555C30.8602 2.68555 31.4273 2.68555 32.0117 2.68555C32.0117 3.21729 32.0117 3.74902 32.0117 4.29688C31.4445 4.29688 30.8773 4.29688 30.293 4.29688C30.293 3.76514 30.293 3.2334 30.293 2.68555Z" fill="#383838"/>
</g>
<defs>
<clipPath id="clip0_87_1479">
<rect width="55" height="55" fill="white"/>
</clipPath>
</defs>
</svg>
