<svg width="55" height="55" viewBox="0 0 55 55" fill="none" xmlns="http://www.w3.org/2000/svg">
<g clip-path="url(#clip0_87_1464)">
<path d="M26.4097 2.04682C26.7416 2.1929 26.938 2.41132 27.1912 2.67043C27.2453 2.72528 27.2993 2.78013 27.355 2.83664C27.5363 3.02088 27.7164 3.20623 27.8965 3.39159C28.0261 3.5238 28.1559 3.65593 28.2857 3.78798C28.5654 4.0727 28.8446 4.35786 29.1236 4.64331C29.5653 5.09506 30.0089 5.54495 30.453 5.99443C30.6051 6.14841 30.7572 6.30239 30.9092 6.45637C30.9854 6.5335 31.0616 6.61062 31.1401 6.69007C32.1736 7.73672 33.2057 8.78475 34.2335 9.83706C34.9267 10.5468 35.6227 11.2539 36.3217 11.958C36.6914 12.3305 37.0595 12.7042 37.4244 13.0814C37.7681 13.4366 38.1152 13.7882 38.4652 14.1373C38.5925 14.2655 38.7185 14.395 38.8431 14.5259C39.4812 15.1949 40.0022 15.6673 40.9621 15.7076C41.2014 15.7054 41.4409 15.6996 41.6797 15.6836C41.8288 18.2229 41.8398 20.2129 40.5956 22.4901C40.2316 23.1692 39.9352 23.882 39.6259 24.5872C39.4333 25.0248 39.2373 25.4609 39.0416 25.8971C38.9621 26.0745 38.8827 26.2519 38.8033 26.4294C38.7638 26.5174 38.7244 26.6055 38.6838 26.6962C38.4468 27.2257 38.21 27.7552 37.9732 28.2847C37.7809 28.7148 37.5885 29.1448 37.3961 29.5748C37.3589 29.6579 37.3217 29.741 37.2833 29.8267C37.2094 29.992 37.1354 30.1573 37.0614 30.3226C36.85 30.795 36.6389 31.2675 36.428 31.7401C36.2997 32.0277 36.1712 32.3153 36.0426 32.6028C35.956 32.7967 35.8696 32.9908 35.7831 33.1848C35.731 33.3015 35.6788 33.4181 35.625 33.5383C35.5804 33.6383 35.5358 33.7384 35.4898 33.8414C35.3056 34.2381 35.1077 34.6284 34.9121 35.0196C33.565 35.0196 32.218 35.0196 30.8301 35.0196C30.8301 34.4524 30.8301 33.8852 30.8301 33.3008C31.8227 33.3008 32.8152 33.3008 33.8379 33.3008C33.9442 32.9818 34.0506 32.6627 34.1602 32.334C34.2523 32.1103 34.348 31.888 34.448 31.6677C34.5028 31.5463 34.5575 31.4249 34.614 31.2999C34.7017 31.1072 34.7017 31.1072 34.7913 30.9107C34.8535 30.7731 34.9157 30.6356 34.9778 30.498C35.1066 30.2128 35.2356 29.9278 35.3648 29.6428C35.6635 28.9832 35.959 28.3221 36.2549 27.6612C36.3708 27.4025 36.4868 27.1439 36.6027 26.8853C36.8097 26.4237 37.0165 25.9621 37.2231 25.5004C37.3437 25.2311 37.4643 24.9618 37.5849 24.6925C37.6665 24.5101 37.7481 24.3276 37.8297 24.1452C38.3562 22.9695 38.8907 21.7978 39.4238 20.625C22.1423 20.6782 22.1423 20.6782 4.51172 20.7325C5.71247 23.0565 5.71247 23.0565 6.92619 25.3734C7.25197 25.9914 7.5736 26.6115 7.89551 27.2315C8.30748 28.0248 8.72063 28.8175 9.13757 29.6082C9.22248 29.7695 9.30738 29.9307 9.39228 30.092C9.54103 30.3745 9.68999 30.6569 9.83922 30.9392C10.0198 31.2808 10.1997 31.6228 10.3796 31.9648C10.437 32.0729 10.4943 32.1811 10.5534 32.2925C10.6323 32.4429 10.6323 32.4429 10.7128 32.5963C10.76 32.6857 10.8071 32.7751 10.8557 32.8672C10.957 33.086 10.957 33.086 10.957 33.3008C17.0188 33.3008 23.0807 33.3008 29.3262 33.3008C29.3262 33.868 29.3262 34.4352 29.3262 35.0196C22.9099 35.0196 16.4936 35.0196 9.88281 35.0196C9.2979 33.8497 9.2979 33.8497 8.70117 32.6563C8.39164 32.0646 8.08143 31.4736 7.76873 30.8837C7.5092 30.3924 7.25264 29.8995 6.99585 29.4068C6.94201 29.3035 6.88817 29.2003 6.8327 29.0939C6.61253 28.6716 6.39244 28.2492 6.17235 27.8269C5.62284 26.7726 5.07301 25.7185 4.51843 24.6668C4.08264 23.8396 3.64859 23.0115 3.21594 22.1826C3.1544 22.0652 3.09286 21.9477 3.02945 21.8267C2.94376 21.6622 2.94376 21.6622 2.85633 21.4945C2.80523 21.3966 2.75412 21.2988 2.70147 21.198C2.57812 20.9473 2.57812 20.9473 2.4707 20.625C1.65537 20.625 0.840039 20.625 0 20.625C0 18.9944 0 17.3637 0 15.6836C0.673535 15.6482 1.34707 15.6127 2.04102 15.5762C2.65586 15.1384 2.65586 15.1384 3.18363 14.648C3.55119 14.2725 3.94885 13.9503 4.36401 13.6292C4.42637 13.5797 4.48873 13.5302 4.55297 13.4792C4.85552 13.2417 5.13174 13.064 5.47852 12.8907C5.79756 13.2806 6.1166 13.6705 6.44531 14.0723C6.23047 14.502 6.23047 14.502 4.94141 15.5762C13.0238 15.6294 13.0238 15.6294 21.2695 15.6836C21.2695 16.2508 21.2695 16.818 21.2695 17.4024C14.8178 17.4024 8.36602 17.4024 1.71875 17.4024C1.71875 17.8987 1.71875 18.395 1.71875 18.9063C14.3387 18.9063 26.9586 18.9063 39.9609 18.9063C39.9609 18.41 39.9609 17.9137 39.9609 17.4024C34.2891 17.4024 28.6172 17.4024 22.7734 17.4024C22.7734 16.8352 22.7734 16.268 22.7734 15.6836C27.63 15.6482 32.4865 15.6127 37.4902 15.5762C33.839 11.9249 30.1877 8.27367 26.4258 4.51175C25.8761 4.98159 25.8761 4.98159 25.3516 5.47855C24.9893 5.32109 24.7446 5.11849 24.4653 4.84073C24.3894 4.76665 24.3136 4.69256 24.2354 4.61624C24.0625 4.40433 24.0625 4.40433 24.0625 4.08206C24.2052 3.93142 24.2052 3.93142 24.4116 3.76651C24.7083 3.52121 24.9855 3.26908 25.2509 2.99064C25.3075 2.93157 25.3641 2.87251 25.4224 2.81165C25.5354 2.69273 25.6474 2.57282 25.7583 2.45188C26.1537 2.03939 26.1537 2.03939 26.4097 2.04682Z" fill="#383838"/>
<path d="M39.9609 27.5C40.4572 27.7127 40.9535 27.9254 41.4648 28.1445C41.379 28.6595 41.3059 28.9491 41.0905 29.4004C41.035 29.5181 40.9796 29.6357 40.9224 29.7569C40.8621 29.8828 40.8018 30.0088 40.7397 30.1385C40.6116 30.4096 40.4841 30.6809 40.3566 30.9522C40.3238 31.0218 40.2911 31.0913 40.2573 31.163C39.8545 32.0197 39.4699 32.8844 39.0847 33.7492C39.006 33.9256 39.006 33.9256 38.9257 34.1056C38.8742 34.2244 38.8227 34.3432 38.7697 34.4656C38.6264 34.7873 38.4671 35.0953 38.2984 35.4043C37.4459 37.0222 37.3419 38.4168 37.3694 40.2215C37.3695 40.4976 37.3691 40.7737 37.3683 41.0498C37.3674 41.6962 37.371 42.3423 37.3772 42.9887C37.3873 44.0787 37.3872 45.1688 37.3881 46.2589C37.3885 46.7988 37.3913 47.3387 37.396 47.8786C37.3973 48.125 37.3987 48.3714 37.4 48.6178C37.4015 48.7281 37.4029 48.8384 37.4044 48.9521C37.4087 50.2102 37.1515 51.2483 36.275 52.1869C35.4754 52.9345 34.4515 53.2315 33.3708 53.2082C32.2689 53.0752 31.4237 52.525 30.6916 51.7224C30.1874 50.9892 29.9527 50.1267 29.7138 49.2792C29.6802 49.1622 29.6466 49.0453 29.612 48.9247C29.502 48.5411 29.3931 48.1573 29.2842 47.7734C29.2078 47.5058 29.1313 47.2382 29.0548 46.9706C28.8951 46.4114 28.7359 45.8521 28.577 45.2927C28.3934 44.6462 28.209 43.9998 28.0242 43.3536C27.846 42.7305 27.6682 42.1073 27.4908 41.484C27.4153 41.2192 27.3398 40.9544 27.2641 40.6897C27.1588 40.3208 27.054 39.9518 26.9493 39.5827C26.9179 39.4729 26.8864 39.3631 26.854 39.2499C26.8115 39.0995 26.8115 39.0995 26.7682 38.946C26.7434 38.8589 26.7186 38.7717 26.6931 38.6819C26.6406 38.457 26.6406 38.457 26.6406 38.1348C25.4005 38.1239 24.1604 38.1188 22.9202 38.1211C22.3442 38.122 21.7684 38.1209 21.1924 38.1153C20.6358 38.1098 20.0794 38.1097 19.5228 38.1132C19.3112 38.1136 19.0996 38.1121 18.888 38.1087C17.4647 38.0713 17.4647 38.0713 16.276 38.7605C16.1125 38.9441 15.9507 39.1294 15.791 39.3164C15.615 39.4634 15.4368 39.6078 15.2539 39.7461C15.4152 40.175 15.617 40.57 15.8313 40.9747C16.8967 43.0742 16.9951 45.3042 16.3147 47.5476C15.859 48.8228 15.1295 49.856 14.1797 50.8105C14.1006 50.8934 14.0215 50.9762 13.9401 51.0615C12.415 52.5585 10.2345 53.2053 8.13806 53.2001C5.78734 53.1617 3.90365 52.2045 2.22228 50.6091C0.579001 48.9028 -0.0581426 46.7938 -0.045092 44.4749C0.00448782 42.4335 0.702854 40.7513 2.04101 39.209C2.10747 39.1213 2.17394 39.0337 2.24242 38.9434C3.48313 37.4677 5.57084 36.5615 7.46529 36.392C9.7427 36.2568 11.6596 36.8216 13.5351 38.1348C13.606 38.2057 13.6769 38.2766 13.75 38.3496C14.1664 38.3221 14.384 38.0835 14.6765 37.8058C14.8094 37.6801 14.9428 37.5549 15.08 37.4339C15.263 37.2713 15.263 37.2713 15.4529 37.0624C16.299 36.2491 17.1554 36.2991 18.2546 36.3185C18.4485 36.3187 18.6423 36.3186 18.8361 36.3181C19.3597 36.3178 19.8831 36.3229 20.4066 36.3289C20.9547 36.3343 21.5028 36.3348 22.0509 36.3358C23.0876 36.3384 24.1242 36.3455 25.1609 36.3541C26.3416 36.3637 27.5224 36.3685 28.7031 36.3728C31.1309 36.3817 33.5586 36.3968 35.9863 36.416C36.0076 36.3509 36.0288 36.2858 36.0508 36.2188C36.0791 36.1327 36.1075 36.0466 36.1367 35.958C36.1786 35.8304 36.1786 35.8304 36.2213 35.7003C36.3477 35.3366 36.504 34.9904 36.6669 34.6419C36.7009 34.5682 36.7348 34.4945 36.7697 34.4186C36.8797 34.1801 36.9902 33.9418 37.1008 33.7036C37.2559 33.3676 37.4106 33.0314 37.5653 32.6953C37.6042 32.6109 37.6431 32.5266 37.6831 32.4397C38.1194 31.492 38.5443 30.5393 38.9672 29.5856C39.2812 28.8807 39.6104 28.1876 39.9609 27.5ZM3.28559 40.3608C1.93267 42.078 1.59117 43.7438 1.71874 45.8691C1.77391 46.2954 1.8748 46.6552 2.04101 47.0508C2.08961 47.1693 2.13821 47.2878 2.18829 47.41C2.93047 49.0474 4.22073 50.3589 5.90819 51.0254C7.81772 51.638 9.57554 51.579 11.4136 50.7501C13.0638 49.861 14.1708 48.3401 14.8007 46.6047C15.2791 44.9408 14.976 43.2345 14.2871 41.6797C14.1523 41.4572 14.0081 41.2477 13.8574 41.0352C13.4685 41.2067 13.1652 41.445 12.8369 41.7133C12.7361 41.7948 12.6353 41.8764 12.5314 41.9604C12.2573 42.2067 12.0372 42.4597 11.8164 42.7539C11.8462 42.819 11.8759 42.8841 11.9066 42.9511C12.3674 44.0169 12.4644 44.9593 12.1387 46.084C11.6904 47.2136 11.0654 47.8895 9.99022 48.4473C8.88197 48.9227 7.77854 48.8619 6.66015 48.4473C5.66182 47.954 4.86614 47.1111 4.49576 46.0542C4.21849 44.8421 4.29628 43.6175 4.9414 42.5391C5.53419 41.6786 6.31522 41.1441 7.32272 40.8749C8.29255 40.701 9.15785 40.7609 10.0649 41.1455C10.2984 41.244 10.4915 41.3219 10.7422 41.3574C10.9963 41.1614 11.2139 40.9707 11.4404 40.7465C11.5015 40.6881 11.5626 40.6297 11.6255 40.5696C11.9442 40.2638 12.2572 39.9521 12.5683 39.6387C9.71174 37.4457 5.75225 37.5789 3.28559 40.3608ZM28.4668 38.1348C28.5584 38.7801 28.5584 38.7801 28.7066 39.401C28.7465 39.5435 28.7465 39.5435 28.7873 39.6889C28.8164 39.7907 28.8455 39.8924 28.8754 39.9973C28.9062 40.1063 28.9369 40.2154 28.9686 40.3278C29.0701 40.687 29.1723 41.0459 29.2745 41.4048C29.3456 41.6551 29.4167 41.9054 29.4878 42.1556C29.6367 42.6796 29.786 43.2033 29.9356 43.7271C30.127 44.3978 30.317 45.0689 30.5066 45.7401C30.6528 46.2569 30.8001 46.7733 30.9476 47.2897C31.0181 47.537 31.0882 47.7844 31.1579 48.032C31.2555 48.3781 31.3546 48.7238 31.454 49.0694C31.4824 49.1713 31.5108 49.2733 31.5401 49.3784C31.7732 50.1797 32.0526 50.7546 32.7637 51.2402C33.2018 51.4708 33.5608 51.5051 34.0527 51.4551C34.7672 51.2155 35.2056 50.8231 35.5694 50.1627C35.7128 49.6796 35.692 49.2092 35.6884 48.7079C35.6885 48.5936 35.6885 48.4794 35.6885 48.3616C35.6884 47.9844 35.6867 47.6072 35.685 47.23C35.6846 46.9682 35.6843 46.7065 35.6841 46.4447C35.6833 45.7561 35.6812 45.0676 35.6788 44.379C35.6762 43.5527 35.6752 42.7263 35.674 41.9C35.6719 40.6449 35.6678 39.3898 35.6641 38.1348C33.289 38.1348 30.9139 38.1348 28.4668 38.1348ZM6.38488 43.4119C5.94729 44.049 5.93594 44.6858 6.01562 45.4395C6.23763 46.1542 6.66222 46.5448 7.28496 46.9333C7.80476 47.1937 8.34906 47.2447 8.9181 47.1049C9.5964 46.8754 10.1076 46.5235 10.4535 45.8826C10.7848 45.1424 10.7537 44.5871 10.5273 43.8281C9.97483 44.1625 9.52274 44.5763 9.05238 45.0177C8.80858 45.2246 8.80858 45.2246 8.48632 45.332C8.45779 45.2694 8.42927 45.2069 8.39988 45.1424C8.26793 44.8957 8.12075 44.7086 7.93578 44.4995C7.8779 44.4336 7.82002 44.3677 7.76038 44.2998C7.71635 44.2505 7.67231 44.2012 7.62694 44.1504C7.99809 43.6535 8.41943 43.3155 8.91097 42.944C8.98353 42.8813 9.05609 42.8185 9.13085 42.7539C9.13085 42.683 9.13085 42.6121 9.13085 42.5391C8.08158 42.1893 7.05783 42.5393 6.38488 43.4119Z" fill="#383838"/>
<path d="M18.6297 5.37229C18.9946 5.5124 19.2086 5.71861 19.4903 5.98871C19.5928 6.08536 19.6952 6.18202 19.8008 6.2816C19.8955 6.37105 19.9903 6.46051 20.0878 6.55267C20.2996 6.73616 20.5147 6.9133 20.7324 7.08978C21.0614 6.94292 21.2873 6.77548 21.5414 6.5212C21.6455 6.41973 21.6455 6.41973 21.7516 6.31622C21.8963 6.17334 22.0404 6.02983 22.1838 5.88569C22.2532 5.81846 22.3226 5.75123 22.3941 5.68197C22.4566 5.61977 22.5191 5.55757 22.5835 5.49348C22.7734 5.37103 22.7734 5.37103 22.9976 5.39143C23.2975 5.51844 23.4509 5.72158 23.6596 5.96857C23.7355 6.05733 23.8114 6.14609 23.8896 6.23754C23.9751 6.34036 23.9751 6.34036 24.0625 6.44525C23.9104 6.79157 23.7279 7.02067 23.4582 7.28448C23.3904 7.35164 23.3225 7.4188 23.2526 7.488C23.0364 7.68948 22.8167 7.88285 22.5928 8.07557C22.1494 8.46295 21.731 8.87027 21.3165 9.28815C21.2074 9.39743 21.2074 9.39743 21.0962 9.50891C20.8672 9.73845 20.6387 9.96837 20.4101 10.1983C20.2536 10.3553 20.0971 10.5123 19.9406 10.6693C19.5597 11.0514 19.1791 11.4338 18.7988 11.8163C18.4324 11.6439 18.1953 11.4506 17.9125 11.1584C17.8367 11.0806 17.7608 11.0027 17.6826 10.9226C17.597 10.8332 17.597 10.8332 17.5097 10.7421C17.6629 10.3921 17.8499 10.1618 18.1215 9.8945C18.1984 9.81834 18.2752 9.74218 18.3544 9.66371C18.4346 9.58533 18.5148 9.50696 18.5974 9.42621C18.6784 9.34617 18.7594 9.26613 18.8428 9.18367C19.0425 8.98651 19.2427 8.78988 19.4433 8.59369C19.297 8.24783 19.1506 8.07625 18.8391 7.86859C18.7373 7.79963 18.7373 7.79963 18.6334 7.72928C18.5817 7.69549 18.5299 7.6617 18.4765 7.62689C18.3854 7.70624 18.2943 7.78558 18.2004 7.86733C17.4321 8.53303 16.6533 9.1794 15.8489 9.80092C15.5803 10.0087 15.3167 10.2215 15.055 10.4379C14.9871 10.4933 14.9193 10.5487 14.8493 10.6057C14.7189 10.7123 14.5894 10.8199 14.4608 10.9287C14.2829 11.0728 14.2829 11.0728 13.9648 11.2792C13.6176 11.2423 13.4222 11.1063 13.1642 10.8793C13.0977 10.8215 13.0312 10.7637 12.9627 10.7041C12.8946 10.6436 12.8265 10.583 12.7563 10.5206C12.6865 10.4596 12.6167 10.3986 12.5448 10.3357C12.373 10.1854 12.202 10.0342 12.0312 9.88275C11.438 10.3192 10.8647 10.7742 10.299 11.2457C9.70199 11.7392 9.10451 12.232 8.49971 12.716C8.43779 12.7665 8.37588 12.817 8.31208 12.869C7.87896 13.2128 7.87896 13.2128 7.51948 13.2128C7.29624 12.9929 7.29624 12.9929 7.06294 12.7026C6.98484 12.6079 6.90674 12.5131 6.82627 12.4156C6.66011 12.1386 6.66011 12.1386 6.68258 11.9256C6.78318 11.669 6.88571 11.5727 7.10112 11.403C7.17056 11.3475 7.23999 11.292 7.31153 11.2348C7.3868 11.1763 7.46207 11.1179 7.53962 11.0577C7.65616 10.9651 7.65616 10.9651 7.77505 10.8707C8.01128 10.6835 8.2486 10.4978 8.48628 10.3124C8.67501 10.1646 8.86367 10.0166 9.05229 9.86861C9.17193 9.77497 9.29184 9.68165 9.412 9.58868C9.77321 9.30769 10.1243 9.01787 10.4711 8.71915C10.5529 8.64935 10.6348 8.57955 10.7191 8.50764C10.8793 8.37047 11.0385 8.23198 11.1963 8.09206C11.7351 7.63312 11.7351 7.63312 12.1009 7.60507C12.4412 7.77918 12.6781 8.00423 12.951 8.27142C13.3199 8.63586 13.3199 8.63586 13.7449 8.92644C14.1176 8.90866 14.3555 8.65665 14.6295 8.42584C14.6942 8.37311 14.759 8.32038 14.8257 8.26605C15.0412 8.09011 15.2549 7.91225 15.4687 7.73431C15.6243 7.60636 15.78 7.47852 15.9357 7.35078C16.0934 7.22128 16.251 7.09175 16.4086 6.96222C16.4861 6.89857 16.5636 6.83493 16.6434 6.76935C16.9753 6.49605 17.3061 6.22214 17.6306 5.94003C17.7236 5.86082 17.8167 5.78162 17.9125 5.70001C17.9895 5.63257 18.0665 5.56514 18.1459 5.49566C18.3691 5.37103 18.3691 5.37103 18.6297 5.37229Z" fill="#383838"/>
<path d="M45.4395 15.2539C48.5944 15.2539 51.7494 15.2539 55 15.2539C55 15.8211 55 16.3883 55 16.9727C52.235 17.0081 49.4699 17.0436 46.6211 17.0801C46.0253 18.3972 46.0253 18.3972 45.4295 19.7143C45.0012 20.6611 44.5728 21.608 44.1441 22.5546C43.9581 22.9653 43.7721 23.376 43.5862 23.7867C43.4973 23.983 43.4083 24.1794 43.3193 24.3757C43.1946 24.651 43.0699 24.9264 42.9453 25.2018C42.8905 25.3225 42.8905 25.3225 42.8346 25.4457C42.6231 25.9133 42.4175 26.383 42.2168 26.8555C41.6547 26.6793 41.1263 26.4914 40.6055 26.2109C40.8097 25.5605 41.0492 24.9406 41.3339 24.3214C41.3929 24.1915 41.3929 24.1915 41.4531 24.059C41.5819 23.7757 41.7114 23.4928 41.8408 23.2098C41.9312 23.0113 42.0216 22.8126 42.1119 22.614C42.3007 22.1989 42.4897 21.784 42.6788 21.3691C43.1066 20.4304 43.5315 19.4903 43.9564 18.5503C44.0874 18.2606 44.2186 17.9709 44.3497 17.6812C44.4308 17.502 44.512 17.3227 44.5931 17.1434C44.629 17.0641 44.665 16.9847 44.702 16.9029C44.9502 16.3542 45.1949 15.8042 45.4395 15.2539Z" fill="#383838"/>
<path d="M32.7637 27.6074C33.3229 27.7938 33.8406 28.0091 34.375 28.252C34.1271 29.0567 33.7978 29.806 33.4418 30.5682C33.2534 30.9737 33.0651 31.3791 32.8711 31.7969C31.4531 31.7969 30.0352 31.7969 28.5742 31.7969C28.5742 31.2297 28.5742 30.6625 28.5742 30.0781C29.6022 30.0427 30.6303 30.0072 31.6895 29.9707C32.0439 29.1908 32.3984 28.4109 32.7637 27.6074Z" fill="#383838"/>
<path d="M9.56055 23.418C9.81895 23.9168 10.0771 24.4157 10.3349 24.9148C10.4226 25.0846 10.5105 25.2543 10.5984 25.424C10.7247 25.6679 10.8508 25.9119 10.9768 26.156C11.0161 26.2318 11.0555 26.3077 11.0961 26.3859C11.2492 26.683 11.3882 26.9675 11.4941 27.2852C11.2662 27.411 11.0379 27.5363 10.8093 27.6611C10.7445 27.697 10.6797 27.7329 10.6129 27.7698C10.122 28.0371 10.122 28.0371 9.88281 28.0371C9.24473 26.7964 8.60664 25.5557 7.94922 24.2773C8.25923 24.0448 8.54082 23.8529 8.87573 23.6664C8.95909 23.6194 9.04245 23.5725 9.12834 23.5241C9.3457 23.418 9.3457 23.418 9.56055 23.418Z" fill="#383838"/>
<path d="M16.4355 30.0781C17.7472 30.0781 19.0588 30.0781 20.4102 30.0781C20.4102 30.6453 20.4102 31.2125 20.4102 31.7969C19.0985 31.7969 17.7869 31.7969 16.4355 31.7969C16.4355 31.2297 16.4355 30.6625 16.4355 30.0781Z" fill="#383838"/>
<path d="M11.4941 12.7832C12.0613 12.7832 12.6285 12.7832 13.2129 12.7832C13.2129 13.3504 13.2129 13.9176 13.2129 14.502C12.6457 14.502 12.0785 14.502 11.4941 14.502C11.4941 13.9348 11.4941 13.3676 11.4941 12.7832Z" fill="#383838"/>
<path d="M26.3184 12.6758C26.8855 12.6758 27.4527 12.6758 28.0371 12.6758C28.0371 13.243 28.0371 13.8102 28.0371 14.3945C27.4699 14.3945 26.9027 14.3945 26.3184 14.3945C26.3184 13.8273 26.3184 13.2602 26.3184 12.6758Z" fill="#383838"/>
<path d="M30.7227 12.5684C31.2898 12.5684 31.857 12.5684 32.4414 12.5684C32.4414 13.1355 32.4414 13.7027 32.4414 14.2871C31.8742 14.2871 31.307 14.2871 30.7227 14.2871C30.7227 13.7199 30.7227 13.1527 30.7227 12.5684Z" fill="#383838"/>
<path d="M20.1953 12.3535C20.7625 12.3535 21.3297 12.3535 21.9141 12.3535C21.9141 12.9207 21.9141 13.4879 21.9141 14.0723C21.3469 14.0723 20.7797 14.0723 20.1953 14.0723C20.1953 13.5051 20.1953 12.9379 20.1953 12.3535Z" fill="#383838"/>
<path d="M15.1465 12.3535C15.7137 12.3535 16.2809 12.3535 16.8652 12.3535C16.8652 12.9207 16.8652 13.4879 16.8652 14.0723C16.298 14.0723 15.7309 14.0723 15.1465 14.0723C15.1465 13.5051 15.1465 12.9379 15.1465 12.3535Z" fill="#383838"/>
<path d="M23.6328 9.66797C24.2 9.66797 24.7672 9.66797 25.3516 9.66797C25.3516 10.2352 25.3516 10.8023 25.3516 11.3867C24.7844 11.3867 24.2172 11.3867 23.6328 11.3867C23.6328 10.8195 23.6328 10.2523 23.6328 9.66797Z" fill="#383838"/>
<path d="M27.3926 9.23828C27.9598 9.23828 28.527 9.23828 29.1113 9.23828C29.1113 9.80547 29.1113 10.3727 29.1113 10.957C28.5441 10.957 27.977 10.957 27.3926 10.957C27.3926 10.3898 27.3926 9.82266 27.3926 9.23828Z" fill="#383838"/>
</g>
<defs>
<clipPath id="clip0_87_1464">
<rect width="55" height="55" fill="white"/>
</clipPath>
</defs>
</svg>
